<?xml version="1.0" standalone="no"?>
<!DOCTYPE svg PUBLIC "-//W3C//DTD SVG 1.1//EN" "http://www.w3.org/Graphics/SVG/1.1/DTD/svg11.dtd" >
<svg>
<metadata>
Created by FontForge 20120731 at Thu Oct 17 19:34:04 2019
 By www-data
Copyright (c) Alexandra Gophmann &#38; Anatole, 2007. All rights reserved.
</metadata>
<defs>
<font id="MedievalEnglish-Normal" horiz-adv-x="570" >
  <font-face 
    font-family="Medieval English"
    font-weight="400"
    font-stretch="normal"
    units-per-em="1000"
    panose-1="2 0 4 0 0 0 0 0 0 0"
    ascent="800"
    descent="-200"
    x-height="458"
    cap-height="647"
    bbox="-76 -218 1013 842.692"
    underline-thickness="20"
    underline-position="-123"
    unicode-range="U+0020-25CA"
  />
<missing-glyph horiz-adv-x="500" 
d="M63 0v800h375v-800h-375zM125 63h250v675h-250v-675z" />
    <glyph glyph-name=".notdef" horiz-adv-x="500" 
d="M63 0v800h375v-800h-375zM125 63h250v675h-250v-675z" />
    <glyph glyph-name="space" unicode=" " horiz-adv-x="205" 
 />
    <glyph glyph-name="exclam" unicode="!" horiz-adv-x="275" 
d="M197 64q0 -26 -15 -45t-38 -19t-38.5 19t-15.5 45t15.5 44.5t38.5 18.5t38 -18.5t15 -44.5zM194 521q-40 -162 -42 -340h-17q-1 88 -11.5 173t-30.5 167q-15 60 -15 88q0 35 16.5 59.5t48.5 24.5q66 0 66 -84q0 -28 -15 -88z" />
    <glyph glyph-name="quotedbl" unicode="&#x22;" horiz-adv-x="302" 
d="M203 429q-3 28 -10.5 68t-16.5 79q-5 22 -5 40q0 47 34 47q30 0 30 -48q0 -16 -12 -71q-5 -22 -10 -52.5t-9 -62.5h-1zM80 429q-4 29 -11.5 68t-15.5 79q-5 22 -5 40q0 47 33 47q32 0 32 -48q0 -8 -3 -25.5t-10 -45.5q-6 -22 -10.5 -51.5t-8.5 -63.5h-1z" />
    <glyph glyph-name="numbersign" unicode="#" horiz-adv-x="444" 
d="M297 430h-146l-21 -189h145zM296 211q-6 -51 -11.5 -105t-11.5 -106h-27l24 211h-144q-6 -51 -12.5 -105t-12.5 -106h-27l26 211h-62q1 9 2 15.5t2 14.5h62l21 189h-62q1 8 2.5 14.5t2.5 13.5h62q6 50 11.5 101t11.5 101h28l-26 -202h146q5 50 11.5 101t11.5 101h27
l-24 -202h62q-1 -8 -2.5 -14.5t-2.5 -13.5h-61l-22 -189h62q-1 -8 -2.5 -14.5t-2.5 -15.5h-62z" />
    <glyph glyph-name="dollar" unicode="$" horiz-adv-x="396" 
d="M178 561q-7 2 -11.5 2.5t-7.5 0.5q-69 0 -69 -51q0 -40 88 -68v116zM195 158h17q34 0 61 26q30 28 30 55q0 67 -108 109v-190zM358 281q0 -72 -44 -110q-45 -37 -119 -43v-101h-17v102q-11 0 -16.5 0.5t-10.5 2.5q-23 2 -45 11t-46 24q-53 35 -53 73q0 23 11.5 37
t31.5 14q23 0 36 -25q6 -14 12 -27.5t12 -28.5q16 -33 68 -50v194q-69 22 -93 43h1q-38 30 -38 83q0 26 10 46.5t27 36.5q17 14 41.5 23.5t51.5 13.5v67h17v-66q20 -2 39.5 -8.5t38.5 -16.5q41 -21 41 -40q0 -20 -12 -32.5t-29 -12.5q-11 0 -24.5 12.5t-28.5 26.5l-25 25
v-114q80 -23 112 -50q51 -39 51 -110z" />
    <glyph glyph-name="percent" unicode="%" horiz-adv-x="661" 
d="M524 713q-97 -193 -192.5 -380.5t-192.5 -380.5h-24q98 193 193.5 380.5t193.5 380.5h22zM115 630q-68 0 -68 -93q0 -64 33 -124q40 -70 103 -70q64 0 64 94q0 59 -35 121q-20 35 -44.5 53.5t-52.5 18.5zM453 327q-68 0 -68 -93q0 -64 33 -125q40 -70 103 -70q64 0 64 95
q0 57 -35 121q-20 34 -44.5 53t-52.5 19zM480 -13q-59 0 -97 69q-34 56 -34 125q0 32 10.5 64.5t28.5 62.5q22 32 48 49.5t54 17.5q49 0 88 -48q40 -47 40 -100q2 -11 4 -20.5t2 -20.5q0 -37 -10 -70.5t-29 -62.5q-21 -34 -48 -50t-57 -16zM142 290q-58 0 -97 69
q-33 58 -33 126q0 32 10 64.5t28 61.5q22 32 48 50t54 18q49 0 88 -49q41 -47 41 -100q2 -10 3.5 -19.5t1.5 -20.5q0 -38 -10 -71t-29 -63q-21 -33 -48 -49.5t-57 -16.5z" />
    <glyph glyph-name="ampersand" unicode="&#x26;" horiz-adv-x="659" 
d="M246 639q-46 0 -69 -28q-19 -23 -20 -47q0 -54 80 -137q20 23 53 71q32 46 32 67q0 8 -5 19t-13 24q-11 14 -25 22.5t-33 8.5zM182 342q-85 -98 -85 -152q0 -32 16.5 -61t45.5 -49q50 -32 110 -32q92 0 127 32zM447 1l-38 41q-40 -19 -66 -29t-40 -14q-48 -13 -114 -13
q-82 0 -133 46q-43 42 -43 108q0 86 73 152q2 5 40 36q15 14 27.5 24.5t18.5 17.5q-23 32 -36.5 50.5t-16.5 22.5h1q-10 17 -16.5 29.5t-8.5 23.5q-3 10 -3 42q0 53 43 89q47 38 96 38q48 0 79 -28t31 -79q0 -23 -35 -82q-5 -12 -10.5 -17.5t-17.5 -20.5q-5 -6 -11 -14.5
t-14 -16.5q64 -88 115.5 -153.5t91.5 -109.5q38 24 66 76q27 51 27 78q0 14 -1 25t-4 18q-8 20 -37 27h1q-8 1 -11 5q-15 12 -23.5 27t-8.5 30q0 20 14 33.5t31 13.5q68 0 68 -135q0 -69 -39 -145q-17 -30 -32 -50t-32 -31q21 -23 42 -43.5t38 -37.5q5 -5 12.5 -12t17.5 -16
l6 -6h-148z" />
    <glyph glyph-name="quotesingle" unicode="'" horiz-adv-x="181" 
d="M81 429q-4 29 -11.5 68t-15.5 79q-5 22 -5 40q0 47 33 47q31 0 31 -48q0 -8 -3 -25.5t-10 -45.5q-5 -22 -9.5 -51.5t-8.5 -63.5h-1z" />
    <glyph glyph-name="parenleft" unicode="(" horiz-adv-x="332" 
d="M38 281q0 135 60.5 242.5t178.5 186.5v-44q-42 -42 -73 -86.5t-48 -87.5q-35 -91 -35 -211t35 -210q19 -41 51 -88.5t70 -85.5v-46q-118 80 -178.5 187t-60.5 243z" />
    <glyph glyph-name="parenright" unicode=")" horiz-adv-x="320" 
d="M19 -103q42 41 72.5 85t48.5 89q35 90 35 210t-35 211q-36 89 -121 174v44q118 -79 178.5 -186t60.5 -243t-60.5 -243t-178.5 -187v46z" />
    <glyph glyph-name="asterisk" unicode="*" horiz-adv-x="449" 
d="M239 524q0 34 -13 72q-5 18 -8.5 31t-3.5 18q0 15 8 26.5t22 11.5q12 0 20.5 -11.5t8.5 -26.5q0 -6 -3.5 -17t-8.5 -24q-8 -16 -11 -41t-3 -57q17 5 35 12t37 15h-3q5 1 13.5 7.5t25.5 20.5q17 16 33 16q11 0 20.5 -9.5t9.5 -23.5q0 -38 -41 -38h-9t-10 1q-5 0 -10.5 0.5
t-8.5 0.5q-26 0 -86 -17q8 -8 7.5 -8.5t1.5 -3.5q6 -9 15 -20t8 -11q7 -5 14.5 -9.5t15.5 -9.5q6 -4 11.5 -8t11.5 -8q10 -8 17 -19.5t7 -22.5q0 -34 -28 -34q-10 0 -19.5 10.5t-16.5 28.5l-24 66q-2 3 -6 8.5t-7 10.5q-2 3 -8 11t-9 13q-21 -28 -35 -54.5t-20 -52.5
q-8 -41 -36 -41t-28 34q0 23 29 44q49 37 60 48q1 1 5 6.5t14 21.5q-50 14 -88 14h-7t-9 1h-19q-41 0 -41 37q0 14 9 24t21 10t44 -27q28 -23 96 -44v18z" />
    <glyph glyph-name="plus" unicode="+" horiz-adv-x="458" 
d="M223 307h-173v40h173v163h40v-163h174v-40h-174v-163h-40v163z" />
    <glyph glyph-name="comma" unicode="," horiz-adv-x="262" 
d="M68 -132q6 7 9.5 11t8.5 9q8 9 14 15.5t7 7.5q23 32 23 57q0 11 -24 22h1q-11 5 -18.5 8.5t-12.5 7.5q-14 14 -14 43q0 26 14.5 44t37.5 18q30 0 49.5 -22t19.5 -54q0 -57 -31 -103q-20 -30 -71 -75z" />
    <glyph glyph-name="hyphen" unicode="-" horiz-adv-x="250" 
d="M16 204v53h168v-53h-168z" />
    <glyph glyph-name="hyphen" unicode="&#x2010;" horiz-adv-x="250" 
d="M16 204v53h168v-53h-168z" />
    <glyph glyph-name="period" unicode="." horiz-adv-x="261" 
d="M130 110q21 0 37 -16.5t16 -41.5q0 -26 -15.5 -42.5t-38.5 -16.5t-38.5 16.5t-15.5 42.5t16 42t39 16z" />
    <glyph glyph-name="slash" unicode="/" horiz-adv-x="300" 
d="M5 -135q63 211 123.5 416.5t123.5 415.5h40q-63 -210 -124 -415.5t-124 -416.5h-39z" />
    <glyph glyph-name="zero" unicode="0" 
d="M468 247q0 51 -17 109t-48 114q-36 64 -81.5 99t-96.5 35q-69 0 -100 -60q-25 -47 -25 -115q0 -121 62 -230q72 -129 188 -129q67 0 96 63q11 23 16.5 52t5.5 62zM531 282q0 -103 -84 -199q-85 -97 -172 -97q-52 0 -96 30t-79 92q-62 106 -62 226q0 57 18.5 114.5
t52.5 109.5q39 58 85.5 89.5t97.5 31.5q42 0 84 -23.5t79 -62.5q34 -42 52.5 -87t18.5 -90q5 -28 5 -134z" />
    <glyph glyph-name="one" unicode="1" horiz-adv-x="357" 
d="M101 0q20 17 30.5 40.5t13.5 52.5l-1 360q0 35 -13 69t-36 63l22.5 10.5t15.5 7.5t13.5 6t6.5 3h-1q15 8 34 21.5t42 31.5v-573q0 -23 12 -47t32 -45h-171z" />
    <glyph glyph-name="two" unicode="2" 
d="M54 -13l-13 4q2 1 3 2t3 2l-1 -1q2 2 4 2.5t4 2.5v-12zM511 83q-20 -62 -58 -81q-29 -15 -88 -15q-26 0 -57.5 7t-63.5 19q-33 13 -56.5 20t-35.5 7q-22 0 -47 -13t-51 -28v33q2 17 13 37q52 102 138 169h-1l45 33q7 7 9.5 8t5.5 3q41 32 68 64q8 10 15.5 24t13 29
t8.5 30t3 27q0 34 -12 63.5t-34 55.5q-47 50 -116 50q-37 0 -71 -19q-40 -26 -40 -58q0 -28 46 -62q39 -30 39 -60q0 -14 -5 -26.5t-16 -20.5q-24 -19 -41 -19q-37 0 -57 42q-16 29 -16 66q0 94 74 151q69 54 152 54q38 0 73.5 -11.5t67.5 -32.5q35 -25 54 -59t19 -76
q0 -66 -53 -123h1q-19 -19 -51.5 -43.5t-73.5 -51.5q-48 -30 -79.5 -52.5t-45.5 -36.5l-49 -45q-19 -20 -29 -41t-14 -45q19 14 38 24.5t36 16.5t33.5 10t27.5 4q8 1 15 1.5t15 0.5q59 0 143 -22q35 0 64 7.5t52 21.5q-2 -18 -8 -37z" />
    <glyph glyph-name="three" unicode="3" 
d="M522 200q0 -70 -58 -130q-60 -61 -140 -72q-14 -2 -29 -3t-29 -1q-72 0 -140 44q-79 53 -79 137q0 42 19 67q20 32 56 32q23 0 40 -14t17 -40q0 -36 -37 -60q-44 -28 -44 -48q0 -42 54 -72q42 -20 80 -20q83 0 134 55q48 51 48 122q0 57 -38 106q-45 57 -125 66q0 2 -1 3
q127 38 127 125q0 29 -12 52t-36 44q-44 33 -94 33q-41 0 -75 -20v1q-49 -25 -49 -60q0 -41 57 -56q38 -11 38 -55q0 -45 -43 -45q-19 0 -34 10t-27 27q-8 14 -13.5 32.5t-6.5 36.5q-1 41 15.5 75t45.5 60q29 22 63.5 34.5t71.5 12.5q63 0 122 -39q70 -45 70 -118
q0 -79 -98 -140q53 0 100 -53q50 -56 50 -129z" />
    <glyph glyph-name="four" unicode="4" 
d="M369 237v369q-239 -341 -239 -366q15 -5 19 -2zM519 173q-15 0 -26 -0.5t-25 -0.5q-7 35 -11 44.5t-5.5 -2t-2 -40t-0.5 -68.5q0 -33 11 -58.5t40 -45.5h-179q16 11 29 33q19 32 19 53l-1 82q-76 0 -156.5 0.5t-158.5 0.5l269 423q-11 11 -16 28q20 5 54.5 19.5
t91.5 42.5v-443h67v-68z" />
    <glyph glyph-name="five" unicode="5" 
d="M520 233q0 -82 -55 -149q-56 -68 -132 -88q-23 -5 -38.5 -8.5t-21.5 -3.5q-74 0 -146 43q-78 49 -78 123q0 33 17 62q17 36 42 36q21 0 37 -20t16 -43t-23 -45q-25 -30 -25 -43q0 -34 48 -62q38 -22 77 -22q36 0 73 23q48 30 73 76t25 105q0 75 -38 127q-43 58 -120 58
q-60 0 -163 -59q16 88 31 169t31 170q12 -3 24 -5.5t34 -7.5l12 -3q26 -5 50 -8.5t47 -3.5q11 0 29.5 3.5t46.5 8.5q45 9 66 15v-4q0 -55 -67 -97q-60 -39 -118 -39q-47 0 -124 20q-9 -37 -30 -163q36 24 63 34q60 24 110 24q94 0 161 -64q66 -63 66 -159z" />
    <glyph glyph-name="six" unicode="6" 
d="M327 753q-2 -1 -4.5 -1t-4.5 -1q4 2 7 4.5t8 4.5l5 -7h-11zM462 212q0 80 -57 140q-27 29 -61.5 44.5t-75.5 15.5q-30 0 -77 -31q-54 -35 -54 -58q0 -98 52 -176h-1q57 -88 158 -88q17 0 36 11.5t38 31.5q39 48 40 77q1 10 1.5 16.5t0.5 10.5v6zM515 275
q0 -35 -11.5 -72.5t-32.5 -77.5q-22 -40 -48 -67t-55 -42q-63 -30 -97 -30q-23 0 -47 7.5t-44 20.5q-29 20 -54.5 52.5t-42.5 74.5v-1q-29 72 -29 160q0 69 19 138.5t52 135.5q38 69 88 114.5t105 62.5q-76 -56 -123 -152q-26 -52 -40.5 -103.5t-17.5 -104.5q23 -5 32 12
l-3 -1q42 25 84.5 49t84.5 50q180 -50 180 -226z" />
    <glyph glyph-name="seven" unicode="7" 
d="M530 693q-4 -3 -6.5 -5.5t-5.5 -4.5q-2 4 -2 8q0 1 -0.5 2t-0.5 3zM537 683q0 -72 -18 -4v4h18zM490 664q9 5 28 19q0 -2 1 -4q-1 -34 -15 -74t-38 -82l-100 -161q-55 -103 -55 -205q0 -13 2 -31.5t6 -43.5q9 -48 9 -72q0 -38 -17 -63q-21 -31 -48 -31q-29 0 -50 46
q-19 40 -19 75q0 52 15.5 109.5t43.5 114.5q20 41 52.5 91t74.5 106v-1q16 20 38.5 51t51.5 74l8 26q-74 -48 -123 -48q-12 0 -31 2.5t-45 8.5q-26 5 -45.5 8t-33.5 3q-23 0 -44 -6.5t-37 -19t-25.5 -30t-9.5 -38.5q0 -33 21 -57t55 -24q31 0 46 30v3t-1 4q-1 3 -2.5 9
t-1.5 7q-2 6 -3 11.5t-1 10.5q0 14 10 24.5t23 10.5q18 0 28 -16.5t10 -37.5q0 -36 -33 -61q-32 -28 -65 -28q-54 0 -87 43q-32 38 -32 98q0 37 12.5 68t35 53.5t53 35t66.5 13.5l224 -37q17 4 28.5 8t19.5 8z" />
    <glyph glyph-name="eight" unicode="8" 
d="M404 533q0 53 -36.5 84.5t-93.5 31.5q-49 0 -83 -25q-19 -14 -29.5 -32.5t-10.5 -41.5q0 -45 63 -90q56 -37 108 -37q20 0 35 10t27 30q20 36 20 70zM491 151q0 67 -82 109q-17 6 -34.5 13t-34.5 14t-33.5 13t-33.5 14h1q-51 24 -60 24q-37 0 -71 -43q-34 -45 -34 -74
q0 -43 46 -86q20 -21 97 -51q72 -28 106 -28q40 0 84 27q49 31 49 68zM529 207q0 -100 -74 -159q-71 -57 -169 -57q-44 0 -83 11t-77 33q-85 53 -85 134q0 55 33 99q12 14 27.5 29.5t35.5 29.5q39 28 39 34q0 2 -8.5 11t-18.5 17q-13 13 -24 25.5t-18 22.5h1q-22 35 -22 68
q0 81 69 128q61 42 144 42q71 0 123 -34q57 -36 57 -106q0 -63 -117 -132q167 -66 167 -196z" />
    <glyph glyph-name="nine" unicode="9" 
d="M180 -73l14 2t15 3q-6 -3 -12 -6.5t-12 -6.5zM245 607q-60 0 -106 -46t-46 -103q0 -72 51 -137q27 -32 60 -48.5t73 -16.5q30 0 81 14q28 8 48.5 16.5t27.5 16.5h-1q7 8 7 20q0 7 -11 68l-3 19q-6 34 -21.5 68.5t-35.5 61.5q-50 67 -124 67zM308 -27q-51 -30 -99 -41
q94 55 156 143q2 3 15.5 28t30.5 61q14 26 22 51.5t8 44.5q0 4 -0.5 8.5t-2.5 13.5q-180 -108 -202 -108q-76 0 -134 63q-56 62 -56 145q0 49 21.5 100t59.5 99q42 48 88.5 74t92.5 26q32 0 71 -17q145 -70 145 -305q0 -178 -109 -299q-45 -54 -107 -87z" />
    <glyph glyph-name="colon" unicode=":" horiz-adv-x="249" 
d="M130 430q21 0 37 -17.5t16 -41.5q0 -25 -15.5 -41.5t-38.5 -16.5t-38.5 16.5t-15.5 41.5q0 26 16 42.5t39 16.5zM130 110q21 0 37 -16.5t16 -41.5q0 -26 -15.5 -42.5t-38.5 -16.5t-38.5 16.5t-15.5 42.5t16 42t39 16z" />
    <glyph glyph-name="semicolon" unicode=";" horiz-adv-x="249" 
d="M124 430q23 0 38 -17.5t15 -41.5q0 -25 -15.5 -41.5t-38.5 -16.5t-38.5 16.5t-15.5 41.5q0 26 16 42.5t39 16.5zM75 -132q3 4 4 5.5t3 3.5q14 14 22 22.5t10 11.5q22 33 22 57q0 13 -22 22q-11 5 -18.5 8.5t-11.5 7.5q-15 13 -15 43q0 26 14.5 44t37.5 18q29 0 47 -20.5
t18 -52.5q0 -58 -30 -104q-11 -17 -29 -37t-39 -40z" />
    <glyph glyph-name="less" unicode="&#x3c;" horiz-adv-x="482" 
d="M451 615l-1 -52l-334 -222l334 -216l1 -61l-415 278v7z" />
    <glyph glyph-name="equal" unicode="=" horiz-adv-x="457" 
d="M60 354v40h367v-40h-367zM60 240v40h367v-40h-367z" />
    <glyph glyph-name="greater" unicode="&#x3e;" horiz-adv-x="462" 
d="M38 615v-52l335 -222l-335 -216v-61l414 278v7z" />
    <glyph glyph-name="question" unicode="?" horiz-adv-x="479" 
d="M211 190q-1 0 -1 -0.5t-1 -0.5zM204 188q2 1 5 1l-5 -2v1zM204 127q23 0 37.5 -18.5t14.5 -44.5t-14.5 -45t-37.5 -19q-24 0 -39 19t-15 45t15 44.5t39 18.5zM282 297q-64 -51 -78 -109q-5 -1 -8.5 -1h-5.5q3 55 36 98v-1q17 21 34 41.5t34 40.5q38 53 38 102
q0 56 -37 105q-41 47 -102 47q-19 0 -37 -5.5t-32.5 -15.5t-23 -24.5t-8.5 -31.5q0 -26 29 -58q25 -26 25 -43q0 -23 -19 -39q-19 -19 -38 -19q-27 0 -44.5 25t-17.5 56q0 82 64 142q34 30 69.5 46t73.5 16q34 0 69 -13t67 -33q68 -49 68 -120q0 -35 -13.5 -65t-36.5 -56z
" />
    <glyph glyph-name="at" unicode="@" horiz-adv-x="705" 
d="M359 468q-56 0 -93 -90q-17 -38 -24.5 -71.5t-7.5 -60.5q0 -77 54 -77q55 0 92 94q31 78 31 134q0 71 -52 71zM637 164q-18 -42 -45 -73.5t-65 -57.5q-40 -26 -81 -38.5t-86 -12.5q-138 0 -229 102q-89 98 -89 242q0 70 22.5 133.5t63.5 113.5q45 51 103.5 79t126.5 28
q116 0 203 -81q85 -79 85 -199q0 -78 -38 -145q-40 -70 -105 -103q-35 -18 -62 -18q-63 0 -56 77l-14 2q-50 -74 -96 -74q-48 0 -81 42q-27 37 -27 94q0 79 52 149q57 75 128 75q48 0 73 -92q2 6 5 17t6 23t6.5 23.5t5.5 19.5h65l-68 -267q-4 -17 -4 -30q0 -26 33 -26
q22 0 48 18q48 36 72 92q27 61 27 118q0 99 -75 173q-71 72 -178 72q-132 0 -210 -92q-38 -44 -57.5 -98t-19.5 -119q0 -130 78 -218q79 -91 213 -91q75 0 132.5 35.5t99.5 106.5h38z" />
    <glyph glyph-name="A" unicode="A" horiz-adv-x="645" 
d="M98 562q-1 -4 -0.5 -7t0.5 -6l-14 3l9 6q3 3 5 4zM351 403l-4 20q-5 20 -8.5 40t-8.5 41q-8 33 -18 55t-24 32q-12 9 -36 9q-2 0 -6 -0.5t-9 -0.5q-4 0 -12.5 -0.5t-13.5 -0.5l-38 -196zM364 -1q29 26 38.5 52.5t7.5 61.5q-4 61 -53 252l-190 -1q-3 -14 -6.5 -29.5
t-5.5 -30.5q-3 -14 -5.5 -28.5t-4.5 -27.5q-13 -69 -15 -118q-3 -57 11 -79q4 -5 18 -20.5t29 -30.5h-174q31 27 47 54q9 14 16.5 35t13.5 45q32 135 58 250.5t46 209.5h-18q-26 0 -44 -9.5t-35 -22.5q3 47 44 82q46 40 97 40q64 0 104.5 -34.5t57.5 -97.5q16 -71 42 -180.5
t61 -254.5q2 -9 8 -22t17 -28q12 -20 26.5 -36.5t33.5 -29.5z" />
    <glyph glyph-name="B" unicode="B" horiz-adv-x="576" 
d="M223 -7q-2 2 -3.5 3t-3.5 3h7l7 1zM358 522q0 29 -19 61q-23 41 -65 51h1q-12 4 -27 6t-32 4q-29 1 -41 -4h1q-7 -4 -15.5 -9t-14.5 -9l1 -213q39 1 72.5 6.5t59.5 15.5q38 16 58.5 39.5t20.5 51.5zM67 513q0 29 -17 61q-14 30 -36 42q17 8 42.5 18.5t50.5 18.5
q29 9 56 14.5t44 5.5q101 0 165 -34q85 -40 85 -130q0 -43 -45 -80q-20 -16 -43.5 -24t-51.5 -16q5 -3 13.5 -6.5t16.5 -6.5q38 -17 71.5 -46t58.5 -61v1q53 -64 53 -152q0 -57 -35.5 -112t-93.5 -103q-60 -45 -121 -68.5t-119 -23.5h-16q51 11 98.5 34t85.5 57
q48 45 73 94.5t25 106.5q0 56 -22 109t-60 93.5t-89 63.5t-109 17l-1 -263q2 -57 35 -96q8 -6 17 -13t18 -15h-199q22 15 34 51v-1q16 33 16 71v393z" />
    <glyph glyph-name="C" unicode="C" horiz-adv-x="464" 
d="M475 72q-11 -5 -21 -8q2 4 4.5 7t4.5 7zM381 52q35 0 73 12q-27 -39 -66 -58t-87 -19q-64 0 -107 22q-85 42 -133 139q-21 42 -32.5 90t-11.5 102q0 134 58 227q68 110 187 110q5 0 12.5 -1t19.5 -3q24 -3 35 -3q20 0 34 6h-1q5 2 8.5 3t8.5 3q6 -32 17 -65t25 -67
q-2 0 -2 0.5t-1 0.5t-1 1q-1 1 -2 2.5t-5 6.5l-7 7h1q-10 11 -16.5 18t-17.5 14h1q-10 8 -22.5 16t-29.5 17q-36 17 -59 17q-83 0 -128 -71q-20 -31 -29.5 -66t-9.5 -77q0 -141 69 -253q42 -66 95.5 -98.5t123.5 -32.5z" />
    <glyph glyph-name="D" unicode="D" horiz-adv-x="603" 
d="M549 307q0 -116 -61 -195q-35 -47 -90 -79t-96 -32q-68 0 -134 -0.5t-134 -0.5q16 8 28 20t20 32q2 11 4.5 21t5.5 21v316q-2 8 -3 14.5t-3 14.5q-6 14 -20 25t-33 19q8 2 12 4.5t15 7.5q6 2 10 4.5t8 4.5l15 6l8 4q13 6 31 17.5t41 28.5v-466q-1 -3 -1 -10
q0 -11 6.5 -22t18 -20t27.5 -14.5t35 -5.5q52 0 70 7q79 31 115 100q29 57 29 126q0 133 -76 238q-41 56 -95 86t-121 30q-97 0 -164 -41q22 50 84 79q29 14 60.5 21t61.5 7q140 0 235 -113q91 -104 91 -255z" />
    <glyph glyph-name="E" unicode="E" horiz-adv-x="553" 
d="M542 144q-6 -4 -9 -5q2 2 2.5 5t2.5 5l6 -6zM453 92q20 11 40 22.5t40 24.5q-18 -40 -37.5 -79.5t-37.5 -78.5q-45 14 -76 17.5t-50 0.5h-312q6 7 8.5 11t7.5 11l9 12q9 15 14.5 27.5t5.5 23.5v487q0 23 -13 48.5t-33 48.5h332q40 0 81 14q4 -18 14 -54.5t26 -85.5
q-26 19 -49.5 34.5t-37.5 23.5h1q-33 20 -65 29t-62 9q-64 0 -81 -7q-16 -7 -26 -21.5t-10 -34.5l-1 -174h33t44 -1h67q99 0 168 44v-106q-4 2 -5 3t-9 6q-54 28 -111 28h-185v-293q0 -17 14 -29.5t38 -17.5q10 -2 28.5 -3t44.5 -1q35 0 71.5 10t75.5 29q10 5 19 11t19 11z
" />
    <glyph glyph-name="F" unicode="F" horiz-adv-x="459" 
d="M21 -1l-7 -7l-6 7h13zM209 1q-50 -1 -94 -1.5t-94 -0.5q5 5 7 7.5t4 4.5h-1q4 4 7.5 8.5t7.5 8.5q18 27 18 62l-1 475q0 59 -43 103h291q20 0 40 3t41 11q4 -18 14 -54t26 -85q-29 22 -50.5 36.5t-34.5 21.5q-32 19 -65 29t-62 10q-77 0 -77 -62v-179h56q12 1 24 1h23
q100 0 167 44v-108q-4 2 -5 3t-9 6q-53 28 -111 28h-144q1 -28 1 -102.5v-180.5q0 -22 15 -44t49 -45z" />
    <glyph glyph-name="G" unicode="G" horiz-adv-x="625" 
d="M582 361q-27 -31 -30 -68q-3 -57 -3 -223q0 -16 11 -38q4 -7 6 -14.5t2 -12.5h-3q-9 0 -27 5q-8 2 -17 4t-15 2q-5 0 -11.5 -1.5t-20.5 -3.5q-9 -2 -21 -3q-51 -8 -82.5 -12.5t-43.5 -4.5q-66 0 -123.5 26.5t-102.5 74.5q-38 48 -61.5 111t-23.5 130q0 136 76 234
q81 109 207 109q10 0 26 -2t39 -6q41 -7 69 -7q14 0 29.5 4t26.5 10q5 -19 18.5 -51t35.5 -77l-100 60q-79 43 -133 43q-103 0 -159 -83q-47 -71 -47 -174q0 -138 67 -244q79 -124 214 -124q20 0 44 9q35 13 35 32q0 88 -3 137.5t-11 61.5q-5 7 -15.5 11.5t-26.5 4.5
q-23 0 -78 -15q-53 -15 -71 -15q-23 0 -39 9t-16 30q0 32 43 32q18 0 47 -7q31 -7 52 -7q59 0 93 10h-2q15 3 79 29q52 20 69 22l-3 -2v-6z" />
    <glyph glyph-name="H" unicode="H" horiz-adv-x="598" 
d="M397 2q17 16 28.5 35.5t14.5 42.5l-21 299h-249q-4 -74 -9 -151t-9 -151q-1 -3 -1 -7v-6q0 -19 9 -34.5t26 -29.5q-47 0 -86.5 1t-84.5 1q27 16 38 36q2 4 4.5 9.5t4.5 10.5h-1q0 1 0 0.5t0 0.5t1.5 4.5t6.5 12.5q9 121 17.5 247t16.5 247q-1 27 -12.5 53t-37.5 45
q7 1 16.5 1h28.5h44q16 0 29.5 -0.5t24.5 -0.5h38q-46 -33 -53 -92l-8 -160l243 1l-14 167q-2 2 -3.5 8.5t-3.5 11.5t-3 8t-3 8q-6 13 -15 26t-17 21h168q-17 -13 -29 -36t-13 -41q4 -54 10 -119.5t11.5 -133t11 -133t10.5 -120.5q1 -19 12.5 -41t33.5 -42z" />
    <glyph glyph-name="I" unicode="I" horiz-adv-x="251" 
d="M188 667q-23 -18 -33 -39t-10 -49v-495q0 -20 12 -44t28 -39h-166q20 16 29 39t9 54v470q0 32 -11 59t-27 44h169z" />
    <glyph glyph-name="J" unicode="J" horiz-adv-x="477" 
d="M417 667q-18 -21 -26 -39.5t-8 -39.5v-444q6 -68 -50 -111q-53 -41 -132 -41q-77 0 -130 35q-55 40 -55 107q0 31 15 57q21 33 52 33q9 0 18 -5t16 -13.5t11 -18.5t4 -20q0 -25 -21 -50q-24 -27 -24 -37q0 -43 52 -59q17 -5 39 -7t45 0q12 2 26 9t25 18q24 29 24 50
l2 495q-6 38 -50 82z" />
    <glyph glyph-name="K" unicode="K" horiz-adv-x="582" 
d="M498 46q46 -110 99 -166q-5 -1 -9.5 -1.5t-9.5 -0.5q-34 0 -64 17t-55 47q-20 24 -37 59t-34 82h1q-2 7 -5 14t-5 15q-10 29 -20 57.5t-21 57.5q-50 123 -83 123q-13 0 -101 -32v-230q-2 -6 -2 -9q0 -16 12.5 -36.5t37.5 -42.5h-173q22 17 34 37.5t12 43.5v505
q0 50 -45 80q48 0 89 0.5t89 0.5q-12 -11 -21.5 -18.5t-13.5 -11.5q-19 -24 -19 -54v-231q115 37 164 71q79 55 79 139q0 3 -0.5 9.5t-1.5 12.5t-1 11.5v9.5q0 33 14 58q16 28 44 28q26 0 40.5 -18.5t14.5 -47.5q0 -72 -65 -153q-67 -84 -149 -112q80 -37 129 -131
q7 -13 76 -183zM602 -125q-2 2 -2.5 3t-2.5 2q2 1 4 1t4 1l-3 -7v0z" />
    <glyph glyph-name="L" unicode="L" horiz-adv-x="479" 
d="M458 254q0 -29 -8.5 -68t-24.5 -87h1q-14 -40 -27.5 -70.5t-27.5 -54.5q-35 20 -115 25q-46 -1 -85 -1h-72q-26 0 -47.5 -0.5t-39.5 0.5q12 9 20 22t14 31q10 31 10 63v451q-6 53 -16 70q-3 6 -28 31h176q-43 -44 -43 -103l-1 -448q0 -19 1.5 -33.5t6.5 -24.5
q13 -33 60 -33q23 0 59 14q39 17 71.5 41.5t55.5 58.5q22 32 34.5 64t12.5 60q0 52 -41 91q-37 34 -87 34q-40 0 -68 -22h1q-35 -26 -35 -66q0 -16 10 -35q11 -23 32 -23h4.5t4.5 1q51 22 68 22q10 0 14.5 -11.5t4.5 -22.5q0 -22 -25 -36q-23 -14 -35 -14q-35 0 -50 12
q-43 36 -43 99q0 51 36 83q38 35 80 35q29 0 55.5 -13t47.5 -36q39 -47 39 -106z" />
    <glyph glyph-name="M" unicode="M" horiz-adv-x="640" 
d="M471 0q2 2 6 7t9 12q20 28 20 56v11t-1 10l-71 394h-16q-21 -81 -52 -194.5t-72 -262.5v1l-138 429h-16q-7 -42 -12.5 -76t-10.5 -60q-5 -30 -7.5 -49t-4.5 -27q-18 -126 -21 -213q2 -12 3.5 -25.5t3.5 -25.5l4 -26t4 -25q9 -31 25 -56t43 -47q-16 -7 -27.5 -12t-13.5 -5
q-62 0 -94 47q-27 37 -27 96q0 55 59 329q29 137 44.5 208t15.5 79q0 23 -24 57q-7 8 -13 17t-13 19h182q-36 -45 -35 -84q4 -59 98 -357l90 359q0 33 -10 50t-21 31v-1l-1 2h163q-20 -18 -30 -37.5t-8 -38.5q15 -130 36 -254.5t44 -233.5q7 -30 16 -53.5t21 -34.5
q5 -3 10.5 -7t11.5 -8z" />
    <glyph glyph-name="N" unicode="N" horiz-adv-x="574" 
d="M526 604q0 -11 -17 -64h1q-24 -64 -27 -80q-12 -56 -12 -243q0 -60 0.5 -99t1.5 -53q0 -2 0.5 -3t0.5 -3q1 -8 1.5 -19t2.5 -23q1 -4 3 -8t4 -9h-40q-14 22 -34 53t-46 72q-18 30 -46 75.5t-63.5 102t-77 123t-87.5 139.5v-64l-2 -246q0 -30 2.5 -60.5t7.5 -60.5
q4 -26 15 -60.5t31 -72.5h-116q8 26 15.5 53.5t16.5 62.5q1 8 3 40.5t4 86.5v351q0 3 -12.5 21.5t-35.5 50.5h205q-29 -51 -29 -62q0 -15 11.5 -43t36.5 -70q13 -23 34.5 -58.5t49 -80t60 -95.5t67.5 -106l-1 178q0 29 -3 69.5t-10 94.5q-5 24 -10.5 51.5t-10.5 56.5
q0 27 14 51.5t38 24.5q54 0 54 -74z" />
    <glyph glyph-name="O" unicode="O" horiz-adv-x="649" 
d="M552 271q0 51 -22 103.5t-64 108.5q-92 115 -195 115q-96 0 -152 -57q-59 -58 -59 -146q0 -48 19 -98.5t54 -99.5q36 -48 80.5 -78.5t92.5 -41.5q9 -2 23 -3t31 -1q90 0 140 55q27 29 39.5 64.5t12.5 78.5zM595 334q0 -71 -18.5 -132t-56.5 -112q-42 -56 -96 -84.5
t-118 -28.5q-118 0 -193 77q-99 100 -99 254q0 76 20 141.5t61 118.5q45 57 103.5 88.5t127.5 31.5q41 0 61 -6t40 -16.5t41 -27.5q38 -29 63 -67q64 -99 64 -237z" />
    <glyph glyph-name="P" unicode="P" horiz-adv-x="488" 
d="M468 525q0 -72 -63 -123q-5 -5 -35 -22.5t-85 -48.5q-70 -40 -70 -80q0 -29 41 -62q36 -28 36 -51q0 -29 -31 -29q-35 0 -53 38q-14 28 -14 62q0 64 39 120q4 6 15 17q17 20 31 36t31 36q43 54 43 99q0 62 -62 97q-45 24 -103 24q-13 0 -50 -15v-535q0 -23 8.5 -45.5
t23.5 -41.5h-146q31 38 31 82v417q0 17 -3 34t-10 34h1q-11 37 -39 54q23 6 51.5 14.5t76.5 22.5q87 27 139 27q74 0 133 -43q64 -44 64 -118z" />
    <glyph glyph-name="Q" unicode="Q" horiz-adv-x="642" 
d="M542 392q0 85 -54 144q-26 28 -61 43t-79 15q-66 0 -121 -25t-98 -72q-38 -47 -60 -104t-22 -120q0 -32 12.5 -65.5t35.5 -65.5q51 -69 121 -69q20 0 24 13q-33 88 -33 127q0 31 12 60q15 37 36 37q35 0 35 -52q0 -12 -4.5 -31t-12.5 -41q-8 -21 -13.5 -41.5t-5.5 -31.5
q0 -8 7 -19.5t17 -11.5q107 0 188 106q76 100 76 204zM584 334q0 -230 -158 -323h1q-5 -2 -11.5 -4.5t-16.5 -4.5q-11 -2 -21.5 -5.5t-18.5 -5.5q59 -65 188 -109q-7 -2 -14.5 -3t-16.5 -1v-8q1 0 -5.5 3.5t-17.5 2.5q-49 -4 -93.5 -13t-82.5 -23q-20 -8 -40.5 -15.5
t-40.5 -15.5q-25 -9 -46 -14.5t-33 -5.5q-9 0 -14 1q-51 12 -81 38t-51 77v-1q-4 10 -6 16.5t-4 12.5l1 -1q10 -8 19.5 -14.5t19.5 -13.5q36 -24 70 -24h24t14 1q44 8 94.5 19t94.5 19l81 -7l5 8q-13 4 -50 35q-20 17 -32 25t-17 8q-6 0 -16 -2h1q-5 -1 -7.5 -1h-4.5
q-65 0 -132 33q-59 28 -112 132q-47 96 -47 173q0 155 75 252q81 111 225 111q73 0 146 -61q69 -57 97 -132q17 -45 25.5 -84.5t8.5 -74.5z" />
    <glyph glyph-name="R" unicode="R" horiz-adv-x="573" 
d="M48 531q1 0 3 -2zM586 -164q5 -1 14 -1l-6 -7zM413 492q0 72 -63 116q-52 34 -121 34q-6 0 -12 -1q-5 -1 -11 -1.5t-12 -1.5q-2 0 -3.5 -0.5t-3.5 -0.5q-40 -4 -49 -13v-278q80 0 112 3q35 4 65 16t51.5 30.5t34 43t12.5 53.5zM541 -109q5 -10 12 -20t18 -20l15 -15
q-26 1 -48 11q-79 30 -127 143l1 -1q-14 44 -29.5 87t-30.5 87h1q-8 22 -15.5 44.5t-15.5 45.5q-11 27 -29 44t-41 21q-8 2 -21 2t-25 -1q-14 -1 -33.5 -1t-31.5 2l-3 -216q0 -20 12.5 -46t39.5 -57h-178q23 24 33.5 49.5t11.5 56.5q1 106 1 184v131q0 48 -1 74.5t-6 32.5
l6 -2q-2 42 -1 41q-5 14 -16.5 28.5t-31.5 30.5l2 3q5 2 8.5 2.5t10.5 2.5l50 12.5t64 16.5q38 8 78 12t82 4q74 0 136 -38q69 -42 69 -118q0 -82 -69 -133q-11 -8 -42.5 -23t-83.5 -39q32 -17 59 -47t48 -68q27 -49 62 -161q38 -117 59 -162z" />
    <glyph glyph-name="S" unicode="S" horiz-adv-x="566" 
d="M526 192q0 -83 -75 -146q-36 -29 -74.5 -45t-79.5 -16q-19 0 -48 4.5t-67 12.5q-37 8 -69.5 14t-49.5 7q-5 -1 -11.5 -1h-14.5q-5 0 -7 -0.5t-8 -0.5q22 30 37.5 56t23.5 50q20 -26 37.5 -44.5t31.5 -29.5q50 -43 114 -43q36 0 66 15t53 44q21 27 33 59t12 64
q0 110 -107 170q-24 8 -45.5 16t-44.5 18q-23 8 -46.5 17t-46.5 18h1q-93 40 -93 116q0 62 52 100q24 19 52 28t58 9q23 0 71 -9q49 -9 76 -9t60 15q1 -22 5.5 -46t15.5 -58q-12 6 -15 8t-14 8q-28 13 -51 27q-27 14 -53 20t-49 6q-49 0 -83.5 -26.5t-34.5 -73.5
q0 -17 8 -33t23 -33q12 -12 26.5 -23t31.5 -19q8 -3 18.5 -6.5t27.5 -8.5q11 -2 19 -4t13 -4h-1q7 -3 12 -3q48 -17 85 -35.5t61 -39.5q64 -55 64 -145z" />
    <glyph glyph-name="T" unicode="T" horiz-adv-x="477" 
d="M450 538q-4 9 -7 20q5 -4 10.5 -8t11.5 -8zM402 677q6 -23 16.5 -51t24.5 -68q-12 9 -23.5 17.5t-22.5 16.5q-56 39 -78 39q-35 0 -46 -29q-2 -5 -3 -9.5t-2 -9.5q-2 -5 -2.5 -10t-1.5 -10v-466q-2 -23 9.5 -48.5t31.5 -47.5q-42 0 -75.5 -0.5t-73.5 -0.5q35 35 33 97
q0 63 0.5 118.5t0.5 104.5q0 79 -0.5 143t-2.5 103q-2 29 -11.5 45.5t-26.5 16.5q-29 0 -85 -43q-12 -9 -24 -19.5t-25 -19.5q6 15 10.5 34t9.5 43q2 13 5 27.5t5 27.5q15 -8 30 -10t31 0h230q17 0 34 2t32 7z" />
    <glyph glyph-name="U" unicode="U" horiz-adv-x="579" 
d="M517 450q0 -98 -1 -100q0 -1 -0.5 -13.5t-2.5 -32.5q-5 -53 -23.5 -106t-46.5 -98q-35 -52 -77.5 -80t-90.5 -28q-49 0 -98 30q-47 29 -77 76q-27 48 -43 112t-16 141q0 31 3 67.5t10 78.5q12 82 12 94t-16 39q-5 9 -11.5 19t-13.5 18h185q-93 -98 -93 -308
q0 -111 35 -187q46 -103 149 -103q49 0 87.5 21t63.5 59q42 68 42 168q0 110 -66 217q-16 25 -25.5 39.5t-11.5 19.5q-18 34 -18 61q0 20 12 33.5t30 13.5q44 0 77 -100q25 -78 25 -151z" />
    <glyph glyph-name="V" unicode="V" horiz-adv-x="543" 
d="M496 605q0 -35 -18.5 -102t-49.5 -152q-15 -39 -29.5 -77t-29.5 -77l-21 -57v1q-8 -17 -15.5 -34t-14.5 -34q-2 -31 25 -54q6 -5 12.5 -10t14.5 -10h-186q46 27 46 63q0 5 -2 13q-56 183 -96.5 310.5t-63.5 197.5q-2 6 -10 19t-19 28q-9 11 -17 21t-14 17h173
q-28 -34 -28 -68q0 -7 5 -29t13.5 -54.5t20.5 -73t26 -84.5q30 -99 51 -162t32 -86q27 9 71 162q45 151 45 188q0 36 -13 92q-13 58 -13 71q0 28 12 48q14 26 39 26q28 0 43 -38q5 -14 8 -27t3 -28z" />
    <glyph glyph-name="W" unicode="W" horiz-adv-x="706" 
d="M662 624q0 -20 -5.5 -51.5t-16.5 -68.5q-7 -25 -20 -78.5t-33 -138.5q-21 -91 -33 -144t-14 -70q-1 -3 -1 -8v-8q0 -30 33 -57h-95t-53 1q3 4 7.5 8.5l9.5 9.5q15 13 15 34v8.5t-1 9.5q0 2 -0.5 2.5t-0.5 2.5q-9 45 -82 285q-104 -285 -104 -298q0 -14 15.5 -30.5
t32.5 -31.5l1 -1q-44 0 -85 1t-82 1q39 28 39 57q0 39 -30 169t-93 353q-5 13 -9.5 24.5t-6.5 14.5q-13 25 -35 50q46 0 85 -0.5t83 -0.5q-16 -17 -22.5 -38t-6.5 -50q0 -40 15 -98q5 -24 11 -48.5t11 -47.5l19 -75q12 -51 24 -92.5t25 -71.5q23 9 80 204q20 68 33.5 112
t19.5 65l131 -424q72 288 72 352q0 27 -4 54.5t-12 53.5q-8 28 -12 44t-4 19q0 15 4 28t9 23q15 23 38 23q48 0 48 -78z" />
    <glyph glyph-name="X" unicode="X" horiz-adv-x="597" 
d="M334 0q1 3 8 13q2 2 3 4q13 19 13 36q0 16 -8 36h1q-6 17 -16 42t-22 52q-15 36 -28.5 61t-25.5 37q-22 -35 -38.5 -63t-23.5 -41q-15 -29 -21.5 -52.5t-5.5 -40.5q2 -41 11 -52q4 -5 7.5 -10t7.5 -10q6 -8 10 -12h-179q12 11 30.5 31t43.5 50q17 23 40 57t51 77
q57 88 57 95q0 6 -15 35.5t-45 86.5q-29 53 -50.5 90t-37.5 60q-13 19 -21 31t-11 15h1q-9 9 -19.5 18.5t-22.5 19.5h207q-22 -18 -22 -55q0 -17 3 -27q-2 2 3.5 -9.5t11.5 -22.5q5 -9 12 -24t15 -31q32 -70 47 -85l15 24q13 22 26.5 56.5t27.5 80.5q13 38 23.5 63.5
t20.5 36.5q22 27 47 27q45 0 45 -53q0 -44 -48 -104q-12 -16 -34.5 -40t-54.5 -57q-52 -52 -52 -64q0 -2 61 -129q26 -54 45.5 -93t30.5 -58q15 -27 34 -54.5t41 -47.5h-199z" />
    <glyph glyph-name="Y" unicode="Y" horiz-adv-x="603" 
d="M207 667q9 10 13.5 8.5t4.5 -8.5h-18zM540 521q0 -48 -7 -105.5t-20 -118.5q-23 -93 -35 -128q-17 -46 -41.5 -93t-50.5 -86q-39 -60 -81 -100.5t-87 -62.5q-44 -22 -79 -22q-22 0 -40 10q-19 11 -19 36q0 52 66 52h11t14 1q5 0 9 0.5t10 0.5q7 0 13 0.5t11 0.5
q8 1 13.5 1h8.5q17 1 35 9.5t38 23.5q44 35 50 66q-106 71 -180 183h1q-35 53 -57.5 114t-33.5 120q-4 26 -11 68t-18 100q-8 32 -33 76h180q-5 -5 -10 -14.5t-12 -23.5q-12 -23 -17.5 -45t-5.5 -41q0 -123 58 -251q69 -150 191 -194q15 23 28 54.5t24 72.5q18 72 18 124
q0 98 -31 170q-7 15 -13.5 30t-13.5 32v-1q-15 36 -15 53q0 26 17.5 42.5t41.5 16.5q20 0 35.5 -18t25.5 -51q12 -44 12 -102z" />
    <glyph glyph-name="Z" unicode="Z" horiz-adv-x="582" 
d="M534 225q0 -27 -9 -61t-26 -78q-16 -38 -31.5 -67t-29.5 -50q-39 32 -92 30h-341q171 280 255 430.5t84 172.5q0 46 -53 46q-32 0 -79 -22q-35 -17 -68 -42.5t-65 -61.5q4 24 7.5 44t7.5 39t7.5 39t8.5 43q6 -5 14 -8q25 -12 47 -12q81 0 163 0.5t163 0.5
q-28 -49 -63 -110.5t-77 -131.5q-22 -34 -50.5 -80.5t-61.5 -105.5q-38 -66 -59.5 -109.5t-21.5 -53.5q0 -17 6 -28t16 -18q13 -9 49 -9q41 0 83.5 15.5t90.5 47.5q108 75 108 161q0 18 -6.5 35t-17.5 29.5t-26 20t-32 7.5t-38 -13q-11 -8 -18 -17t-7 -17q0 -15 27 -30
q21 -11 21 -24q0 -14 -9 -22t-18 -8q-17 0 -33 24q-13 17 -13 36q0 40 31 68q32 26 60 26q49 0 76 -52q20 -40 20 -84z" />
    <glyph glyph-name="bracketleft" unicode="[" horiz-adv-x="277" 
d="M147 -81h142v-28h-215v831h215v-29h-142v-774z" />
    <glyph glyph-name="backslash" unicode="\" horiz-adv-x="571" 
d="M123 737l401 -737h-40q-100 186 -200.5 369t-201.5 368h41z" />
    <glyph glyph-name="bracketright" unicode="]" horiz-adv-x="340" 
d="M185 694h-141v28h214v-831h-214v29h141v774z" />
    <glyph glyph-name="asciicircum" unicode="^" horiz-adv-x="357" 
d="M265 800q26 -21 52.5 -43t51.5 -43h-9l-114 47q-26 -11 -56.5 -23.5t-56.5 -23.5h-9q27 23 51.5 43t52.5 43h37z" />
    <glyph glyph-name="underscore" unicode="_" horiz-adv-x="467" 
d="M6 -82h488v-54h-488v54z" />
    <glyph glyph-name="grave" unicode="`" horiz-adv-x="331" 
d="M273 490q-15 4 -45 9.5t-65 11.5q-48 9 -77.5 18t-33.5 17l1 -1q-2 6 -2 9q0 13 5.5 28t12.5 18q6 2 8 2q21 0 89 -38h-1q44 -26 71 -40.5t41 -21.5zM273 490q6 -1 9 -2t4 -1l-14 -2z" />
    <glyph glyph-name="a" unicode="a" horiz-adv-x="451" 
d="M285 357q0 30 -14 41.5t-54 11.5q-71 0 -105 -62q-25 -46 -25 -109t19 -110q29 -71 108 -71q71 0 71 26v273zM285 -1v66q-93 -75 -132 -75q-34 0 -61.5 20.5t-47.5 63.5q-29 60 -29 115q0 73 23 122q67 138 214 138q9 0 18 -0.5t20 -1.5t19 -1.5t16 -0.5h18.5t15.5 2
v-393q3 -31 31 -55h-105z" />
    <glyph glyph-name="b" unicode="b" horiz-adv-x="464" 
d="M346 206q0 69 -27 119q-38 64 -121 64q-13 0 -34 -7q-24 -9 -31 -16v-253q0 -91 72 -91q52 0 94 51q23 27 35 61.5t12 71.5zM415 273q0 -45 -13.5 -89t-38.5 -87q-30 -48 -64 -72.5t-72 -24.5h-203q11 9 15.5 15.5t9.5 11.5q6 13 8 39q1 8 1 28t-1 38l1 411q0 13 -5 28
t-13 27q-8 13 -22 24q29 8 60 22.5t55 31.5v-280q6 4 19 12.5t21 12.5q19 10 26 15q20 10 41 15.5t42 5.5q32 0 59.5 -17t45.5 -44q13 -25 20.5 -56t7.5 -67z" />
    <glyph glyph-name="c" unicode="c" horiz-adv-x="381" 
d="M375 86q-5 -2 -10 -4.5t-10 -4.5q2 4 4 7.5t4 7.5zM250 58q52 0 105 19q-53 -86 -158 -86q-77 0 -129 83q-25 35 -36.5 74.5t-11.5 84.5q0 88 51 154q53 75 132 75q40 0 71 -28q29 -26 29 -70q0 -9 -4.5 -18t-11.5 -16.5t-15.5 -12t-16.5 -4.5q-22 0 -30 25
q-2 6 -2.5 12.5t-2.5 13.5t-3 12.5t-2 14.5q-7 31 -44 31q-52 0 -75 -54q-8 -20 -13.5 -43.5t-5.5 -47.5q0 -41 10 -77t31 -68q48 -74 132 -74z" />
    <glyph glyph-name="d" unicode="d" horiz-adv-x="457" 
d="M303 343q0 19 -45 45q-34 21 -59 21q-61 0 -90 -69q-11 -26 -16.5 -51.5t-5.5 -51.5q0 -35 9.5 -65t27.5 -58q44 -62 124 -62q55 0 55 36v255zM299 -1q4 25 -2 43q-7 -5 -18.5 -12.5t-18.5 -12.5q-6 -5 -12.5 -9t-12.5 -9l1 1q-23 -12 -53 -11q-79 5 -123 73
q-36 57 -36 134q0 46 20 104h-1q12 32 26.5 57.5t33.5 42.5q58 55 126 55q32 0 76 -25q-1 10 -1.5 28.5t-0.5 35.5v34.5t1 39.5q-2 10 -2 15q-1 5 -1 11q-7 20 -33 36q58 13 106 48v-560q1 -36 11.5 -66t29.5 -53h-116z" />
    <glyph glyph-name="e" unicode="e" horiz-adv-x="375" 
d="M248 358q0 40 -24 58q-3 2 -8 4t-7 4l-10 7q-29 2 -53.5 -9.5t-41.5 -34.5q-14 -20 -22.5 -42t-8.5 -43q0 -58 12 -104l46 27q10 7 17.5 12.5t18.5 13.5q10 8 23 16.5t24 16.5q34 28 34 74zM99 166q-2 -32 49 -81q49 -50 96 -45q11 1 17.5 1.5t11.5 0.5h7q8 1 17 3t15 4
q-23 -25 -55 -41.5t-60 -16.5q-42 0 -77.5 21.5t-61.5 60.5q-21 33 -32.5 71t-11.5 79q0 86 44 154q24 40 55.5 59.5t69.5 21.5q48 1 86 -26q25 -17 46 -55l-1 1l9 -18q4 -7 7 -14z" />
    <glyph glyph-name="f" unicode="f" horiz-adv-x="268" 
d="M222 599q0 -26 -13.5 -40t-33.5 -14q-17 0 -27 15.5t-10 29.5q0 11 10 31l7 14q2 4 4 6l2 2q0 27 -38 27q-55 0 -55 -52q0 -35 31 -78q27 -35 28 -92h69v-21h-67v-344q0 -32 51 -82h-148q28 31 37 81v348h-61v18h61q0 10 -2 20l-34 52q-16 23 -16 52q0 47 32 79
q35 35 74 35q41 0 70 -24.5t29 -62.5z" />
    <glyph glyph-name="g" unicode="g" horiz-adv-x="454" 
d="M296 310q0 4 0.5 11t0.5 14.5t0.5 14t0.5 9.5q0 64 -70 64q-69 0 -108 -60q-33 -51 -33 -119q0 -65 38 -124q42 -62 111 -62q59 0 59 37zM399 -38q0 -42 -20.5 -73.5t-58.5 -51.5q-32 -15 -71.5 -23.5t-84.5 -8.5q-41 0 -88 22q-54 25 -54 61q0 16 10 26t24 10
q31 0 71 -49q44 -53 85 -53q24 0 46 7t40 21h-1q45 33 45 75q0 12 -45 131q-32 -22 -49.5 -33.5t-19.5 -12.5v1q-36 -18 -64 -18q-30 0 -57 18t-50 52q-18 29 -28 64.5t-10 71.5q0 124 85 196q80 65 200 65q21 0 65 -10l-1 -200v-31.5t0.5 -43t0.5 -49v-50.5q1 -3 4.5 -15
t11.5 -32q14 -37 14 -67z" />
    <glyph glyph-name="h" unicode="h" horiz-adv-x="480" 
d="M261 0q20 18 31 40t16 51q8 48 12.5 97.5t4.5 101.5q0 108 -87 108q-7 0 -20.5 -3.5t-34.5 -8.5q-48 -12 -59 -24v-260q5 -64 49 -102h-158q37 46 37 102l-1 430q0 39 -5 57q-5 16 -14.5 30t-26.5 25q4 2 15.5 6.5t33.5 12.5l9 3q17 7 31.5 14t27.5 15v-316
q110 80 194 80q48 0 73 -37q10 -17 14.5 -39t2.5 -48q-5 -57 -9.5 -115t-9.5 -115q-1 -16 0.5 -32t7.5 -30v2q3 -9 8.5 -17.5t11.5 -15.5q3 -4 5 -6.5t3 -5.5h-162z" />
    <glyph glyph-name="i" unicode="i" horiz-adv-x="220" 
d="M147 576q0 -23 -14.5 -37.5t-35.5 -14.5q-20 0 -34 15t-14 38q0 20 15.5 35.5t33.5 15.5t33.5 -16t15.5 -36zM34 0q8 8 14 17q11 15 17 33.5t7 35.5v170q0 98 -4 113q-3 12 -28 37q-2 2 -5.5 4.5t-5.5 4.5h1q-2 2 -4.5 3.5t-4.5 3.5q21 3 39.5 8t33.5 11q18 11 46 24
v-377q0 -49 40 -88h-146z" />
    <glyph glyph-name="j" unicode="j" horiz-adv-x="221" 
d="M145 576q0 -21 -13.5 -34.5t-30.5 -13.5t-30 17t-13 37q0 17 12 33.5t27 16.5h7q13 0 29 -22q12 -17 12 -34zM142 -60q0 -44 -40 -89q-33 -36 -49 -36q-4 -1 -6.5 -1.5l-7.5 -1.5q27 38 31 65q1 5 1 19.5v37.5q-1 96 -1 166v118q0 92 2 92l-10 53q-3 11 -13 24t-24 24
q39 19 66 33t50 26q-1 -10 -0.5 -18t1.5 -28v-484z" />
    <glyph glyph-name="k" unicode="k" horiz-adv-x="460" 
d="M439 -186h1q-42 -2 -95 75q-17 26 -38 66.5t-44 95.5v-1q-14 34 -28.5 70t-28.5 69l-74 -17v-87q0 -42 43 -85h-142q29 35 29 94v460q0 28 -25 60q-8 8 -15.5 15t-13.5 15q29 7 60 21.5t64 34.5v-504q98 20 132 46h-1q43 31 43 88q0 17 -6 41q-2 12 -3.5 23t-1.5 17
q0 20 16.5 33t37.5 13q24 0 38 -18.5t14 -45.5q0 -57 -36 -99h1q-13 -13 -25.5 -25t-25.5 -24q-7 -6 -14.5 -13.5t-15.5 -14.5q22 -54 43.5 -109t41.5 -109q29 -68 55 -114t51 -69z" />
    <glyph glyph-name="l" unicode="l" horiz-adv-x="210" 
d="M18 0q35 26 38 99v428q5 0 4 3t-1 9q0 25 -8 55q-10 31 -29 46q17 8 45 22t63 34v-596q2 -39 40 -101z" />
    <glyph glyph-name="m" unicode="m" horiz-adv-x="735" 
d="M534 0q13 29 31 97q3 20 4.5 47t2.5 62q1 39 2 65.5t3 41.5q3 36 -28 64q-27 24 -59 24q-29 0 -68 -14q-18 -6 -32.5 -13.5t-17.5 -13.5l1 -259q1 -26 9.5 -52t22.5 -50q-35 0 -64.5 0.5t-63.5 0.5q31 43 31 98v204q3 89 -92 89q-32 0 -99 -35v-253q0 -41 7 -58h-1
q1 -4 26 -44h-142q8 17 17 42.5t20 56.5v248q-3 13 -6 22t-7.5 16t-11 13t-16.5 14l26 10q6 2 12 4.5t11 4.5h-1q14 6 29.5 14t32.5 20v-27q2 -16 2 -33.5v-22.5q19 14 46 26t59 23q27 8 52 14.5t36 6.5q23 0 34 -6q12 -9 38 -48q102 57 184 57q48 0 72 -40
q12 -17 15.5 -39.5t1.5 -48.5q-4 -57 -8.5 -114.5t-9.5 -114.5q-1 -3 -1 -8v-8q0 -41 30 -83h-130z" />
    <glyph glyph-name="n" unicode="n" horiz-adv-x="497" 
d="M275 -1q30 38 43.5 113t13.5 190q0 48 -13 71q-18 33 -68 33q-17 0 -119 -32v-279q0 -47 45 -95h-156q20 15 29 39t9 59v245q0 51 -45 83q35 10 65 21.5t51 25.5v-68q166 60 183 60q55 0 79 -33q18 -26 18 -91q0 -48 -9 -121q-3 -31 -6 -61t-7 -61q-3 -27 9 -59
q10 -26 26 -39z" />
    <glyph glyph-name="o" unicode="o" horiz-adv-x="509" 
d="M405 177q0 60 -59 136q-62 76 -127 76q-153 0 -153 -127q0 -74 71 -139q69 -63 149 -63q25 0 46.5 9t37.5 24.5t25.5 37t9.5 46.5zM444 236q0 -46 -16 -89.5t-46 -78.5q-69 -77 -156 -77q-38 0 -75 18t-69 51q-62 70 -62 153q0 96 57 168v-1q63 78 150 78q105 0 161 -58
t56 -164z" />
    <glyph glyph-name="p" unicode="p" horiz-adv-x="493" 
d="M17 -91q6 2 10 2q4 -10 -9 -10zM347 251q0 31 -4 51q-7 36 -42 68q-34 31 -76 31q-8 0 -25.5 -6t-45.5 -17q-9 -18 -9 -30l-1 -374q85 40 143 119q60 87 60 158zM429 280q0 -176 -193 -293h1q-8 -5 -29.5 -15t-61.5 -28v-62q0 -32 7.5 -52.5t24.5 -31.5h-144q39 35 39 73
v19.5t-1 31.5q-14 -4 -24.5 -6.5t-20.5 -4.5q6 2 18 7.5t28 13.5v371q0 68 -51 113q11 4 23 8.5t33 12.5q10 6 25 15.5t36 21.5q1 -7 1 -10.5t2 -14.5q1 -6 1.5 -13.5t1.5 -14.5q-3 -7 14 -7v8q6 1 12 1h9.5t6.5 1q5 2 11 5t14 6q25 11 47 16.5t39 5.5q46 0 80.5 -32.5
t46.5 -80.5q4 -16 4 -64z" />
    <glyph glyph-name="q" unicode="q" horiz-adv-x="456" 
d="M298 380q-38 30 -72 30q-65 0 -103 -64q-30 -51 -30 -117q0 -65 33 -116q40 -55 108 -55q43 0 64 20v302zM259 -192q39 40 39 87v170q-13 -20 -23.5 -31.5t-18.5 -16.5q-19 -11 -45 -18t-58 -8q-57 -2 -98 71q-35 61 -35 129q0 97 50 163q25 34 61.5 56.5t76.5 33.5
q16 3 92 3h71v-553q1 -22 23 -62q2 -3 7 -10t12 -15z" />
    <glyph glyph-name="r" unicode="r" horiz-adv-x="330" 
d="M133 475q0 3 1 1zM304 405q0 -22 -20 -36q-20 -13 -39 -13q-16 0 -46 15l1 -1q-15 9 -26 13t-16 4q-10 0 -20 -13l2 -258q2 -60 14 -88q3 -9 25 -28h-152q14 13 21 25.5t11 26.5q2 8 3 24t1 39v205q0 56 -47 96q4 2 14 5.5t28 11.5q17 6 35.5 17t39.5 25q0 -2 0.5 -8.5
t0.5 -15.5q0 -37 10 -53q67 58 98 58q22 0 42 -14t20 -37z" />
    <glyph glyph-name="s" unicode="s" horiz-adv-x="412" 
d="M358 140q0 -74 -50 -116q-23 -17 -53.5 -27t-66.5 -10q-19 0 -37 3q-23 2 -45 11t-46 24q-53 36 -53 73q0 23 11.5 37.5t31.5 14.5q25 0 40 -33q11 -25 19.5 -42t11.5 -22q29 -37 91 -37q34 0 61 26q30 30 30 55q0 61 -72 94q-31 12 -61 24.5t-62 24.5h1q-61 32 -61 99
q0 58 46 90q42 30 99 30q25 0 72 -21q49 -21 49 -43q0 -20 -12 -33t-29 -13q-8 0 -20 9t-30 26h1q-32 39 -65 39q-69 0 -69 -52q0 -39 76 -63q55 -18 86.5 -30t40.5 -17h-1q66 -38 66 -121z" />
    <glyph glyph-name="t" unicode="t" horiz-adv-x="315" 
d="M256 82q0 -19 -8 -34.5t-21 -27t-30 -17.5t-35 -6q-39 0 -66 34q-28 34 -28 79v318q-17 -2 -30.5 -3t-21.5 0v23q2 1 3.5 0.5t12.5 -0.5q8 0 14.5 -1t17.5 -6q2 15 2 20.5v6.5q0 35 -42 77q23 10 41.5 19.5t30.5 16.5q10 8 19 14.5t17 14.5q1 -11 0.5 -19.5t-0.5 -30.5
v-51t-1 -62h114v-23l-116 1l-1 -286q0 -30 18.5 -50t49.5 -20q27 0 41 11h-1q8 6 11.5 8.5t7.5 4.5q1 -3 1 -11z" />
    <glyph glyph-name="u" unicode="u" horiz-adv-x="463" 
d="M23 434q-5 0 -11 -0.5t-11 -0.5q0 14 5.5 13t16.5 -12zM311 -1v51q-147 -62 -181 -62q-55 0 -81 38q-10 14 -15 36t-6 46l29 257q0 36 -22 58q-4 3 -6.5 6t-5.5 5q70 8 134 45l-46 -332q-1 -50 31 -78q26 -20 69 -20q26 0 104 33v239q-2 13 -4.5 25t-4.5 24
q-5 22 -17 36.5t-26 22.5q58 19 122 47v-393q4 -18 5.5 -28t2.5 -12q5 -9 12 -19.5t21 -24.5h-115z" />
    <glyph glyph-name="v" unicode="v" horiz-adv-x="477" 
d="M417 364q0 -74 -35 -158q-37 -85 -106 -159q3 -10 8.5 -22t12.5 -24h-139q23 32 23 55q0 22 -21 85q-8 23 -14 40.5t-13 31.5q-17 35 -33 77t-30 84q-24 36 -60 48q25 17 46.5 33t46.5 34q16 -48 30 -86.5t28 -76.5q34 -93 60 -156t43 -95q22 11 40 31t32 49
q14 26 22.5 50.5t8.5 39.5q0 25 -25 85q-21 57 -21 73q0 22 12.5 38t30.5 16q26 0 41 -32q12 -24 12 -61z" />
    <glyph glyph-name="w" unicode="w" horiz-adv-x="676" 
d="M106 499q-5 -4 -9.5 -7t-8.5 -6q1 1 1 2t0.5 2t0.5 2q1 3 4 4.5t6 1.5zM626 363q0 -26 -8.5 -57.5t-23.5 -69.5v1q-11 -26 -26 -56.5t-35 -67.5q-35 -60 -35 -66t15 -28q5 -5 9 -10.5t9 -9.5q-44 0 -81 0.5t-79 0.5q18 20 26.5 36.5t5.5 26.5q-16 42 -35 93t-42 113
l-17 45q-98 -227 -98 -237q0 -38 49 -77q-42 0 -81 -0.5t-80 -0.5q29 40 29 72q0 33 -21 106.5t-64 187.5q-8 18 -42 62l17 8q6 3 14 6.5t16 8.5q8 7 17.5 16t22.5 20q0 -9 4 -12l-3 2q5 -14 9 -28.5t9 -30.5q17 -57 39 -131.5t50 -167.5q12 0 31 38.5t50 116.5q10 27 18 49
t16 41q10 26 16.5 42.5t11.5 27.5l154 -382q66 145 66 186q0 16 -4 37t-12 46q-8 23 -12.5 42.5t-4.5 29.5q0 27 12 45h-1q15 21 37 21q24 0 40 -40q12 -26 12 -55z" />
    <glyph glyph-name="x" unicode="x" horiz-adv-x="455" 
d="M431 1h-169q22 37 22 59q0 19 -30 63q-11 16 -23.5 33.5t-23.5 32.5q-29 -13 -49 -48q-19 -36 -21 -57q-2 -22 8.5 -40.5t22.5 -35.5q2 -2 2.5 -3.5t2.5 -3.5q-42 0 -78.5 -0.5t-77.5 -0.5l176 214q-2 3 -13.5 22.5t-28.5 51.5q-24 49 -51 80q-9 10 -26 23.5t-46 32.5
q29 16 50.5 29t38.5 27l135 -211q44 29 53 82q3 20 5.5 35.5t4.5 26.5q2 12 4 20q14 35 52 35q20 0 34 -15.5t14 -35.5q0 -29 -20 -53v1q-21 -26 -43 -37q-15 -14 -37.5 -36t-49.5 -50z" />
    <glyph glyph-name="y" unicode="y" horiz-adv-x="467" 
d="M394 372q0 -32 -4.5 -72.5t-12.5 -85.5q-14 -71 -39.5 -138.5t-57.5 -126.5q-44 -75 -92.5 -113t-97.5 -38q-15 0 -40 13q-26 12 -26 27q0 14 12 27.5t31 16.5q16 3 46 0q16 0 30 0.5t28 4.5t29 12.5t33 24.5q40 34 42 57q-2 2 -10 8t-23 16q-71 48 -117 120
q-14 26 -28.5 59.5t-26.5 74.5q-10 34 -19.5 69t-18.5 69q-4 0 -14 17q-2 2 -3.5 5t-3.5 6q2 2 8 2q2 0 4 0.5t3 0.5q43 9 101 50q-4 -38 -5.5 -60t-1.5 -29q0 -42 10 -86.5t29 -85.5q22 -48 59 -86.5t88 -67.5q60 82 59 305q0 39 -56 103q-50 60 -50 88q0 23 13 35.5
t33 12.5q89 0 89 -235z" />
    <glyph glyph-name="z" unicode="z" horiz-adv-x="457" 
d="M405 422q-2 2 -4 3l3 3zM340 446q43 -9 61 -21q-32 -39 -55.5 -68t-36.5 -48q-161 -244 -161 -262q0 -22 31 -28h36q43 0 99 33q6 3 25 14.5t50 31.5q-5 -19 -14 -43.5t-20 -53.5q-35 -1 -76 -1.5t-98 -0.5q-38 0 -79.5 0.5t-89.5 0.5q259 366 259 402q0 22 -22 28
q-8 2 -28 2q-23 0 -56 -13t-76 -40q-23 -14 -38 -23.5t-24 -14.5q19 26 28 53t13 57q13 0 37 -3q31 -3 34 -3q6 0 60 6q27 4 41.5 5.5t16.5 1.5q30 0 83 -12z" />
    <glyph glyph-name="braceleft" unicode="{" horiz-adv-x="237" 
d="M28 304q22 1 31 7h-1q28 10 31 45q1 10 1.5 26t0.5 39v114q0 29 1 49t3 34v-1q10 80 107 80h44v-24h-29q-26 0 -42 -13t-20 -36q-4 -19 -4 -98v-103q0 -41 -5 -63q-4 -18 -12.5 -30.5t-22.5 -21.5q-9 -8 -30 -9v-10q37 -4 56 -31q12 -18 13 -60q1 -7 1 -20v-33v-96
q0 -89 5 -117q8 -44 55 -44h35v-23h-53q-68 0 -87 39q-6 12 -10 31t-5 45v169q0 104 -24 122h1q-11 10 -40 13v20z" />
    <glyph glyph-name="bar" unicode="|" horiz-adv-x="354" 
d="M230 667h40v-836h-40v836z" />
    <glyph glyph-name="braceright" unicode="}" horiz-adv-x="307" 
d="M268 284q-12 -2 -18.5 -3t-9.5 -3h1q-28 -11 -33 -43q-3 -21 -3 -86v-112q0 -29 -0.5 -52.5t-2.5 -36.5q-5 -40 -28.5 -61.5t-70.5 -21.5h-53v23h34q41 0 53 32q5 16 7 60l1 69v96q0 59 3 80q5 35 33 53q14 10 34 11v10q-31 4 -47.5 25t-20.5 57q-1 8 -1.5 19.5
t-0.5 22.5v103q0 83 -6 106q-11 41 -60 41h-29v24h44q97 0 106 -80q3 -14 4 -35t1 -47v-114q0 -23 0.5 -39t1.5 -26q3 -35 31 -45h-1q9 -6 31 -7v-20z" />
    <glyph glyph-name="asciitilde" unicode="~" horiz-adv-x="374" 
d="M388 813l13 -9q-18 -37 -46 -64q-35 -33 -69 -33q-25 0 -75 21t-77 21q-25 0 -44 -18q-10 -9 -31 -39l-13 10q49 98 117 98q25 0 72 -20t71 -20q46 0 82 53z" />
    <glyph glyph-name="dagger" unicode="&#x2020;" horiz-adv-x="455" 
d="M257 -50h-27q-3 158 -4 171q-7 80 -35 169q38 61 39 129v36q-20 -2 -62 -17t-59 -15q-21 0 -35.5 12.5t-14.5 32.5q0 19 14 32t32 13q21 0 61 -15q44 -16 64 -19q-1 28 -18 80t-17 75q0 21 12.5 35t33.5 14t34 -14t13 -36q0 -23 -15 -75t-16 -79q23 2 65 17.5t63 15.5
q18 0 30 -12t12 -31q0 -18 -12.5 -31.5t-31.5 -13.5q-13 0 -52.5 16t-61.5 16l-12 -1v-20q0 -89 39 -145q-29 -67 -36 -170q-3 -37 -3 -170z" />
    <glyph glyph-name="degree" unicode="&#xb0;" horiz-adv-x="292" 
d="M138 663q39 0 66.5 -28.5t27.5 -67.5q0 -40 -28 -68t-68 -28t-68 28.5t-28 68.5t28.5 67.5t69.5 27.5zM135 624q-23 0 -39 -17t-16 -40t16 -39.5t40 -16.5q23 0 39.5 16.5t16.5 39.5q0 24 -16.5 40.5t-40.5 16.5z" />
    <glyph glyph-name="cent" unicode="&#xa2;" horiz-adv-x="408" 
d="M375 228q-5 -2 -10 -4.5t-10 -5.5q2 5 4 8.5t4 7.5zM187 564q-110 -9 -110 -145q0 -57 24 -111q23 -57 86 -97v353zM250 199q52 0 105 19q-52 -79 -151 -85v-92h-17v93q-75 10 -125 90q-20 35 -31 73t-11 77q0 207 167 233v60h17v-65l16 8q2 0 3.5 0.5t3.5 0.5
q41 1 84 -32t43 -73q0 -9 -4.5 -18t-12 -16.5t-16 -12.5t-16.5 -5q-28 0 -44 45h1q-17 52 -58 66v-359q12 -3 23.5 -5t22.5 -2z" />
    <glyph glyph-name="sterling" unicode="&#xa3;" horiz-adv-x="563" 
d="M189 74q-25 17 -47.5 24.5t-41.5 7.5q-61 0 -61 -43q0 -48 59 -48q24 0 48 13t45 41zM429 357v-37h-135q10 -41 10 -81q0 -76 -43 -141q26 -9 52.5 -14t54.5 -5q74 0 104 36q13 16 20 37.5t8 51.5q5 0 8.5 -0.5t7.5 -0.5v-19q1 -36 -6 -68t-20 -58q-39 -68 -111 -68
q-26 0 -64 16t-88 48q-73 -64 -129 -64q-38 0 -63 19t-25 52q0 35 27.5 56t68.5 21q36 0 112 -28q21 34 21 64q0 63 -39 146h-132v37h118q-35 81 -35 129q0 79 56 132q60 55 149 55q69 0 112 -33t43 -91q0 -31 -17 -51q-22 -25 -52 -25q-27 0 -51 18q-24 16 -24 46
q0 20 16 34.5t45 11.5q15 15 15 25q0 16 -22.5 27.5t-54.5 11.5q-62 0 -101 -32q-42 -35 -42 -81q0 -39 59 -177h147z" />
    <glyph glyph-name="section" unicode="&#xa7;" horiz-adv-x="415" 
d="M147 37q19 -29 62 -29q27 0 47.5 17t20.5 43q0 34 -56 82q-51 44 -102 87q-55 57 -55 112q0 51 29.5 79.5t78.5 25.5q-76 62 -76 123q0 49 34 77t84 28q41 0 73 -22q37 -24 37 -63q0 -19 -13 -33t-31 -14t-30 12.5t-12 30.5q0 26 33 39q-18 28 -54 28q-27 0 -48 -16.5
t-21 -42.5q0 -34 56 -81q51 -44 103 -87q56 -57 56 -115q0 -47 -25.5 -74.5t-69.5 -27.5q-9 0 -18 1q80 -57 80 -122q0 -49 -35.5 -79.5t-85.5 -30.5q-44 0 -79 20q-40 25 -40 65q0 21 12.5 36t33.5 15q17 0 30 -11.5t13 -28.5q0 -29 -32 -44zM166 432q-23 0 -39 -16
t-16 -39q0 -35 55.5 -87t91.5 -52q22 0 40.5 15.5t18.5 37.5q0 36 -57.5 88.5t-93.5 52.5z" />
    <glyph glyph-name="bullet" unicode="&#x2022;" horiz-adv-x="378" 
d="M196 478q57 0 97 -41.5t40 -97.5q0 -58 -40.5 -98.5t-98.5 -40.5q-57 0 -97.5 40.5t-40.5 98.5q0 59 40.5 99t99.5 40z" />
    <glyph glyph-name="paragraph" unicode="&#xb6;" horiz-adv-x="526" 
d="M316 624h-43v-627h-150v36q62 1 77 18q13 14 13 73v169q-83 0 -129.5 51t-46.5 135q0 87 50 137.5t138 50.5h241v-37q-59 -1 -74.5 -16.5t-15.5 -74.5v-424q0 -53 19 -68q16 -13 72 -14v-36h-151v627z" />
    <glyph glyph-name="registered" unicode="&#xae;" horiz-adv-x="414" 
d="M192 687q67 0 115 -48.5t48 -115.5q0 -68 -48.5 -116t-117.5 -48q-68 0 -116.5 48.5t-48.5 117.5t49.5 115.5t118.5 46.5zM187 668q-58 0 -99.5 -43t-41.5 -102q0 -60 42 -102.5t101 -42.5q61 0 102.5 43t41.5 103q0 61 -42.5 102.5t-103.5 41.5zM160 519v-50
q0 -17 7 -20q4 -3 23 -3v-12h-88v12q19 1 24.5 3.5t5.5 19.5v109q0 16 -5.5 19t-24.5 3v13h83q74 0 74 -44q0 -35 -54 -46q26 -14 40 -53q5 -18 11 -18q9 0 10 25h11v-8q2 -41 -30 -41q-25 0 -29 23t-7 44q-8 24 -41 24h-10zM160 531h12q28 0 37 4q17 8 17 32q0 21 -10 27.5
t-32 6.5q-16 0 -20 -5t-4 -22v-43z" />
    <glyph glyph-name="copyright" unicode="&#xa9;" horiz-adv-x="768" 
d="M375 680q141 0 242.5 -102.5t101.5 -244.5q0 -144 -102.5 -245t-247.5 -101t-247 102t-102 247q0 146 104 245t251 99zM364 640q-123 0 -211 -91.5t-88 -215.5q0 -126 89 -216t215 -90q128 0 216 90.5t88 217.5q0 129 -90 217t-219 88zM527 530v-155h-21q-20 62 -42 90
q-33 42 -87 42q-112 0 -112 -182q0 -165 120 -165q107 0 121 129h27q-7 -157 -151 -157q-82 0 -136 58t-54 141q0 77 53.5 140t129.5 63q29 0 66 -17t40 -17q17 0 25 30h21z" />
    <glyph glyph-name="trademark" unicode="&#x2122;" horiz-adv-x="654" 
d="M14 666h232l4 -105h-16q-8 45 -22 63q-18 25 -60 24v-194q0 -27 12 -32q5 -2 38 -2v-19h-142v19q33 0 38 2q12 5 12 32v194q-45 0 -62 -22q-12 -16 -20 -65h-16zM389 401h-107v18q24 2 34 12t10 36v145q0 26 -10 32q-5 3 -35 3v19h105l52 -181l57 181h101v-19
q-28 0 -33 -3q-11 -6 -11 -30v-161q0 -25 10 -30q6 -3 34 -3v-19h-130v19q28 0 33 3q11 6 11 30v189l-78 -249h-11l-74 248v-175q0 -25 9 -34.5t33 -12.5v-18z" />
    <glyph glyph-name="dieresis" unicode="&#xa8;" horiz-adv-x="283" 
d="M55 596q18 0 31 -14t13 -35q0 -20 -13.5 -33.5t-30.5 -13.5q-18 0 -30.5 13.5t-12.5 33.5q0 21 12.5 35t30.5 14zM226 596q17 0 29.5 -14t12.5 -35q0 -20 -13 -33.5t-30 -13.5q-18 0 -31 13.5t-13 33.5q0 23 13.5 36t31.5 13z" />
    <glyph glyph-name="yen" unicode="&#xa5;" horiz-adv-x="511" 
d="M440 162h-123v-72q0 -63 40 -90h-172q23 19 30 37v-1q8 19 8 57v69h-116v32h116v83h-116v33h116v45q-20 40 -53.5 97t-78.5 131q-3 5 -6.5 9.5t-5.5 8.5q-7 10 -12.5 17.5t-7.5 9.5h1q-9 9 -19.5 18.5t-22.5 19.5h208q-13 -10 -18 -23.5t-5 -31.5q0 -9 0.5 -14t1.5 -8
q5 -11 18 -37t35 -68t33.5 -64.5t16.5 -27.5q6 0 17.5 14t25.5 38q25 49 43 132q18 77 34 97q22 27 47 27q45 0 45 -53q0 -45 -51 -112q-13 -17 -39.5 -46.5t-58.5 -64.5q-25 -28 -39.5 -46.5t-14.5 -25.5v-42h123v-33h-123v-83h123v-32z" />
    <glyph glyph-name="mu" unicode="&#xb5;" horiz-adv-x="507" 
d="M11 304l65 64v197q-6 53 -16 70q-2 3 -9 11t-18 20h176q-44 -44 -44 -103v-108q17 16 38.5 37.5t40.5 39.5v-31l-79 -79l-1 -307q0 -19 1.5 -33.5t6.5 -24.5q13 -33 60 -33q23 0 60 14q38 17 70.5 41.5t55.5 58.5q22 32 35 64t13 60q0 51 -42 91q-37 34 -87 34
q-39 0 -68 -22h1q-35 -26 -35 -66q0 -16 10 -35q11 -23 32 -23h4.5t4.5 1q51 22 68 22q10 0 14.5 -11.5t4.5 -22.5q0 -22 -25 -36q-23 -14 -35 -14q-35 0 -50 12q-43 36 -43 99q0 51 36 83q38 35 80 35q30 0 56 -13t47 -36q39 -45 39 -106q0 -59 -33 -155h1
q-14 -40 -27.5 -70.5t-27.5 -54.5q-35 20 -115 25q-46 -1 -85 -1h-71q-27 0 -48.5 -0.5t-38.5 0.5q21 17 33 53q10 31 10 63v222q-13 -12 -30.5 -30t-34.5 -33v31z" />
    <glyph glyph-name="mu" unicode="&#x3bc;" horiz-adv-x="507" 
d="M11 304l65 64v197q-6 53 -16 70q-2 3 -9 11t-18 20h176q-44 -44 -44 -103v-108q17 16 38.5 37.5t40.5 39.5v-31l-79 -79l-1 -307q0 -19 1.5 -33.5t6.5 -24.5q13 -33 60 -33q23 0 60 14q38 17 70.5 41.5t55.5 58.5q22 32 35 64t13 60q0 51 -42 91q-37 34 -87 34
q-39 0 -68 -22h1q-35 -26 -35 -66q0 -16 10 -35q11 -23 32 -23h4.5t4.5 1q51 22 68 22q10 0 14.5 -11.5t4.5 -22.5q0 -22 -25 -36q-23 -14 -35 -14q-35 0 -50 12q-43 36 -43 99q0 51 36 83q38 35 80 35q30 0 56 -13t47 -36q39 -45 39 -106q0 -59 -33 -155h1
q-14 -40 -27.5 -70.5t-27.5 -54.5q-35 20 -115 25q-46 -1 -85 -1h-71q-27 0 -48.5 -0.5t-38.5 0.5q21 17 33 53q10 31 10 63v222q-13 -12 -30.5 -30t-34.5 -33v31z" />
    <glyph glyph-name="ordfeminine" unicode="&#xaa;" horiz-adv-x="582" 
d="M276 724q-26 20 -50.5 38.5t-50.5 37.5h8l113 -46q26 11 57 23t58 23h8q-29 -20 -52 -37.5t-50 -38.5h-41zM534 225q0 -27 -9 -61t-26 -78q-16 -38 -31.5 -67t-29.5 -50q-39 32 -92 30h-341q171 280 255 430.5t84 172.5q0 46 -53 46q-32 0 -79 -22q-35 -17 -68 -42.5
t-65 -61.5q4 24 7.5 44t7.5 39t7.5 39t8.5 43q6 -5 14 -8q25 -12 47 -12q81 0 163 0.5t163 0.5q-28 -49 -63 -110.5t-77 -131.5q-22 -34 -50.5 -80.5t-61.5 -105.5q-38 -66 -59.5 -109.5t-21.5 -53.5q0 -17 6 -28t16 -18q13 -9 49 -9q41 0 83.5 15.5t90.5 47.5
q108 75 108 161q0 18 -6.5 35t-17.5 29.5t-26 20t-32 7.5t-38 -13q-11 -8 -18 -17t-7 -17q0 -15 27 -30q21 -11 21 -24q0 -14 -9 -22t-18 -8q-17 0 -33 24q-13 17 -13 36q0 40 31 68q32 26 60 26q49 0 76 -52q20 -40 20 -84z" />
    <glyph glyph-name="ordmasculine" unicode="&#xba;" horiz-adv-x="457" 
d="M405 422q-2 2 -4 3l3 3zM206 502q-26 19 -50.5 37.5t-50.5 38.5h8l113 -47q26 11 57 23.5t58 23.5h8q-29 -21 -52 -38.5t-51 -37.5h-40zM340 446q43 -9 61 -21q-32 -39 -55.5 -68t-36.5 -48q-161 -244 -161 -262q0 -22 31 -28h36q43 0 99 33q6 3 25 14.5t50 31.5
q-5 -19 -14 -43.5t-20 -53.5q-35 -1 -76 -1.5t-98 -0.5q-38 0 -79.5 0.5t-89.5 0.5q259 366 259 402q0 22 -22 28q-8 2 -28 2q-23 0 -56 -13t-76 -40q-23 -14 -38 -23.5t-24 -14.5q19 26 28 53t13 57q13 0 37 -3q31 -3 34 -3q6 0 60 6q27 4 41.5 5.5t16.5 1.5q30 0 83 -12z
" />
    <glyph glyph-name="questiondown" unicode="&#xbf;" horiz-adv-x="487" 
d="M255 276h-1h1zM261 277q-4 0 -6 -1l6 3v-2zM261 339q-23 0 -37.5 19t-14.5 45t14.5 44.5t37.5 18.5q24 0 39 -18.5t15 -44.5t-15 -45t-39 -19zM183 169q32 26 51 53.5t27 54.5q10 2 14 2q-3 -53 -37 -98v1q-17 -20 -31 -38t-32 -39q-42 -59 -42 -108q0 -29 9 -55.5
t29 -49.5q40 -46 101 -46q19 0 37 5.5t32 15.5t23 24.5t9 31.5q0 26 -30 58q-13 13 -19 24t-6 19q0 22 18 39q22 19 40 19q13 0 24.5 -7t20 -18.5t13 -26.5t4.5 -30q0 -81 -64 -141q-69 -61 -143 -61q-34 0 -69 12.5t-67 32.5q-68 51 -68 121q0 34 13.5 64.5t36.5 55.5z" />
    <glyph glyph-name="exclamdown" unicode="&#xa1;" horiz-adv-x="264" 
d="M90 417q0 26 15 44.5t38 18.5t38.5 -18t15.5 -44q0 -27 -15.5 -45.5t-38.5 -18.5t-38 18.5t-15 44.5zM93 -40q40 162 42 339h16q1 -87 11.5 -171.5t31.5 -167.5q15 -62 15 -88q0 -39 -15 -58q-19 -26 -50 -26q-66 0 -66 84q0 26 15 88z" />
    <glyph glyph-name="guillemotleft" unicode="&#xab;" horiz-adv-x="445" 
d="M205 243l20 19q66 63 90 87q42 41 47 46q10 7 15 7q11 0 11 -11q0 -13 -42 -71q-52 -73 -54 -77l11 -14q49 -67 78 -115q6 -11 6 -18q0 -11 -11 -11q-9 0 -23 15q-1 1 -87 85q-35 34 -61 58zM38 243l20 19l128 125q15 15 23 15q11 0 11 -11q0 -12 -43 -73
q-29 -41 -52 -75l11 -14q49 -67 78 -115q6 -11 6 -18q0 -11 -11 -11q-9 0 -23 15q-7 8 -39 38z" />
    <glyph glyph-name="guillemotright" unicode="&#xbb;" horiz-adv-x="420" 
d="M221 243q-9 -9 -61 -58l-48 -47q-18 -17 -39 -38q-14 -15 -23 -15q-11 0 -11 11q0 8 6 18q15 24 79 115l10 14l-10 15q-57 80 -79 115q-6 10 -6 18q0 11 11 11q10 0 23 -15q6 -5 39 -38l48 -47q22 -21 61 -59zM388 243q-36 -35 -109 -105q-27 -26 -39 -38
q-13 -15 -23 -15q-11 0 -11 11q0 8 6 18q15 24 79 115l10 14l-10 15q-57 80 -79 115q-6 10 -6 18q0 11 11 11q10 0 23 -15q2 -2 87 -85z" />
    <glyph glyph-name="ellipsis" unicode="&#x2026;" horiz-adv-x="965" 
d="M167 111q26 0 44 -18.5t18 -44.5t-18 -44t-44 -18t-44.5 18.5t-18.5 43.5q0 27 18.5 45t44.5 18zM500 111q26 0 44 -18.5t18 -44.5t-18 -44t-44 -18t-44.5 18.5t-18.5 43.5q0 27 18.5 45t44.5 18zM833 111q26 0 44 -18.5t18 -44.5t-18 -44t-44 -18t-44.5 18.5t-18.5 43.5
q0 27 18.5 45t44.5 18z" />
    <glyph glyph-name="endash" unicode="&#x2013;" horiz-adv-x="606" 
d="M0 267h556v-61h-556v61z" />
    <glyph glyph-name="emdash" unicode="&#x2014;" horiz-adv-x="1050" 
d="M0 267h1000v-61h-1000v61z" />
    <glyph glyph-name="quotedblleft" unicode="&#x201c;" horiz-adv-x="310" 
d="M18 600q0 -30 17 -79q22 -58 50 -69q5 0 10 1.5t6 1.5q2 5 -13 25q-20 27 -21 31q-3 10 -7 28q12 3 34 9q22 22 22 52q0 19 -12 40q-16 24 -38 24q-24 0 -36 -20t-12 -44zM154 599q0 -30 17 -78q22 -59 50 -70q5 0 10 1.5t6 1.5q2 6 -13 26q-20 27 -22 30q-2 10 -7 29
q13 3 35 9q22 21 22 51q0 20 -12 40q-16 25 -38 25q-24 0 -37 -22q-11 -18 -11 -43z" />
    <glyph glyph-name="quotedblright" unicode="&#x201d;" horiz-adv-x="310" 
d="M280 600q0 -30 -17 -78q-22 -58 -50 -70q-5 0 -10 1.5t-6 1.5q-2 6 13 26q20 27 22 30q2 10 7 29q-13 3 -35 9q-22 21 -22 51q0 20 13 40q15 25 38 25t36 -22q11 -18 11 -43zM145 599q0 -30 -18 -78q-21 -59 -49 -70q-5 0 -10 1.5t-6 1.5q-2 6 12 26q20 27 22 30
q3 10 7 29q-12 3 -34 9q-23 21 -23 51q0 20 13 40q16 25 38 25q23 0 37 -22q11 -18 11 -43z" />
    <glyph glyph-name="quoteleft" unicode="&#x2018;" horiz-adv-x="172" 
d="M110 599q0 -42 -25 -57q-10 -2 -29 -9q6 -38 33 -68v-13l-7 -7q-28 10 -48 62q-17 45 -17 83q0 68 48 68q22 0 35 -21q10 -17 10 -38z" />
    <glyph glyph-name="quoteright" unicode="&#x2019;" horiz-adv-x="180" 
d="M115 599q0 -30 -18 -78q-21 -59 -49 -70q-5 0 -10 1.5t-6 1.5q-2 6 12 26q20 27 22 30q3 10 7 29q-12 3 -34 9q-23 21 -23 51q0 20 13 40q16 25 38 25q23 0 37 -22q11 -18 11 -43z" />
    <glyph glyph-name="guilsinglleft" unicode="&#x2039;" horiz-adv-x="278" 
d="M38 243q3 3 62 59q64 61 88 86q13 14 22 14q11 0 11 -11q0 -12 -43 -73l-53 -75l11 -14q51 -70 78 -115q6 -11 6 -18q0 -11 -11 -11q-9 0 -23 15q-7 8 -39 38l-48 47q-43 42 -61 58z" />
    <glyph glyph-name="guilsinglright" unicode="&#x203a;" horiz-adv-x="253" 
d="M221 243q-9 -9 -61 -58l-48 -47q-18 -17 -39 -38q-14 -15 -23 -15q-11 0 -11 11q0 8 6 18q15 24 79 115l10 14l-10 15q-57 80 -79 115q-6 10 -6 18q0 11 11 11q10 0 23 -15q6 -5 39 -38l48 -47q22 -21 61 -59z" />
    <glyph glyph-name="daggerdbl" unicode="&#x2021;" horiz-adv-x="493" 
d="M271 509q26 1 72.5 19t68.5 18t36 -14t14 -36q0 -24 -15 -39.5t-39 -15.5q-21 0 -66.5 18t-70.5 19q0 -61 7 -95q10 -47 39 -86q-46 -63 -46 -181q26 0 70.5 18t66.5 18q24 0 39 -15.5t15 -39.5q0 -22 -14 -36t-36 -14t-68.5 18t-72.5 19q0 -38 18 -95.5t18 -76.5
q0 -56 -53 -56q-52 0 -52 56q0 19 18 77t18 95q-26 -1 -72.5 -19t-68.5 -18t-36 14t-14 36q0 24 15 39.5t39 15.5q21 0 66 -18t71 -18q0 118 -46 181q46 63 46 181q-26 -1 -71 -19t-66 -18q-23 0 -38.5 16t-15.5 39q0 22 14 36t36 14t68.5 -18t72.5 -19q0 37 -18 95t-18 77
q0 56 52 56q53 0 53 -55q0 -23 -18.5 -76t-17.5 -84v-13z" />
    <glyph glyph-name="periodcentered" unicode="&#xb7;" horiz-adv-x="219" 
d="M68 249q0 20 14.5 34.5t34.5 14.5t35 -14.5t15 -34.5t-15 -35.5t-35 -15.5t-34.5 15.5t-14.5 35.5z" />
    <glyph glyph-name="periodcentered" unicode="&#x2219;" horiz-adv-x="219" 
d="M68 249q0 20 14.5 34.5t34.5 14.5t35 -14.5t15 -34.5t-15 -35.5t-35 -15.5t-34.5 15.5t-14.5 35.5z" />
    <glyph glyph-name="quotesinglbase" unicode="&#x201a;" horiz-adv-x="187" 
d="M115 59q0 -30 -18 -78q-21 -59 -49 -70q-5 0 -10 1.5t-6 1.5q-2 6 12 26q20 27 22 30q3 10 7 29q-12 3 -34 9q-23 21 -23 51q0 20 13 40q16 25 38 25q23 0 37 -22q11 -18 11 -43z" />
    <glyph glyph-name="quotedblbase" unicode="&#x201e;" horiz-adv-x="312" 
d="M245 69q0 -30 -18 -78q-21 -59 -49 -70q-5 0 -10 1.5t-6 1.5q-2 6 12 26q20 27 22 30q3 10 7 29q-12 3 -34 9q-23 21 -23 51q0 20 13 40q16 25 38 25q23 0 37 -22q11 -18 11 -43zM115 69q0 -30 -18 -78q-21 -59 -49 -70q-5 0 -10 1.5t-6 1.5q-2 6 12 26q20 27 22 30
q3 10 7 29q-12 3 -34 9q-23 21 -23 51q0 20 13 40q16 25 38 25q23 0 37 -22q11 -18 11 -43zM115 69q0 -30 -18 -78q-21 -59 -49 -70q-5 0 -10 1.5t-6 1.5q-2 6 12 26q20 27 22 30q3 10 7 29q-12 3 -34 9q-23 21 -23 51q0 20 13 40q16 25 38 25q23 0 37 -22q11 -18 11 -43z
" />
    <glyph glyph-name="tilde" unicode="&#x2dc;" horiz-adv-x="445" 
d="M394 596q-10 -18 -20.5 -34t-23.5 -27q-34 -32 -63 -32q-23 0 -72 21q-50 21 -82 21q-14 0 -27 -5.5t-24 -13.5q-5 -5 -12 -13.5t-15 -19.5q-1 0 -1 1l-1 1q49 94 109 94q23 0 70 -21q48 -20 75 -20q50 0 86 50z" />
    <glyph glyph-name="macron" unicode="&#xaf;" horiz-adv-x="301" 
d="M17 560h299v-46h-299v46z" />
    <glyph glyph-name="minus" unicode="&#xad;" horiz-adv-x="249" 
 />
    <glyph glyph-name="minus" unicode="&#x2212;" horiz-adv-x="249" 
 />
    <glyph glyph-name="onequarter" unicode="&#xbc;" horiz-adv-x="249" 
 />
    <glyph glyph-name="notequal" unicode="&#x2260;" horiz-adv-x="249" 
 />
    <glyph glyph-name="infinity" unicode="&#x221e;" horiz-adv-x="249" 
 />
    <glyph glyph-name="lessequal" unicode="&#x2264;" horiz-adv-x="249" 
 />
    <glyph glyph-name="greaterequal" unicode="&#x2265;" horiz-adv-x="249" 
 />
    <glyph glyph-name="partialdiff" unicode="&#x2202;" horiz-adv-x="226" 
d="M13 304l63 62v161q5 0 4 3t-1 9q0 25 -8 55q-10 31 -29 46q17 8 45 22t63 34l-1 -259q12 11 29 27t31 31v-31l-60 -59v-185t1 -120q2 -39 40 -101q-41 0 -77 0.5t-75 0.5q35 26 38 99v236q-12 -11 -30.5 -29t-32.5 -32v30z" />
    <glyph glyph-name="summation" unicode="&#x2211;" horiz-adv-x="566" 
d="M236 724q-26 20 -51 38.5t-51 37.5h8l114 -46q26 11 57 23t57 23h8q-28 -20 -51.5 -37.5t-50.5 -38.5h-40zM526 192q0 -83 -75 -146q-36 -29 -74.5 -45t-79.5 -16q-19 0 -48 4.5t-67 12.5q-37 8 -69.5 14t-49.5 7q-5 -1 -11.5 -1h-14.5q-5 0 -7 -0.5t-8 -0.5
q22 30 37.5 56t23.5 50q20 -26 37.5 -44.5t31.5 -29.5q50 -43 114 -43q36 0 66 15t53 44q21 27 33 59t12 64q0 110 -107 170q-24 8 -45.5 16t-44.5 18q-23 8 -46.5 17t-46.5 18h1q-93 40 -93 116q0 62 52 100q24 19 52 28t58 9q23 0 71 -9q49 -9 76 -9t60 15q1 -22 5.5 -46
t15.5 -58q-12 6 -15 8t-14 8q-28 13 -51 27q-27 14 -53 20t-49 6q-49 0 -83.5 -26.5t-34.5 -73.5q0 -17 8 -33t23 -33q12 -12 26.5 -23t31.5 -19q8 -3 18.5 -6.5t27.5 -8.5q11 -2 19 -4t13 -4h-1q7 -3 12 -3q48 -17 85 -35.5t61 -39.5q64 -55 64 -145z" />
    <glyph glyph-name="product" unicode="&#x220f;" horiz-adv-x="412" 
d="M166 502q-26 19 -50.5 37.5t-50.5 38.5h8l113 -47q26 11 57 23.5t57 23.5h8q-28 -21 -51 -38.5t-51 -37.5h-40zM358 140q0 -74 -50 -116q-23 -17 -53.5 -27t-66.5 -10q-19 0 -37 3q-23 2 -45 11t-46 24q-53 36 -53 73q0 23 11.5 37.5t31.5 14.5q25 0 40 -33
q11 -25 19.5 -42t11.5 -22q29 -37 91 -37q34 0 61 26q30 30 30 55q0 61 -72 94q-31 12 -61 24.5t-62 24.5h1q-61 32 -61 99q0 58 46 90q42 30 99 30q25 0 72 -21q49 -21 49 -43q0 -20 -12 -33t-29 -13q-8 0 -20 9t-30 26h1q-32 39 -65 39q-69 0 -69 -52q0 -39 76 -63
q55 -18 86.5 -30t40.5 -17h-1q66 -38 66 -121z" />
    <glyph glyph-name="pi" unicode="&#x3c0;" horiz-adv-x="603" 
d="M207 667q9 10 13.5 8.5t4.5 -8.5h-18zM191 731q13 5 40.5 21.5t71.5 41.5q32 17 54.5 27.5t33.5 10.5q5 0 9 -3.5t11 -17.5q8 -14 8 -27q0 -3 -2 -9l1 1q-8 -15 -112 -36h1q-45 -8 -72.5 -13t-40.5 -8zM540 521q0 -48 -7 -105.5t-20 -118.5q-23 -93 -35 -128
q-17 -46 -41.5 -93t-50.5 -86q-39 -60 -81 -100.5t-87 -62.5q-44 -22 -79 -22q-22 0 -40 10q-19 11 -19 36q0 52 66 52h11t14 1q5 0 9 0.5t10 0.5q7 0 13 0.5t11 0.5q8 1 13.5 1h8.5q17 1 35 9.5t38 23.5q44 35 50 66q-106 71 -180 183h1q-35 53 -57.5 114t-33.5 120
q-4 26 -11 68t-18 100q-8 32 -33 76h180q-5 -5 -10 -14.5t-12 -23.5q-12 -23 -17.5 -45t-5.5 -41q0 -123 58 -251q69 -150 191 -194q15 23 28 54.5t24 72.5q18 72 18 124q0 98 -31 170q-7 15 -13.5 30t-13.5 32v-1q-15 36 -15 53q0 26 17.5 42.5t41.5 16.5q20 0 35.5 -18
t25.5 -51q12 -44 12 -102z" />
    <glyph glyph-name="integral" unicode="&#x222b;" horiz-adv-x="467" 
d="M101 539q13 5 40 21t72 42q32 17 54.5 27t33.5 10q5 0 9 -3t11 -17q3 -7 5 -13t2 -14q0 -3 -2 -9l1 1q-8 -17 -111 -36h1q-46 -8 -73 -13t-40 -8zM394 372q0 -32 -4.5 -72.5t-12.5 -85.5q-14 -71 -39.5 -138.5t-57.5 -126.5q-44 -75 -92.5 -113t-97.5 -38q-15 0 -40 13
q-26 12 -26 27q0 14 12 27.5t31 16.5q16 3 46 0q16 0 30 0.5t28 4.5t29 12.5t33 24.5q40 34 42 57q-2 2 -10 8t-23 16q-71 48 -117 120q-14 26 -28.5 59.5t-26.5 74.5q-10 34 -19.5 69t-18.5 69q-4 0 -14 17q-2 2 -3.5 5t-3.5 6q2 2 8 2q2 0 4 0.5t3 0.5q43 9 101 50
q-4 -38 -5.5 -60t-1.5 -29q0 -42 10 -86.5t29 -85.5q22 -48 59 -86.5t88 -67.5q52 70 52 271q-2 39 -39 70q-14 12 -22 26.5t-8 27.5q0 17 10 31t24 16q4 1 8 1h8q39 0 49 -43q6 -21 6 -91z" />
    <glyph glyph-name="Omega" unicode="&#x3a9;" horiz-adv-x="528" 
d="M347 296q0 -12 -7 -12h-173q33 -99 96 -164q71 -68 168 -68q37 0 75 13q-28 -36 -67.5 -57t-87.5 -21q-65 0 -106 22q-148 75 -173 275h-64q-7 0 -7 12v9q0 13 7 13h60v22q0 11 0.5 23t1.5 22h-62q-7 0 -7 13v9q0 12 7 12h66q18 114 74 179q65 79 165 79q11 0 31 -4
q24 -3 35 -3q21 0 35 6h-1q5 2 8.5 3t7.5 3q6 -32 17 -65t25 -67q-2 0 -2 0.5t-1 0.5t-1 1q-1 1 -2 2.5t-5 6.5l-7 7h1q-10 11 -16 18t-17 14h1q-10 8 -23 16t-30 17q-36 17 -58 17q-82 0 -129 -71q-38 -60 -38 -143v-17h196q7 0 7 -12v-9q0 -13 -7 -13h-193q3 -35 11 -67
h182q7 0 7 -13v-9z" />
    <glyph glyph-name="Omega" unicode="&#x2126;" horiz-adv-x="528" 
d="M347 296q0 -12 -7 -12h-173q33 -99 96 -164q71 -68 168 -68q37 0 75 13q-28 -36 -67.5 -57t-87.5 -21q-65 0 -106 22q-148 75 -173 275h-64q-7 0 -7 12v9q0 13 7 13h60v22q0 11 0.5 23t1.5 22h-62q-7 0 -7 13v9q0 12 7 12h66q18 114 74 179q65 79 165 79q11 0 31 -4
q24 -3 35 -3q21 0 35 6h-1q5 2 8.5 3t7.5 3q6 -32 17 -65t25 -67q-2 0 -2 0.5t-1 0.5t-1 1q-1 1 -2 2.5t-5 6.5l-7 7h1q-10 11 -16 18t-17 14h1q-10 8 -23 16t-30 17q-36 17 -58 17q-82 0 -129 -71q-38 -60 -38 -143v-17h196q7 0 7 -12v-9q0 -13 -7 -13h-193q3 -35 11 -67
h182q7 0 7 -13v-9z" />
    <glyph glyph-name="lozenge" unicode="&#x25ca;" horiz-adv-x="376" 
d="M113 354l90 168q23 -47 43.5 -85.5t43.5 -84.5q-22 -45 -44.5 -87t-44.5 -87z" />
    <glyph glyph-name="hungarumlaut" unicode="&#x2dd;" horiz-adv-x="349" 
d="M182 486q8 24 17.5 48.5t18.5 49.5h-1q20 56 45 56q18 0 18 -25q0 -17 -16 -37v1q-19 -23 -38.5 -47t-39.5 -47zM54 487q8 24 17 48t17 49h-1q20 56 46 56q18 0 18 -24q0 -18 -16 -38v1q-19 -23 -39 -47t-38 -47z" />
    <glyph glyph-name="afii10018" unicode="&#x411;" horiz-adv-x="506" 
d="M478 153q0 -54 -36 -98q-46 -55 -179 -55h-246q-7 0 -7 6q0 1 8 6q20 10 33 31t13 41v482q0 27 -27 43.5t-27 21t8 7.5t27 4q117 6 218 6q43 0 63 6q14 6 29 12q3 0 6 -4q37 -40 71 -144q1 -1 1 -2q0 -5 -5 -5t-11 6q-15 16 -47 46q-24 25 -52 38q-43 20 -84 20
q-16 0 -29 -3q-23 -5 -38 -30q-13 -22 -13 -46v-428q0 -37 19 -64q22 -32 58 -32q59 0 90 24q46 37 46 98q0 81 -61 131q-16 13 -47 25q-20 6 -45 24q-47 31 -47 66q0 30 11 50q15 26 42 26q32 0 32 -32q0 -21 -25.5 -35.5t-25.5 -29.5q0 -28 31 -35q21 -4 64 -10
q24 -1 47 -9q99 -33 126 -109q9 -24 9 -49z" />
    <glyph glyph-name="afii10019" unicode="&#x412;" horiz-adv-x="552" 
d="M526 119q0 -54 -30 -105q-50 -88 -150 -140q-95 -49 -200 -49q-37 0 -37 10q0 6 13 11q14 -1 28 -1q66 0 128 36q60 34 98 91q41 60 41 141q0 111 -59 183q-64 77 -173 77q-15 0 -34 -1v-287q0 -39 46 -72q4 -3 8 -7q1 -5 -7 -5h-183q-8 0 -7 5q2 3 9 7q45 30 45 72v469
q0 20 -11 28q-9 6 -19 11q-14 8 -14 15q0 6 9 10q13 4 39 14q20 7 59 26q5 2 7 2q4 0 6 -8q13 -51 13 -87v-170l3 1q78 2 128 23q71 31 71 97q0 95 -111 119q-19 3 -56 9q-8 2 -8 12t6 12q2 2 14 2q101 0 168 -26q98 -38 98 -121q0 -53 -56 -91q-42 -31 -104 -46
q100 -20 161 -84.5t61 -182.5z" />
    <glyph glyph-name="afii10020" unicode="&#x413;" horiz-adv-x="443" 
d="M421 478q0 -43 -17 -72q-21 -36 -62 -36q-28 0 -47.5 20.5t-19.5 48.5q0 17 9 29q10 15 25 15q34 0 34 -33q0 -6 -1.5 -17.5t-1.5 -17.5t1 -9q1 -8 15 -8q46 0 46 68q0 63 -51 108q-49 45 -113 45q-17 0 -33 -3q-19 -5 -32.5 -21t-13.5 -35v-475q0 -43 45 -72q6 -4 9 -7
q0 -5 -7 -5h-183q-7 0 -7 5q2 3 9 7q45 29 45 72v475q0 21 -13.5 41.5t-31.5 31.5q-9 4 -9 5q0 9 7 9h278q49 0 61 11q23 23 31 23q2 0 5.5 -3.5t3.5 -5.5q0 1 -2 -11t-2 -27q0 -37 15 -100q8 -36 8 -56z" />
    <glyph glyph-name="afii10021" unicode="&#x414;" horiz-adv-x="668" 
d="M659 -96q0 -6 -12 -6q-5 0 -24 34q-9 15 -27 30q-50 38 -134 38h-240q-64 0 -109 -14q-62 -20 -102 -68q-16 -20 -20 -20q-6 0 -6 5l15 42q10 29 17 75q1 18 3 38q2 6 10 6q1 0 17.5 -24t34.5 -24q33 0 55 53q40 94 77 269q10 48 31 142q8 38 8 67q0 49 -23 71
q-11 12 -21 17q-9 5 -9 7q0 5 6 5h360q8 0 8 -5q0 -2 -8 -7q-20 -9 -33 -30.5t-13 -41.5v-475q0 -20 15 -45q18 -28 36 -28q25 0 41 42q3 3 8 3q9 0 10 -6q0 -8 1.5 -24t7 -46.5t12.5 -54.5q8 -27 8 -25zM430 88v469q0 29 -18.5 46t-47.5 17q-30 0 -50.5 -17t-27.5 -45
q-21 -109 -72 -328q-8 -33 -32 -114q-6 -17 -6 -30q0 -46 42 -62q8 -2 10 -2h114q72 0 86 56q2 8 2 10z" />
    <glyph glyph-name="afii10024" unicode="&#x416;" horiz-adv-x="857" 
d="M847 -123q0 -5 -9 -5q-13 0 -48 18q-32 16 -45 27q-28 23 -46 49q-32 44 -53 122q-4 14 -20 82q-16 64 -28 92q-24 52 -62 70q-52 -18 -90 -23v-226q0 -46 45 -72q9 -5 9 -6q0 -6 -7 -6h-183q-8 0 -8 6q0 1 9 6q19 11 32.5 31t13.5 41v230q-27 2 -79 13q-22 -9 -40 -30
q-40 -48 -56 -110q-36 -136 -39 -146q-28 -79 -83 -123q-15 -11 -46 -27q-34 -18 -48 -18q-8 0 -8 5q0 2 2 5q23 35 34 61q17 39 43 121q24 78 42 116q29 62 74 106q29 28 35 34q22 19 42 26q-44 20 -85 45q-57 36 -95 92q-40 62 -40 123q0 28 13 46q15 21 42 21
q21 0 40.5 -17t19.5 -38q0 -8 -3 -23l-6 -24q-1 -11 -5 -35q-1 -7 -1 -13q0 -33 21 -69q31 -52 99 -84q57 -28 127 -37v230q0 20 -13.5 40.5t-32.5 31.5q-9 5 -9 7q0 5 8 5h183q7 0 7 -5q0 -2 -9 -7q-19 -11 -32 -30q-13 -22 -13 -42v-230q55 9 108 32q62 25 94 58
q12 12 25 31q21 33 21 64q0 8 -4 18q-5 16 -6 26q0 3 -1 9q0 3 -5 19q-2 12 -2 20q0 23 18 39.5t40 16.5q57 0 57 -66q0 -59 -41 -119q-36 -55 -92 -90q-34 -21 -79 -41q40 -16 81.5 -66t68.5 -111q14 -35 38 -111q23 -75 43 -119q12 -26 35 -61q2 -3 2 -5z" />
    <glyph glyph-name="afii10025" unicode="&#x417;" horiz-adv-x="519" 
d="M491 188q0 -60 -26 -96q-39 -52 -105 -80q-61 -26 -130 -26q-28 0 -71 9q-49 10 -105 61q-41 39 -41 104q0 36 14 62q18 31 51 31q25 0 42 -19.5t17 -45.5q0 -29 -23 -51t-23 -45q0 -37 51 -60q40 -18 83 -18q73 0 115 40t42 113q0 123 -99 167q-22 11 -41 11
q-9 0 -28 -3.5t-28 -3.5q-8 0 -8 17t8 17q11 0 34.5 -1.5t35.5 -1.5q31 0 44 7q24 14 38 45q14 28 14 58q0 57 -31 104q-39 59 -109 59q-69 0 -132 -66q-14 -11 -36 -35q-13 -15 -14 -15q-6 0 -6 5q0 3 18 37.5t18 50.5q0 3 -1 9.5t-1 9.5q0 34 12 34q6 0 25 -10t30 -10
q6 0 19 3q21 3 61 12q33 9 61 9q52 0 102 -24q56 -27 76 -70q16 -36 16 -68q0 -54 -45 -99q-41 -41 -97 -53q80 -4 126.5 -50t46.5 -124z" />
    <glyph glyph-name="afii10026" unicode="&#x418;" horiz-adv-x="574" 
d="M546 6q0 -6 -7 -6h-183q-6 0 -6 6q0 1 8 6q16 9 30 29q15 21 15 43v446l-235 -451q-4 -8 -4 -17q0 -16 10 -31q12 -17 26 -19q9 -4 9 -6q0 -6 -7 -6h-184q-6 0 -6 6q0 1 9 6q45 23 45 62v489q0 19 -14 42.5t-31 30.5q-9 3 -9 6q0 6 6 6h184q7 0 7 -6q0 -3 -9 -6
q-17 -7 -31 -30.5t-14 -42.5v-417q0 -2 5 -2q4 0 6 2l220 424q4 9 4 21q0 23 -18 35q-22 17 -22 16q0 6 6 6h183q7 0 7 -6q0 -2 -8 -6q-19 -10 -32 -31.5t-13 -41.5v-479q0 -46 45 -72q3 -2 8 -6z" />
    <glyph glyph-name="afii10027" unicode="&#x419;" horiz-adv-x="576" 
d="M417 771q0 -43 -49 -62q-33 -13 -83 -13q-128 0 -128 75q0 19 12 39q13 21 34 21q13 0 22 -10t9 -23q0 -6 -3.5 -13t-8 -14.5t-8 -14t-3.5 -10.5q0 -20 31 -27q21 -7 48 -5q74 0 74 31q0 5 -4 11.5t-8.5 13.5t-8 14.5t-3.5 13.5q0 13 9.5 23t21.5 10q20 0 34 -21
q12 -20 12 -39zM549 6q-2 -6 -7 -6h-184q-7 0 -7 6q0 1 9 6q17 11 30 28q15 22 15 44v446l-235 -451q-4 -8 -4 -17q0 -16 11 -32t25 -18q6 -5 9 -6q0 -6 -7 -6h-183q-7 0 -7 6q3 1 9 6q45 28 45 62v489q0 20 -13 41.5t-32 30.5q-9 4 -9 7q0 5 7 5h183q7 0 7 -5q0 -3 -9 -7
q-14 -8 -29 -29q-15 -20 -15 -43v-417q0 -2 4 -2q3 0 5 2l221 424q5 8 5 21q0 23 -19 35q-23 16 -23 18.5t7 2.5h184q7 0 7 -5q0 -3 -9 -7q-18 -9 -32 -30.5t-14 -41.5v-479q0 -44 46 -72q6 -5 9 -6z" />
    <glyph glyph-name="afii10028" unicode="&#x41a;" horiz-adv-x="567" 
d="M578 -114q0 -4 -9 -4q-14 0 -49 17q-30 15 -46 27q-76 57 -116 210q-22 85 -35 115q-29 70 -72 89q-51 -20 -93 -26v-229q0 -23 15 -44q12 -18 29 -29q9 -5 9 -6q0 -6 -7 -6h-183q-7 0 -7 6q0 1 9 6q16 10 30 29q15 21 15 44v478q0 21 -13 42t-32 31q-9 5 -9 6q0 6 7 6
h183q7 0 7 -6q0 -1 -9 -6q-16 -10 -29 -29q-15 -21 -15 -44v-221q128 24 200 95q16 17 27.5 44t11.5 50q0 6 -2 14q-9 39 -9 64q0 26 18 45.5t45 19.5q55 0 55 -78q0 -51 -44 -111q-38 -51 -88 -84q-31 -20 -72 -40q66 -19 121 -118q32 -57 68 -165q26 -77 49 -126
q13 -28 37 -62q3 -2 3 -4z" />
    <glyph glyph-name="afii10029" unicode="&#x41b;" horiz-adv-x="594" 
d="M566 6q0 -6 -7 -6h-182q-8 0 -8 6l9 6q19 10 32 30.5t13 41.5v474q0 29 -22 47q-20 17 -51 17q-30 0 -52 -16q-24 -17 -25 -47q-3 -99 -15 -297q-24 -280 -136 -280q-14 0 -30 4q-76 25 -76 112q0 29 11 49q14 24 41 24q22 0 37 -19q14 -18 14 -40q0 -10 -5 -29.5
t-5 -28.5q0 -29 29 -29q62 0 80 145q6 54 11 119q9 129 9 165q0 96 -18 138q-13 30 -38 44q-9 5 -9 6q0 6 7 6h379q7 0 7 -6q0 -1 -8 -6q-19 -11 -32 -31q-13 -21 -13 -42v-479q0 -21 13 -41.5t32 -30.5z" />
    <glyph glyph-name="afii10030" unicode="&#x41c;" horiz-adv-x="672" 
d="M665 6q0 -6 -6 -6h-183q-8 0 -8 6q0 1 7 6q15 8 24.5 26t9.5 35q0 5 -1 11l-78 438l-127 -475q-4 -14 -14 -14t-14 13l-128 484q-60 -220 -60 -404q0 -103 22 -213q2 -6 2 -10q0 -18 -28 -33q-24 -13 -44 -13q-13 0 -16 4q-11 11 -11 85q0 76 31 209q28 131 48 223
q7 34 13 74q15 105 15 122q0 24 -8 33q-15 18 -38 29q-4 2 -10 6v2q0 4 5 4h183q9 0 9 -6q0 -1 -7 -6q-27 -18 -27 -54q0 -8 2 -19l93 -348l89 327q3 9 3 18q0 37 -26 59q-11 11 -23 17q-9 5 -9 7q0 5 5 5h183q8 0 8 -6q0 -2 -7 -6q-33 -21 -33 -61v-12l86 -479
q9 -45 59 -72z" />
    <glyph glyph-name="afii10031" unicode="&#x41d;" horiz-adv-x="615" 
d="M598 6q0 -6 -8 -6h-183q-7 0 -7 6q0 1 8 6q15 8 28 29q14 19 13 37v6l-19 278h-249l-22 -283q-1 -41 40 -67q3 -2 8 -6q-1 -6 -7 -6h-183q-7 0 -7 6q0 1 8 6q20 10 35 31t17 41l36 479v7q0 18 -12 37.5t-28 28.5q-8 5 -8 6q0 6 8 6h184q5 0 5 -6q0 -1 -8 -6
q-20 -10 -34.5 -31t-16.5 -42l-13 -168h245l-11 168q-2 20 -17 43q-14 20 -34 30q-8 5 -8 6q0 6 7 6h183q6 0 6 -6q0 -1 -7 -6q-16 -10 -28.5 -28.5t-12.5 -37.5v-7l32 -479q1 -21 16 -42q15 -20 34 -30q10 -5 10 -6z" />
    <glyph glyph-name="afii10032" unicode="&#x41e;" horiz-adv-x="623" 
d="M599 340q0 -151 -93 -256q-89 -101 -211 -101q-121 0 -205 101q-79 96 -79 230q0 152 93 256q90 101 211 101q120 0 204 -101q80 -96 80 -230zM545 267q0 125 -87 224q-92 107 -211 107q-81 0 -133 -62q-48 -58 -48 -142q0 -124 85 -223q93 -106 211 -106q83 0 134 61
q49 57 49 141z" />
    <glyph glyph-name="afii10033" unicode="&#x41f;" horiz-adv-x="626" 
d="M597 6q0 -6 -7 -6h-183q-7 0 -7 6q0 1 8 6q14 8 28 28.5t13 37.5v6l-31 463q-3 37 -41 57q-31 16 -73 16q-39 0 -70 -16q-36 -20 -40 -54l-35 -471q-1 -19 11.5 -39t27.5 -28q8 -5 8 -6q0 -6 -7 -6h-182q-7 0 -7 6q0 1 8 6q20 10 35 31t17 41l36 479v7q0 18 -12 36
q-13 22 -28 29q-8 5 -8 7q0 5 8 5h481q7 0 7 -5q0 -2 -8 -7q-14 -8 -28 -29q-12 -18 -12 -36v-7l32 -479q1 -20 16 -41t34 -31q9 -5 9 -6z" />
    <glyph glyph-name="afii10034" unicode="&#x420;" horiz-adv-x="518" 
d="M483 501q0 -62 -57 -113q-28 -26 -84 -45q-33 -12 -60 -35q-33 -27 -37 -58q-3 -11 -3 -23q0 -20 33 -45q15 -8 28 -17q12 -10 12 -31q0 -13 -9 -24q-10 -12 -23 -12q-23 0 -39 22q-25 33 -30 54q-5 19 -5 39q0 37 18 77q11 26 28 45q16 18 42 39q73 60 73 128
q0 57 -47 95q-43 33 -89 33q-62 0 -72 -12q-6 -8 -6 -38v-513q0 -20 14 -33q8 -9 31 -22q9 -5 9 -6q0 -6 -8 -6h-182q-7 0 -7 6q0 1 9 6q44 24 44 55v456q0 23 -13 43t-28 29q-9 5 -9 7q0 4 7 5l37 11q42 14 74 23q64 18 140 18q123 0 172 -59q37 -46 37 -99z" />
    <glyph glyph-name="afii10035" unicode="&#x421;" horiz-adv-x="486" 
d="M460 70q0 -16 -25 -41q-28 -28 -61 -39q-27 -8 -71 -8q-121 0 -206 102q-83 101 -83 251q0 104 32 179q70 160 225 160q10 0 28 -4.5t27 -4.5q8 0 20.5 6t19.5 6q2 0 4.5 0.5t3.5 0.5q7 0 12 -29q4 -17 10 -31q3 -6 41 -70q0 -10 -11 -10q-5 0 -9 4q-63 52 -78 63
q-47 32 -93 32q-74 0 -116 -66q-39 -57 -39 -134q0 -119 67 -247q22 -43 64 -77q43 -34 90 -49q37 -12 62 -12q26 0 49.5 14.5t26.5 14.5q10 0 10 -11z" />
    <glyph glyph-name="afii10036" unicode="&#x422;" horiz-adv-x="525" 
d="M503 521q0 -6 -6 -6q-11 0 -38 28q-39 42 -53 54q-34 28 -61 28q-23 0 -36 -16q-12 -15 -12 -39v-486q0 -21 13 -41.5t32 -30.5q8 -6 8 -9t-7 -3h-182q-7 0 -7 6q0 1 8 6q16 8 30.5 29t14.5 43v486q0 55 -41 55q-12 0 -28 -7q-34 -16 -60 -44q-52 -59 -64 -59q-8 0 -8 6
q0 3 4 9q10 19 28 56l24 75q3 8 9 8q3 0 22 -6q21 -7 25 -8q38 -8 72 -8h123q41 0 79 8q4 1 23 7t25 6t8 -7.5l6 -22.5q8 -28 18 -52l28 -56q3 -6 3 -9z" />
    <glyph glyph-name="afii10037" unicode="&#x423;" horiz-adv-x="500" 
d="M474 519q0 -73 -17 -161q-19 -95 -47 -156q-21 -43 -56 -91q-91 -128 -214 -128q-13 0 -55 7q-67 11 -67 54q0 25 16 39q16 15 41 15q12 0 47 -17q56 -27 91 -27q70 0 125 84q-60 33 -104 74q-118 106 -174 357q-6 24 -17.5 40.5t-28.5 26.5q-8 5 -8 6q0 6 8 6h182
q7 0 7 -6q0 -1 -9 -6q-36 -22 -36 -69q0 -40 16 -81q68 -181 204 -269q40 94 40 158q0 92 -48 183q-9 18 -20 36q-11 22 -11 37q0 22 14.5 38t36.5 16q15 0 32 -11q52 -37 52 -155z" />
    <glyph glyph-name="afii10038" unicode="&#x424;" horiz-adv-x="641" 
d="M614 318q0 -100 -84 -169q-75 -63 -180 -73q6 -42 45 -64q9 -5 9 -6q0 -6 -7 -6h-183q-8 0 -8 6q0 1 9 6q40 23 45 66q-98 15 -170 77q-79 69 -79 163q0 96 79 165q70 63 170 76v4q0 23 -14 43t-31 29q-9 6 -9 7q0 5 8 5h183q7 0 7 -5q0 -1 -9 -7q-45 -26 -45 -74
q114 -13 191 -85q73 -69 73 -158zM522 288q0 78 -48.5 144t-123.5 90v-420q75 5 123.5 58.5t48.5 127.5zM260 114v419q-73 -7 -120 -60t-47 -126q0 -78 46.5 -142.5t120.5 -90.5z" />
    <glyph glyph-name="afii10039" unicode="&#x425;" horiz-adv-x="621" 
d="M607 2q0 -2 -6 -2h-239q-13 0 -13 6q0 -1 23.5 16.5t23.5 39.5q0 28 -19 63l-92 170q-31 -47 -57 -103q-34 -72 -34 -109q0 -33 22 -53q13 -7 33 -24q-4 -6 -12 -6h-225q-6 0 -6 2q0 4 16 15q38 23 78 71q99 118 173 229l-149 246q-14 23 -34 44q-22 22 -45 29
q-15 5 -15 9q0 3 6 3h214q12 0 12 -6q0 -2 -7 -6q-27 -16 -27 -46q0 -13 7 -27l93 -165q22 33 40 70q16 36 38 118q21 88 81 88q62 0 62 -70q0 -39 -46 -83q-54 -48 -160 -150l175 -287q25 -42 72 -67q4 -2 10 -6q7 -5 7 -9z" />
    <glyph glyph-name="afii10040" unicode="&#x426;" horiz-adv-x="714" 
d="M722 -99q0 -5 -5 -5q-2 0 -31 27q-33 32 -62 50q-43 27 -82 27h-520q-6 0 -6 6q0 1 9 6q19 10 33 30q16 22 18 43l37 478v7q0 18 -12 36q-14 22 -28 29q-8 5 -8 7q0 5 7 5h183q7 0 7 -5q0 -2 -9 -7q-19 -9 -34.5 -30.5t-16.5 -41.5l-35 -451v-9q0 -49 47 -66
q44 -16 97 -16q62 0 107 20q36 15 36 58q0 4 -1 9l-30 455q-1 20 -17 42q-14 21 -33 30q-9 5 -9 7q0 5 6 5h184q7 0 7 -5q0 -2 -8 -7q-15 -8 -28 -29q-13 -18 -13 -36q0 -4 1 -7l29 -438q0 -17 6 -37q7 -28 30 -48q23 -22 51 -22q25 0 43 20t16 20h2l4 -4q2 -61 21 -125z
" />
    <glyph glyph-name="afii10041" unicode="&#x427;" horiz-adv-x="474" 
d="M451 6q0 -6 -7 -6h-183q-7 0 -7 6q0 1 8 6q20 10 33 31t13 41v212q-54 -22 -119 -22q-51 0 -93 9q-80 16 -80 92q0 15 2 33l24 169v9q0 22 -21 39.5t-21 16.5q0 5 8 5h178q5 0 5 -5q0 -2 -9 -7q-48 -24 -53 -58l-25 -179q-1 -8 -1 -16q0 -40 29 -62q26 -20 66 -20
q48 0 110 25v238q0 20 -13 41.5t-33 30.5q-8 5 -8 7q0 5 7 5h183q7 0 7 -5q0 -2 -9 -7q-18 -9 -32 -30q-12 -22 -12 -42v-479q0 -20 13 -41t31 -31q9 -5 9 -6z" />
    <glyph glyph-name="afii10042" unicode="&#x428;" horiz-adv-x="946" 
d="M901 5q0 -5 -7 -5h-880q-6 0 -6 5q0 1 9 6q19 10 34 31t17 41l37 480v7q0 17 -12.5 36.5t-26.5 28.5q-9 5 -9 7q0 5 8 5h182q7 0 7 -5q0 -2 -9 -7q-19 -10 -34 -30.5t-17 -41.5l-34 -452q-1 -4 -1 -7q0 -43 43 -67q36 -19 83 -19q45 0 85 21.5t40 68.5v455q0 23 -15 43
q-14 20 -30 29q-9 5 -9 7q0 5 7 5h183q7 0 7 -5q0 -2 -8 -7q-19 -10 -32.5 -31t-13.5 -41v-453q0 -47 41 -71q34 -19 83 -19q47 0 83 17q45 22 45 62v8l-30 456q-2 20 -16.5 41t-34.5 31q-8 5 -8 7q0 5 6 5h183q8 0 8 -5q0 -2 -9 -7q-15 -9 -28 -29q-12 -18 -12 -36v-7
l32 -480q1 -20 16 -40.5t34 -31.5q9 -5 9 -6z" />
    <glyph glyph-name="afii10043" unicode="&#x429;" horiz-adv-x="1015" 
d="M1013 -98q0 -8 -7 -8q-6 0 -12 8q-3 5 -8 15q-24 45 -52 66q-22 17 -70 17h-846q-6 0 -6 6l9 6q19 10 34 30.5t16 41.5l38 485q0 18 -13 38t-27 29q-8 4 -8 6q0 6 7 6h183q7 0 7 -6q0 -1 -9 -6q-19 -10 -34 -30q-15 -22 -17 -43l-35 -452v-7q0 -43 43 -66q36 -20 83 -20
q45 0 85 22t40 68v455q0 23 -15.5 43.5t-30.5 28.5q-8 5 -8 7q0 5 6 5h184q7 0 7 -5q0 -2 -9 -7q-18 -9 -31.5 -30.5t-13.5 -41.5v-453q0 -47 41 -70q34 -20 83 -20q46 0 82 18q46 21 46 62q0 4 -1 7l-29 456q-2 21 -17 43q-14 20 -34 30q-8 5 -8 6q0 6 6 6h183q7 0 7 -6
q0 -1 -8 -6q-15 -9 -28 -29q-12 -19 -12 -37v-7l29 -441q2 -24 18.5 -61.5t73.5 -37.5q20 0 35.5 19t14.5 19q3 0 9 -4q1 -39 4 -75q2 -34 14 -75q1 -2 1 -5z" />
    <glyph glyph-name="afii10044" unicode="&#x42a;" horiz-adv-x="601" 
d="M580 152q0 -35 -17 -67q-32 -63 -96 -75q-45 -10 -98 -10h-250q-7 0 -7 5q0 1 9 6q18 11 31.5 31.5t13.5 40.5v497q0 14 -6 26q-8 15 -21 15q-6 0 -15 -4q-32 -15 -59 -45q-17 -18 -52 -53q-7 -5 -14 -5q-6 0 -6 5q0 3 3 10q10 18 28 56q10 24 18 50q1 9 5 25q4 6 15 6
q38 -12 41 -12q31 -7 68 -7h132q7 0 7 -5q0 -2 -9 -7q-46 -24 -46 -55v-466q0 -38 20 -65q22 -32 57 -32q21 0 49 6q41 9 66 43q23 32 23 73q0 91 -111 160q-10 6 -36 26q-41 32 -41 77q0 29 12 49q14 26 41 26q32 0 32 -32q0 -21 -28 -38.5t-28 -35.5q0 -25 55 -40
q93 -24 113 -33q68 -32 92 -97q9 -23 9 -49z" />
    <glyph glyph-name="afii10045" unicode="&#x42b;" horiz-adv-x="721" 
d="M686 6q0 -6 -6 -6h-183q-7 0 -7 6q0 1 8 6q19 10 32 31t13 41v479q0 23 -14.5 43.5t-30.5 28.5q-8 5 -8 7q0 5 7 5h183q6 0 6 -5q0 -2 -8 -7q-16 -9 -30 -29q-15 -20 -15 -43v-479q0 -45 45 -72q4 -2 8 -6zM481 153q0 -54 -37 -98q-45 -55 -178 -55h-246q-7 0 -7 6
q0 1 9 6q18 10 31 31t13 41v496q0 31 -44 55q-9 5 -9 7q0 5 7 5h183q7 0 7 -5q0 -2 -8 -7q-46 -24 -46 -55v-466q0 -37 20 -64q22 -32 58 -32q58 0 89 24q47 37 47 98q0 91 -111 160q-10 6 -35 26q-41 32 -41 76q0 30 11 50q15 25 41 25q33 0 33 -31q0 -21 -28.5 -39
t-28.5 -35q0 -25 39 -36l88 -22q50 -16 80 -38q37 -27 54 -74q9 -24 9 -49z" />
    <glyph glyph-name="afii10046" unicode="&#x42c;" horiz-adv-x="505" 
d="M476 152q0 -54 -36 -98q-28 -34 -82 -46q-36 -8 -97 -8h-245q-7 0 -7 6l8 6q19 10 32 30.5t13 41.5v497q0 30 -45 55q-8 5 -8 6q0 6 7 6h182q8 0 8 -6q0 -1 -8 -6q-24 -14 -32 -22q-14 -13 -14 -33v-467q0 -37 19 -65q23 -31 58 -31q60 0 97 30q40 33 40 91
q0 92 -111 160q-10 7 -35 26q-42 32 -42 77q0 30 12 50q14 25 41 25q33 0 33 -32q0 -20 -29 -38t-29 -35q0 -26 56 -41q93 -24 113 -33q68 -32 92 -97q9 -23 9 -49z" />
    <glyph glyph-name="afii10047" unicode="&#x42d;" horiz-adv-x="582" 
d="M552 356q0 -144 -89 -256q-95 -118 -236 -118q-26 0 -69 9q-52 11 -106 63q-42 39 -42 104q0 36 15 61q17 31 51 31q25 0 42 -19.5t17 -45.5q0 -28 -23 -50t-23 -45q0 -40 50 -60q39 -16 83 -16q54 0 103 34q44 30 74 80q48 82 48 197v13h-384v33h382q-11 102 -66 175
q-64 86 -159 86q-63 0 -125 -58q-13 -12 -37 -36q-4 -4 -6 -8q-4 -7 -8 -7q-7 0 -7 6q0 2 4 9q33 64 45 108q3 9 5 20q4 10 15 10l22 -9.5t40 -9.5q16 0 46 7q38 9 75 9q51 0 91 -18q86 -37 131 -121q41 -77 41 -178z" />
    <glyph glyph-name="afii10048" unicode="&#x42e;" horiz-adv-x="900" 
d="M853 337q0 -151 -93 -255q-90 -101 -210 -101q-122 0 -206 101q-79 96 -79 230v16h-115v-244q0 -42 46 -72q3 -2 8 -6q1 -6 -6 -6h-184q-7 0 -7 6l9 6q17 10 30 29q15 21 15 43v480q0 22 -15 44q-13 18 -30 28q-9 6 -9 7q0 6 7 6h184q6 0 6 -6q0 -1 -8 -7
q-18 -10 -30 -28q-16 -22 -16 -44v-202h117q15 123 95 211q87 95 206 95q122 0 205 -101q80 -96 80 -230zM798 265q0 125 -86 224q-92 106 -211 106q-83 0 -134 -61q-48 -58 -48 -142q0 -125 86 -224q93 -106 211 -106q82 0 134 61q48 58 48 142z" />
    <glyph glyph-name="afii10049" unicode="&#x42f;" horiz-adv-x="563" 
d="M537 6q0 -5 -7 -5h-184q-6 0 -6 5q0 2 9 7q18 10 31.5 30.5t13.5 41.5v229q-12 -1 -24 -1q-48 0 -99 8q-45 -17 -74 -142q-21 -88 -37 -137q-14 -43 -17 -49q-10 -27 -22 -47q-23 -35 -58 -61q-16 -12 -46 -27q-35 -18 -48 -18q-10 0 -10 5q0 1 3 4q23 22 36 48
q19 37 38 97l32 100q19 53 38 100q45 108 117 136q-206 47 -206 182q0 48 35 87q31 35 81 52q39 15 93 15q47 0 121 -17q94 -20 120 -23q19 -3 58 -9q7 -1 7 -5q0 -2 -9 -6q-40 -24 -40 -63v-458q0 -21 13.5 -41.5t31.5 -30.5q9 -5 9 -7zM394 333v273q0 11 -46 20
q-36 6 -58 6q-65 0 -117 -37q-58 -41 -58 -103q0 -29 9 -55q17 -47 76 -75q48 -21 108 -27q32 -1 86 -2z" />
    <glyph glyph-name="afii10065" unicode="&#x430;" horiz-adv-x="420" 
d="M398 3q0 -3 -6 -3h-97q-11 0 -11 14v39l-110 -63q-9 -6 -20 -6q-9 0 -26 7q-63 27 -91 79q-23 45 -23 119q0 77 44 145q45 69 116 96q22 7 56 7h118q8 0 8 -10v-369q0 -22 21 -37.5t21 -17.5zM284 72v304q-14 34 -70 34q-41 0 -74 -32q-29 -28 -42 -70q-12 -37 -12 -79
q0 -57 20 -100q24 -51 71 -70q21 -8 39 -8q28 0 68 21z" />
    <glyph glyph-name="afii10066" unicode="&#x431;" horiz-adv-x="455" 
d="M433 232v-14q-1 -92 -63 -160q-60 -67 -143 -67q-81 0 -139 64q-71 79 -71 221q0 56 14 106q23 84 62 132q41 52 118 84q26 11 71 18q55 8 72 13q15 4 28 10q33 18 32 18q3 0 3 -7q0 -20 -9 -44q-30 -73 -96 -78q-50 -4 -80 -10q-192 -40 -192 -213q0 -10 1 -20
q20 68 71 112q54 46 122 46q48 0 90 -20q110 -50 109 -191zM393 166q0 77 -66 146t-144 69q-48 0 -82 -33.5t-34 -81.5q0 -78 69 -143q68 -64 146 -64q46 0 78.5 30t32.5 77z" />
    <glyph glyph-name="afii10067" unicode="&#x432;" horiz-adv-x="395" 
d="M374 94q0 -24 -12 -44q-19 -33 -66 -44q-27 -7 -84 -7q-33 0 -98 0.5t-98 0.5q-6 0 -6 2t20 18.5t20 37.5v292q0 31 -33 48q-7 4 -7 8q0 7 6 8l52 9q25 7 74 19q28 5 64 5q59 0 94 -15q68 -30 68 -88q0 -50 -47 -78q-31 -17 -92 -30q1 0 10 -2q42 -8 77 -32
q39 -28 51 -64q7 -20 7 -44zM275 345q0 79 -89 79q-33 0 -54 -8q-10 -4 -10 -16v-156q153 0 153 101zM286 110q0 52 -36 84q-35 32 -88 32q-20 0 -40 -2v-161q0 -25 18 -40q31 -5 43 -5q46 0 74 23q29 25 29 69z" />
    <glyph glyph-name="afii10068" unicode="&#x433;" horiz-adv-x="318" 
d="M301 326q0 -4 -4 -4t-8 4q-31 36 -37 40q-22 24 -42 35q-16 9 -40 9q-47 0 -47 -41v-311q0 -21 21 -37t21 -18q0 -3 -7 -3h-141q-6 0 -6 3q0 2 19.5 17.5t19.5 37.5v318q0 30 -32 49q-7 3 -7 8q0 4 6 4h114q56 0 86 7q4 1 25 9q19 7 21 7q5 0 7 -7q3 -20 10 -60
q1 -4 11 -35q10 -28 10 -32z" />
    <glyph glyph-name="afii10069" unicode="&#x434;" horiz-adv-x="490" 
d="M466 -94q0 -7 -6 -7q-5 0 -24 27q-24 33 -39 48q-27 26 -48 26h-211q-31 0 -42 -3q-16 -5 -46 -42q-19 -26 -40 -53q-3 -3 -6 -3q-6 0 -6 7q0 9 7 28q13 37 13 85q0 31 9 31q4 0 13 -14t23 -14q15 0 22 12q18 28 33 116q9 63 18.5 124.5t9.5 85.5q0 25 -12 40t-39 25
q-6 2 -6 7t5 5h305q5 0 5 -3q0 -6 -6 -9q-35 -19 -35 -49v-319q0 -35 38 -35q14 0 23.5 14t12.5 14q9 0 9 -36q0 -42 13 -80q7 -21 7 -28zM291 75v289q0 16 -11 34q-12 20 -42 20q-32 0 -47 -18q-13 -17 -18 -40q-11 -49 -33 -193q-9 -57 -9 -83q0 -30 8 -44q11 -18 42 -18
h34h35q16 0 28 20q13 17 13 33z" />
    <glyph glyph-name="afii10070" unicode="&#x435;" horiz-adv-x="348" 
d="M328 333q0 -7 -5 -10l-222 -153q29 -61 93 -104q32 -21 69 -21q20 0 48 7q5 1 7 1q4 0 4 -3q0 -8 -11 -17q-45 -39 -113 -39q-84 0 -137 74q-50 67 -50 154q0 92 45 155q50 70 140 70q42 0 79 -34q53 -50 53 -80zM234 342q0 32 -18 52t-50 20q-48 0 -72 -41
q-20 -33 -20 -84t19 -99q37 27 75 52q46 36 60 67q6 13 6 33z" />
    <glyph glyph-name="afii10072" unicode="&#x436;" horiz-adv-x="622" 
d="M674 -186q-1 -4 -8 -4q-49 0 -94 33q-34 24 -53 54q-18 28 -44 125q-9 32 -25 96q-8 26 -20 41q-16 19 -33 24q-30 -10 -59 -15v-111q0 -21 20.5 -36.5t20.5 -17.5q0 -3 -5 -3h-142q-6 0 -6 2t20 18t20 37v110q-32 5 -64 16q-17 -5 -33 -24q-13 -15 -22 -44
q-6 -24 -13 -49q-11 -43 -22 -87q-15 -53 -34 -82t-54 -54q-44 -33 -90 -33q-8 0 -10 4q1 2 2 3q40 29 57 57q11 16 31 78q26 80 36 105q25 66 50 95q18 22 24 29q15 15 30 20q-116 51 -136 169q-1 10 -1 18q0 24 14 43q15 20 39 20q19 0 32 -13.5t13 -32.5q0 -15 -2 -26
t-15 -34q-12 -20 -12 -37q0 -39 42 -72q33 -26 77 -38q29 -9 61 -12v189q0 23 -20 39t-20 17q0 5 6 5h142q5 0 5 -3q0 -6 -6 -10q-35 -20 -35 -48v-189q30 4 58 12q43 13 75 39q40 32 40 70q0 16 -14 43t-14 54q0 19 13 33t33 14q23 0 38 -20q15 -18 15 -43q0 -44 -28 -91.5
t-68 -72.5q-17 -11 -41 -23q13 -5 26 -19q38 -38 56 -75q11 -21 34 -86q11 -38 23 -75q14 -47 32 -72q21 -32 56 -57q2 -1 2 -3z" />
    <glyph glyph-name="afii10073" unicode="&#x437;" horiz-adv-x="374" 
d="M355 131q0 -67 -60 -107q-52 -34 -123 -34q-77 0 -118 37q-30 27 -36 61q-4 20 -4 38q0 28 13 48q15 23 43 23q20 0 34.5 -11.5t14.5 -31.5q0 -32 -37 -64q-9 -7 -9 -27q0 -26 27 -42q23 -13 51 -13q54 0 86.5 29.5t32.5 83.5q0 44 -20 77q-24 40 -64 40q-9 0 -26.5 -2
t-25.5 -2q-5 0 -5 15q0 9 3 9q9 0 27 -1t27 -1q28 0 46 20.5t18 49.5q0 24 -10 46q-11 24 -31 34q-16 9 -41 9q-32 0 -64 -19q-11 -6 -33 -22q-13 -13 -41 -40q-4 -3 -7 -3t-3 3t2 9q14 27 19 49q2 18 11 52q2 6 6 6q47 -24 65 -24q5 0 31 7q35 8 67 8q45 0 78 -24
q36 -27 36 -71q0 -41 -37 -68q-31 -24 -74 -31q60 -14 90 -35q41 -30 41 -81z" />
    <glyph glyph-name="afii10074" unicode="&#x438;" horiz-adv-x="446" 
d="M422 3q0 -3 -5 -3h-143q-5 0 -5 2t20 18.5t20 35.5v287l-173 -276q-6 -10 -6 -19q0 -15 18 -29t18 -16q0 -3 -4 -3h-143q-5 0 -5 2t20 17.5t20 36.5v321q0 30 -34 47q-6 4 -6 9q0 4 5 4h143q5 0 5 -4q0 -5 -6 -9q-35 -17 -35 -47v-270q0 -5 5 -5l2 1l165 266q6 9 6 18
q0 18 -17.5 30.5t-17.5 14.5q0 5 5 5h143q5 0 5 -3q0 -6 -6 -10q-34 -18 -34 -47v-321q0 -19 20 -35t20 -18z" />
    <glyph glyph-name="afii10075" unicode="&#x439;" horiz-adv-x="449" 
d="M326 550q0 -19 -11 -32t-27.5 -21t-35.5 -11.5t-35 -3.5q-52 0 -78 19.5t-26 49.5q0 14 9 31q12 18 26 18q11 0 20 -8t9 -19t-9.5 -23.5t-9.5 -19.5q0 -28 63 -28q61 0 61 28q0 8 -9.5 19.5t-9.5 22.5t8.5 19.5t19.5 8.5q15 0 26 -18q9 -17 9 -32zM426 3q0 -3 -7 -3h-141
q-6 0 -6 2q0 1 20 18t20 36v286l-173 -275q-6 -11 -6 -19q0 -16 18 -29q19 -13 19 -17q0 -2 -5 -2h-143q-5 0 -5 2t19 18q20 17 20 36v320q0 30 -33 47q-6 3 -6 8t5 5h143q5 0 5 -4q0 -6 -7 -9q-33 -17 -33 -47v-269q0 -5 4 -5l1 1l167 265q5 10 5 19q0 17 -18 29
q-17 14 -17 15q0 5 6 5h141q6 0 6 -3q0 -7 -7 -10q-34 -16 -34 -47v-320q0 -19 21 -35q21 -17 21 -18z" />
    <glyph glyph-name="afii10076" unicode="&#x43a;" horiz-adv-x="411" 
d="M462 -186q-2 -4 -10 -4q-46 0 -90 33q-35 25 -54 54q-20 31 -45 125q-9 32 -26 96q-7 26 -20 41q-16 19 -33 24q-30 -10 -58 -15v-111q0 -20 20 -36t20 -19q0 -2 -4 -2h-143q-5 0 -5 2t19.5 18t19.5 37v318q0 29 -33 48q-6 4 -6 10q0 3 5 3h143q4 0 4 -3q0 -6 -6 -10
q-34 -19 -34 -48v-189q30 4 57 12q44 13 76 39q40 33 40 71q0 15 -14.5 42.5t-14.5 53.5q0 20 13.5 33.5t32.5 13.5q23 0 38 -20q14 -18 14 -43q0 -45 -28 -93q-27 -46 -66 -71q-19 -12 -42 -23q14 -5 27 -19q15 -15 27 -30q24 -29 49 -102q19 -55 36 -111q12 -35 32 -65
q22 -32 56 -57q2 -1 3 -3z" />
    <glyph glyph-name="afii10077" unicode="&#x43b;" horiz-adv-x="454" 
d="M430 3q0 -3 -6 -3h-142q-6 0 -6 3q0 2 20 17.5t20 37.5v306q0 15 -11.5 34.5t-42.5 19.5t-44 -17q-12 -17 -13 -39q-5 -54 -14 -160q-17 -194 -91 -204h-10q-39 0 -60 26q-20 26 -20 64q0 24 8 37q16 24 36 24q18 0 31 -14t13 -32q0 -16 -12 -30.5t-12 -23.5
q0 -23 20 -23t33 16q7 8 15 30q32 78 32 217v60q-4 36 -20 54q-11 13 -34 22q-6 2 -6 7t5 5h305q5 0 5 -3q0 -6 -7 -9q-34 -19 -34 -49v-318q0 -21 21 -37.5t21 -17.5z" />
    <glyph glyph-name="afii10078" unicode="&#x43c;" horiz-adv-x="541" 
d="M537 2q0 -2 -5 -2h-143q-5 0 -5 4q0 2 15 15.5t15 30.5q0 4 -1 8l-56 308l-99 -360q-1 -6 -7 -6q-5 0 -6 6l-104 360l-54 -268q-3 -19 -3 -32q0 -23 22.5 -41.5t22.5 -20.5q0 -4 -6 -4h-114q-4 0 -4 2t20.5 21t23.5 27q6 12 13 50l56 276q1 3 1 6q0 26 -34 43q-5 2 -5 6
q0 6 6 6h143q7 0 7 -7q0 1 -13.5 -12.5t-13.5 -29.5q0 -6 2 -12l62 -219q1 -2 4 -2t3 1l61 223q2 8 2 14q0 20 -30 32q-7 3 -7 9q0 3 4 3h143q6 0 6 -6q0 -4 -5 -6q-26 -15 -26 -42v-7l57 -318q4 -21 28 -37t24 -19z" />
    <glyph glyph-name="afii10079" unicode="&#x43d;" horiz-adv-x="458" 
d="M434 2q0 -2 -5 -2h-143q-5 0 -5 3q0 2 18.5 17t17.5 34v4l-11 167h-171q-5 -168 -5 -169q0 -21 19 -36t19 -17q0 -3 -6 -3h-142q-6 0 -6 2t21.5 18.5t22.5 37.5l9 320q1 29 -33 47q-5 3 -5 8q0 4 5 4h142q6 0 6 -3q0 -6 -8 -9q-33 -17 -34 -49l-4 -129h168l-9 129
q-1 32 -36 49q-7 3 -7 9q0 3 6 3h142q5 0 5 -4q0 -1 -19 -17t-18 -37v-3l21 -318q1 -21 23 -37t22 -19z" />
    <glyph glyph-name="afii10080" unicode="&#x43e;" horiz-adv-x="441" 
d="M418 231v-13q0 -92 -62 -160q-61 -67 -142 -67q-84 0 -143 67q-56 64 -55 148v12q1 92 62 160q61 67 143 67q45 0 89 -21q110 -53 108 -193zM383 178q0 80 -63 142t-144 62q-51 0 -86 -32q-36 -34 -36 -84q0 -79 68 -143t146 -64q50 0 82.5 34.5t32.5 84.5z" />
    <glyph glyph-name="afii10081" unicode="&#x43f;" horiz-adv-x="457" 
d="M433 3q0 -2 -6 -2h-143q-5 0 -5 3q0 2 18.5 17t17.5 34v3l-20 294q-4 63 -80 63t-77 -63l-10 -295q-1 -22 18.5 -36.5t19.5 -16.5q0 -3 -5 -3h-143q-5 0 -5 2q0 3 20.5 19t21.5 36l11 320q0 12 -10 26t-23 21q-7 3 -7 7q0 5 6 5h366q5 0 5 -5q0 -4 -5 -7q-32 -16 -32 -46
v-3l21 -318q2 -21 24 -37t22 -18z" />
    <glyph glyph-name="afii10082" unicode="&#x440;" horiz-adv-x="429" 
d="M408 282q0 -172 -178 -282q-21 -13 -88 -42l-16 -8v-82q0 -20 20 -36.5t20 -17.5q0 -4 -4 -4h-144q-4 0 -4 4t6 8q14 8 22 18q12 14 12 49v14v15q-36 -15 -40 -15q-10 0 -10 10q0 7 50 29v396q0 26 -14 44q-2 1 -15 10q-11 8 -11 11q0 7 4 10q22 6 53 16q23 9 41 23
q3 2 9 7q5 -2 5 -7v-31.5v-32.5q17 5 71 32q42 22 75 22q62 0 101 -49q35 -46 35 -111zM326 250q0 42 -21 77.5t-56 54.5q-18 8 -35 8q-40 0 -88 -24v-393q23 9 36 15q68 38 116 111q48 75 48 151z" />
    <glyph glyph-name="afii10083" unicode="&#x441;" horiz-adv-x="386" 
d="M367 85q0 -15 -33 -40q-23 -19 -46 -31q-38 -21 -84 -21q-84 0 -138 73q-49 68 -49 155q0 93 51 156q55 69 145 69q35 0 61 -24q29 -24 29 -59q0 -46 -47 -46q-52 0 -52 62q0 31 -44 31q-24 0 -45 -20q-41 -37 -41 -116q0 -100 57 -160q55 -57 118 -57q47 0 102 33
q7 4 11 4q5 0 5 -9z" />
    <glyph glyph-name="afii10084" unicode="&#x442;" horiz-adv-x="382" 
d="M377 319q0 -4 -4 -4q-8 0 -21 26q-18 33 -30 47q-24 26 -56 26q-36 0 -36 -47v-310q0 -21 20 -37t20 -17q0 -3 -4 -3h-144q-4 0 -4 2t20 18t20 37v310q0 47 -36 47q-35 0 -55 -20q-11 -12 -24 -33q-9 -18 -20 -36q-6 -10 -12 -10q-5 0 -5 5q0 3 6 21q6 19 6 23q4 18 7 58
q2 36 9 36q2 0 21 -7q21 -8 26 -9q22 -5 50 -5h121q29 0 50 5q5 1 26 9q18 7 21 7q8 0 9 -39q2 -34 7 -57q1 -4 6 -22q6 -17 6 -21z" />
    <glyph glyph-name="afii10085" unicode="&#x443;" horiz-adv-x="415" 
d="M391 334q0 -142 -49 -274q-56 -156 -159 -222q-41 -28 -95 -28q-32 0 -44 17q-10 14 -10 28q0 15 18 27q15 10 32 10q4 0 10 -1q40 -6 56 -6q72 0 130 98q-106 55 -154 144q-45 83 -62 170q-15 84 -43 92q-10 3 -10 6t4 5q17 4 51 16q24 9 56 26l22 11l3 1q4 0 4 -5
q0 -1 -3 -7q-14 -28 -14 -80q0 -56 20 -121q21 -67 54 -110q26 -35 103 -85q20 45 33 111q13 63 13 115q0 34 -8 62q-12 44 -15 54q-11 30 -24 50q-12 18 -38 44q-20 20 -20 41q0 19 13 33t33 14q19 0 37 -20q56 -64 56 -216z" />
    <glyph glyph-name="afii10086" unicode="&#x444;" horiz-adv-x="474" 
d="M452 211q0 -65 -62 -109q-52 -36 -122 -44v-1q0 -20 21 -36t21 -18q0 -3 -6 -3h-142q-6 0 -6 3q0 1 20 17t20 39q-70 9 -122 48q-60 46 -60 111q0 64 61 108q51 37 121 45v5q0 28 -34 49q-6 4 -6 9q0 3 6 3h142q6 0 6 -4q0 -1 -21 -18t-21 -43q118 -11 165 -90
q19 -34 19 -71zM381 194q0 54 -31 97t-82 59v-274q50 2 81.5 35t31.5 83zM196 90v266q-47 -6 -78 -34q-33 -31 -33 -76q0 -49 32 -94q32 -42 79 -62z" />
    <glyph glyph-name="afii10087" unicode="&#x445;" horiz-adv-x="441" 
d="M437 2q0 -2 -5 -2h-182q-9 0 -9 6q0 3 21 17.5t21 28.5q0 6 -3 11l-79 129q-51 -54 -51 -129q0 -20 4 -31q4 -10 16 -18q12 -7 12 -11q0 -3 -5 -3h-163q-5 0 -5 3q0 5 7 9q48 27 150 165q11 13 28 27q-35 56 -69 109q-43 68 -85 85q-14 5 -14 13q0 3 5 3q31 13 36 16
q20 9 34 20q4 4 13 12q3 2 12 2q3 0 8.5 -16t36.5 -67l80 -131q27 29 37 68q5 31 10 61q6 37 28 51q19 12 38 12q20 0 36.5 -14t16.5 -34q0 -28 -32 -59q-12 -11 -55 -42l-72 -53l108 -177q24 -38 57 -51q14 -6 14 -10z" />
    <glyph glyph-name="afii10088" unicode="&#x446;" horiz-adv-x="493" 
d="M509 -94q0 -7 -7 -7q-6 0 -11 13q-6 18 -7 19q-2 3 -14 19q-36 50 -100 50h-353q-6 0 -6 2q0 5 7 10q41 22 43 54l16 312q1 29 -31 46q-7 4 -7 8q0 5 6 5h142q5 0 5 -3q0 -6 -7 -10q-35 -18 -36 -48l-15 -301q0 -31 28.5 -45t58.5 -14q33 0 59 13q34 16 33 45l-9 302
q-1 30 -36 48q-7 4 -7 8q0 5 5 5h142q6 0 6 -5q0 -1 -18.5 -17t-18.5 -37v-2l8 -302q1 -19 17 -35.5t36 -16.5q12 0 26.5 16t16.5 16q9 0 9 -41q0 -37 11 -73q8 -25 8 -34z" />
    <glyph glyph-name="afii10089" unicode="&#x447;" horiz-adv-x="405" 
d="M382 3q0 -3 -5 -3h-143q-4 0 -4 3q0 2 19.5 18t19.5 37v124q-90 -12 -95 -12q-103 0 -136 38q-14 18 -14 38v7l18 123v6q0 20 -16 34.5t-16 15.5q0 5 7 5h141q6 0 6 -3q0 -5 -8 -9q-37 -18 -42 -49q-15 -92 -15 -118q0 -8 1 -13q2 -23 25 -37q20 -13 44 -13q53 0 100 11
v170q0 31 -34 49q-6 3 -6 7q0 5 5 5h143q5 0 5 -3q0 -6 -7 -9q-33 -19 -33 -49v-318q0 -20 20 -36.5t20 -18.5z" />
    <glyph glyph-name="afii10090" unicode="&#x448;" horiz-adv-x="707" 
d="M671 2q0 -2 -5 -2h-645q-6 0 -6 2t22 18.5t23 37.5l21 320q1 29 -31 46q-7 4 -7 8q0 5 6 5h142q5 0 5 -3q0 -6 -7 -10q-35 -18 -36 -48l-19 -302v-7q0 -51 82 -51q34 0 58 13q32 16 32 47v300q0 30 -34 48q-6 4 -6 8q0 5 5 5h143q4 0 4 -3q0 -6 -6 -10q-34 -18 -34 -48
v-298q0 -62 83 -62q32 0 58 12q35 16 34 44v2l-20 302q-3 30 -36 48q-8 4 -8 10q0 3 5 3h142q6 0 6 -5q0 -1 -19 -16.5t-18 -37.5v-2l21 -318q2 -22 23.5 -37.5t21.5 -18.5z" />
    <glyph glyph-name="afii10091" unicode="&#x449;" horiz-adv-x="734" 
d="M758 -94q0 -7 -6 -7q-3 0 -6 4q-1 1 -10 15q-29 44 -50 60q-28 22 -75 22h-589q-6 0 -6 2t22 18.5t23 37.5l21 321q0 20 -19 36.5l-19 16.5q0 5 6 5h142q5 0 5 -3q0 -5 -7 -9q-35 -19 -36 -49l-20 -302v-7q0 -51 83 -51q34 0 58 13q31 16 31 47v300q0 31 -33 49
q-7 3 -7 7q0 5 6 5h142q5 0 5 -3q0 -6 -6 -9q-34 -19 -34 -49v-298q0 -62 83 -62q32 0 59 12q33 16 33 44v2l-20 302q-2 22 -23 39t-21 19.5t5 2.5h143q5 0 5 -3q0 -6 -6 -9q-32 -19 -31 -46v-3l20 -302q3 -40 33 -55q15 -7 23 -7q18 0 31.5 21t19.5 21t6 -41q0 -37 11 -73
q8 -24 8 -34z" />
    <glyph glyph-name="afii10092" unicode="&#x44a;" horiz-adv-x="477" 
d="M450 106q0 -10 -3 -21q-14 -55 -62 -73q-31 -12 -100 -12h-199q-6 0 -6 3q0 2 20 18.5t20 36.5v317q0 29 -18 29q-22 0 -43 -24q-9 -12 -29 -46q-14 -24 -20 -24q-5 0 -5 4t3 10q12 35 13 59q1 22 5 63q2 8 7 8q2 0 18 -7q19 -7 21 -8q11 -3 32 -3h124q6 0 6 -4
q0 -1 -21 -17.5t-21 -39.5v-298q0 -64 70 -64q72 0 94 49q10 23 10 48q0 51 -37 78q-35 20 -71 39q-37 23 -37 63q0 55 41 55q24 0 24 -23q0 -26 -26 -37q-10 -4 -10 -19q0 -8 7 -17q12 -19 53 -32q65 -21 75 -26q42 -20 59 -54q6 -14 6 -31z" />
    <glyph glyph-name="afii10093" unicode="&#x44b;" horiz-adv-x="581" 
d="M550 2q0 -2 -5 -2h-143q-5 0 -5 3q0 2 20 18t20 37v318q0 32 -34 49q-6 3 -6 8q0 4 5 4h143q5 0 5 -3q0 -6 -7 -9q-34 -18 -34 -49v-318q0 -21 20.5 -37.5t20.5 -18.5zM383 106q0 -10 -3 -21q-14 -55 -63 -73q-31 -12 -99 -12h-200q-5 0 -5 3q0 2 19.5 18.5t19.5 36.5
v318q0 30 -33 49q-6 4 -6 9q0 3 5 3h143q5 0 5 -3q0 -5 -7 -9q-34 -20 -34 -49v-299q0 -64 69 -64q46 0 68 15q37 27 37 82q0 51 -37 79q-36 19 -71 38q-37 23 -37 63q0 55 40 55q25 0 25 -23q0 -25 -26 -37q-10 -4 -10 -19q0 -25 43 -43q32 -10 65 -21q92 -32 92 -96z" />
    <glyph glyph-name="afii10094" unicode="&#x44c;" horiz-adv-x="411" 
d="M387 106q0 -9 -3 -21q-14 -55 -62 -73q-32 -12 -100 -12h-200q-5 0 -5 4q0 1 20 17t20 37v318q0 30 -34 49q-6 4 -6 9q0 3 5 3h143q5 0 5 -3q0 -5 -6 -9q-34 -20 -34 -49v-298q0 -65 69 -65q46 0 67 16q37 27 37 81q0 52 -37 79q-36 19 -71 38q-37 23 -37 64q0 54 40 54
q25 0 25 -23q0 -25 -26 -37q-10 -4 -10 -19q0 -7 7 -17q12 -18 53 -31q64 -21 75 -26q42 -20 59 -54q6 -15 6 -32z" />
    <glyph glyph-name="afii10095" unicode="&#x44d;" horiz-adv-x="426" 
d="M402 234q0 -36 -6 -65q-18 -75 -79 -127q-62 -52 -139 -52q-51 0 -96 28q-49 31 -58 78q-4 21 -4 38q0 29 14 48q16 22 43 22q20 0 33 -10q16 -12 16 -32q0 -32 -38 -64q-8 -7 -8 -28q0 -28 34 -44q28 -15 60 -15q14 0 32 4q44 10 68 35q44 51 44 156q0 19 -1 26h-178
q-3 0 -3 21q0 13 3 13h175q-8 44 -28 73q-53 83 -122 83q-40 0 -69 -20q-18 -12 -36 -38q-14 -20 -19 -20t-5 3t3 9q13 27 17 46q3 16 11 49q1 6 4 6q48 -23 66 -23q10 0 26 4q23 6 25 7q21 4 55 4q42 0 80 -28q80 -62 80 -187z" />
    <glyph glyph-name="afii10096" unicode="&#x44e;" horiz-adv-x="638" 
d="M606 233v-15q0 -92 -63 -160q-60 -66 -141 -66q-85 0 -144 67q-55 65 -55 151l1 12h-76v-164q0 -21 21 -37t21 -18q0 -3 -6 -3h-142q-6 0 -6 3q0 2 20 18t20 37v318q0 28 -34 49q-5 4 -5 9q0 3 5 3h142q6 0 6 -3t-21 -19.5t-21 -38.5v-132h78q10 82 64 139q59 63 139 63
q46 0 89 -21q111 -54 108 -192zM571 178q0 80 -63.5 142t-144.5 62q-50 0 -85 -32q-36 -33 -36 -84q0 -77 68 -142t146 -65q50 0 82 35q33 34 33 84z" />
    <glyph glyph-name="afii10097" unicode="&#x44f;" horiz-adv-x="437" 
d="M414 3q0 -3 -6 -3h-142q-6 0 -6 3q0 2 20 18t20 37v131q-50 5 -60 5q-26 0 -54 -92q-16 -60 -32 -119q-19 -63 -76 -128q-40 -45 -88 -45q-8 0 -9 4q1 1 2 3q24 21 43 61t25 64q14 47 26 94q18 62 38 98q27 49 65 67q-110 18 -146 79q-17 30 -17 57q0 17 6 32
q30 78 160 78q79 0 146 -24q29 -10 78 -18q7 -2 7 -5q0 -5 -8 -9q-33 -20 -33 -50v-283q0 -21 20.5 -37t20.5 -18zM300 211v185q0 22 -84 22q-40 0 -72.5 -30t-32.5 -70q0 -54 49 -83q40 -24 98 -24q44 0 42 0z" />
    <glyph glyph-name="afii10071" unicode="&#x451;" horiz-adv-x="358" 
d="M338 332q0 -7 -5 -10l-223 -154q30 -62 93 -103q31 -22 70 -22q20 0 47 7h7q5 0 5 -3q0 -7 -12 -16q-47 -39 -112 -39q-85 0 -138 74q-50 68 -50 155q0 93 46 154q51 70 139 70q43 0 79 -35q54 -49 54 -78zM244 340q0 32 -19 51.5t-51 19.5q-47 0 -72 -41
q-19 -32 -19 -83t19 -99q37 26 75 53q45 34 61 65q6 14 6 34zM304 542q0 -17 -12 -29.5t-30 -12.5q-17 0 -29 12t-12 30q0 17 12.5 29.5t28.5 12.5q18 0 30 -12.5t12 -29.5zM159 542q0 -17 -12 -29.5t-30 -12.5q-17 0 -29.5 12t-12.5 30q0 17 12.5 29.5t29.5 12.5
t29.5 -12.5t12.5 -29.5z" />
    <glyph glyph-name="afii10110" unicode="&#x45e;" horiz-adv-x="415" 
d="M396 417v-3q0 -14 -2 -93q0 -16 -2 -47l-11 -76q-19 -126 -57 -204q-47 -95 -141 -156q-41 -28 -95 -28t-54 45q0 16 18 27q15 10 32 10q10 0 32 -3.5t34 -3.5q72 0 130 98q-106 55 -154 144q-44 81 -62 170q-6 33 -13 52q-13 34 -30 40q-10 3 -10 6t4 5q18 5 51 16
q4 1 81 38q4 0 4 -5q0 -1 -3 -7q-14 -28 -14 -80q0 -56 20 -121q21 -67 54 -110q26 -34 103 -85q21 48 36 125q6 34 6 33v41l-23 59q-13 9 -20 50q-6 32 -6 58q0 22 13 38t34 16q22 0 34 -14t11 -35zM344 550q0 -19 -11 -32t-27.5 -21t-35.5 -11.5t-35 -3.5q-52 0 -78 19.5
t-26 49.5q0 14 9 31q12 18 26 18q11 0 20 -8t9 -19t-9.5 -23.5t-9.5 -19.5q0 -28 63 -28q61 0 61 28q0 8 -9.5 19.5t-9.5 22.5t8.5 19.5t19.5 8.5q15 0 26 -18q9 -17 9 -32z" />
    <glyph glyph-name="afii10062" unicode="&#x40e;" horiz-adv-x="500" 
d="M390 781q0 -41 -49 -60q-35 -13 -83 -13q-128 0 -128 73q0 20 12 39q14 21 34 21q12 0 21.5 -10t9.5 -23q0 -12 -12 -27.5t-12 -24.5q0 -19 32 -27q21 -7 47 -7q74 0 74 33q0 10 -11.5 25t-11.5 28t9.5 23t21.5 10q20 0 34 -21q12 -19 12 -39zM474 519q0 -73 -17 -161
q-19 -95 -47 -156q-21 -43 -56 -91q-91 -128 -214 -128q-13 0 -55 7q-67 11 -67 54q0 25 16 39q16 15 41 15q12 0 47 -17q56 -27 91 -27q70 0 125 84q-60 33 -104 74q-118 106 -174 357q-6 24 -17.5 40.5t-28.5 26.5q-8 5 -8 6q0 6 8 6h182q7 0 7 -6q0 -1 -9 -6
q-36 -22 -36 -69q0 -40 16 -81q68 -181 204 -269q40 94 40 158q0 92 -48 183q-9 18 -20 36q-11 22 -11 37q0 22 14.5 38t36.5 16q15 0 32 -11q52 -37 52 -155z" />
    <glyph glyph-name="afii10104" unicode="&#x457;" horiz-adv-x="200" 
d="M178 527q0 -33 -32 -33q-34 0 -34 33q0 34 34 34q32 0 32 -34zM73 527q0 -33 -34 -33q-33 0 -33 33q0 34 33 34q34 0 34 -34zM166 2q0 -2 -5 -2h-143q-5 0 -5 3q0 2 19.5 17.5t19.5 37.5v318q0 31 -33 48q-6 4 -6 8q0 5 5 5h143q5 0 5 -3q0 -6 -7 -10q-34 -17 -34 -48
v-318q0 -22 20.5 -38t20.5 -18z" />
    <glyph glyph-name="afii10056" unicode="&#x407;" horiz-adv-x="248" 
d="M210 6q0 -6 -8 -6h-182q-7 0 -7 6q0 1 9 6q18 10 31 31t13 41v479q0 23 -14.5 43.5t-29.5 28.5q-9 5 -9 7q0 5 7 5h182q8 0 8 -5q0 -2 -8 -7q-17 -9 -31 -29q-15 -20 -15 -43v-479q0 -45 46 -72q3 -2 8 -6zM228 767q0 -17 -12 -29.5t-30 -12.5q-17 0 -29 12t-12 30
q0 17 12.5 29.5t28.5 12.5q18 0 30 -12.5t12 -29.5zM83 767q0 -17 -12 -29.5t-30 -12.5q-17 0 -29.5 12t-12.5 30q0 17 12.5 29.5t29.5 12.5t29.5 -12.5t12.5 -29.5z" />
    <glyph glyph-name="afii10101" unicode="&#x454;" horiz-adv-x="430" 
d="M20 234q0 125 80 187q38 28 80 28q34 0 55 -4q2 -1 25 -7q16 -4 26 -4q18 0 66 23q3 0 4 -6q8 -33 11 -49q4 -19 17 -46q3 -6 3 -9t-5 -3t-19 20q-18 26 -36 38q-29 20 -69 20q-69 0 -122 -83q-20 -29 -28 -73h175q3 0 3 -13q0 -18 -3 -18h-178q-1 -10 -1 -29
q0 -105 44 -156q24 -25 68 -35q18 -4 32 -4q32 0 60 15q34 16 34 44q0 21 -8 28q-38 32 -38 64q0 20 16 32q13 10 33 10q27 0 43 -22q14 -19 14 -48q0 -17 -4 -38q-9 -47 -58 -78q-45 -28 -96 -28q-77 0 -139 52q-61 52 -79 127q-6 29 -6 65z" />
    <glyph glyph-name="afii10023" unicode="&#x401;" horiz-adv-x="600" 
d="M360 767q0 -17 -12 -29.5t-30 -12.5q-17 0 -29 12t-12 30q0 17 12.5 29.5t28.5 12.5q18 0 30 -12.5t12 -29.5zM215 767q0 -17 -12 -29.5t-30 -12.5q-17 0 -29.5 12t-12.5 30q0 17 12.5 29.5t29.5 12.5t29.5 -12.5t12.5 -29.5zM542 144q-6 -4 -9 -5q2 2 2.5 5t2.5 5l6 -6z
M453 92q20 11 40 22.5t40 24.5q-18 -40 -37.5 -79.5t-37.5 -78.5q-45 14 -76 17.5t-50 0.5h-312q6 7 8.5 11t7.5 11l9 12q9 15 14.5 27.5t5.5 23.5v487q0 23 -13 48.5t-33 48.5h332q40 0 81 14q4 -18 14 -54.5t26 -85.5q-26 19 -49.5 34.5t-37.5 23.5h1q-33 20 -65 29t-62 9
q-64 0 -81 -7q-16 -7 -26 -21.5t-10 -34.5l-1 -174h33t44 -1h67q99 0 168 44v-117q-4 2 -5 3t-9 6q-54 28 -111 28h-185v-282q0 -17 14 -29.5t38 -17.5q10 -2 28.5 -3t44.5 -1q35 0 71.5 10t75.5 29q10 5 19 11t19 11z" />
    <glyph glyph-name="afii10053" unicode="&#x404;" horiz-adv-x="486" 
d="M460 70q0 -16 -25 -41q-28 -28 -61 -39q-27 -8 -71 -8q-121 0 -206 102q-83 101 -83 251q0 104 32 179q70 160 225 160q10 0 28 -4.5t27 -4.5q8 0 20.5 6t19.5 6q2 0 4.5 0.5t3.5 0.5q7 0 12 -29q4 -17 10 -31q3 -6 41 -70q0 -10 -11 -10q-5 0 -9 4q-63 52 -78 63
q-47 32 -93 32q-74 0 -116 -66q-39 -57 -39 -134q0 -32 6 -66h280v-33h-274q16 -74 55 -148q22 -43 64 -77q43 -34 90 -49q37 -12 62 -12q26 0 49.5 14.5t26.5 14.5q10 0 10 -11z" />
    <glyph glyph-name="afii10055" unicode="&#x406;" horiz-adv-x="248" 
d="M155 768q0 -17 -12 -29.5t-29 -12.5q-18 0 -30.5 12t-12.5 30q0 17 12.5 29.5t30.5 12.5q16 0 28.5 -12.5t12.5 -29.5zM210 6q0 -6 -8 -6h-182q-7 0 -7 6q0 1 9 6q18 10 31 31t13 41v479q0 23 -14.5 43.5t-29.5 28.5q-9 5 -9 7q0 5 7 5h182q8 0 8 -5q0 -2 -8 -7
q-17 -9 -31 -29q-15 -20 -15 -43v-479q0 -45 46 -72q3 -2 8 -6z" />
    <glyph glyph-name="afii10103" unicode="&#x456;" horiz-adv-x="200" 
d="M166 2q0 -2 -5 -2h-143q-5 0 -5 3q0 2 19.5 17.5t19.5 37.5v318q0 31 -33 48q-6 4 -6 8q0 5 5 5h143q5 0 5 -3q0 -6 -7 -10q-34 -17 -34 -48v-318q0 -22 20.5 -38t20.5 -18zM135 576q0 -23 -14.5 -37.5t-35.5 -14.5q-20 0 -34 15t-14 38q0 20 15.5 35.5t33.5 15.5
t33.5 -16t15.5 -36z" />
    <glyph glyph-name="afii61352" unicode="&#x2116;" horiz-adv-x="915" 
d="M532 601q0 -15 -17 -64q-21 -58 -25 -79q-12 -54 -12 -239q0 -130 2 -151q1 -16 5 -45l8 -23h-56q-28 43 -81 126q-72 120 -254 408v-35l-2 -243q0 -57 10 -119q8 -56 47 -136h-136q16 52 33 121q2 17 7 123v347q0 7 -50 75h227q-32 -54 -32 -65q0 -28 46 -110
q53 -92 192 -309l-1 147q0 55 -13 161q-10 50 -21 107q-3 32 14 56t47 24q62 0 62 -77zM707 113q-63 0 -104 70q-34 59 -34 126q0 66 39 127q45 69 109 69q53 0 94.5 -48.5t41.5 -101.5q5 -19 5 -41q0 -74 -39 -134q-44 -67 -112 -67zM680 449q-58 0 -58 -88q0 -63 32 -121
q38 -67 94 -67q54 0 54 89q0 57 -34 118q-38 69 -88 69z" />
    <glyph glyph-name="afii10022" unicode="&#x415;" horiz-adv-x="553" 
d="M542 144q-6 -4 -9 -5q2 2 2.5 5t2.5 5l6 -6zM453 92q20 11 40 22.5t40 24.5q-18 -40 -37.5 -79.5t-37.5 -78.5q-45 14 -76 17.5t-50 0.5h-312q6 7 8.5 11t7.5 11l9 12q9 15 14.5 27.5t5.5 23.5v487q0 23 -13 48.5t-33 48.5h332q40 0 81 14q4 -18 14 -54.5t26 -85.5
q-26 19 -49.5 34.5t-37.5 23.5h1q-33 20 -65 29t-62 9q-64 0 -81 -7q-16 -7 -26 -21.5t-10 -34.5l-1 -174h33t44 -1h67q99 0 168 44v-117q-4 2 -5 3t-9 6q-54 28 -111 28h-185v-282q0 -17 14 -29.5t38 -17.5q10 -2 28.5 -3t44.5 -1q35 0 71.5 10t75.5 29q10 5 19 11t19 11z
" />
    <glyph glyph-name="afii10050" unicode="&#x490;" horiz-adv-x="418" 
d="M21 -1l-7 -7l-6 7h13zM220 640q-38 -8 -57.5 -19.5t-19.5 -42.5v-179q1 -34 1.5 -67.5t0.5 -67.5v-174q0 -22 15 -44t49 -45q-51 -1 -94 -1.5t-94 -0.5q5 5 7 7.5t4 4.5h-1q4 4 7.5 8.5t7.5 8.5q18 27 18 62l-1 475q0 60 -43 103l213 1q29 0 62 10t65 29q13 7 34.5 21.5
t50.5 36.5q-16 -49 -26 -85t-14 -54q-11 4 -35 7.5t-52 6t-55 2.5t-43 -3z" />
    <glyph glyph-name="afii10098" unicode="&#x491;" horiz-adv-x="318" 
d="M131 437q9 -1 20 0t21.5 3t18.5 4.5t11 5.5q8 8 19.5 15.5t22.5 19.5q6 4 37 40q4 4 8 4t4 -4q0 -5 -10 -32q-5 -16 -7.5 -24.5t-3.5 -10.5q-4 -20 -6 -35t-4 -25q-1 -7 -7 -7q-3 0 -21 7q-5 2 -15.5 4t-21 3.5t-18.5 3t-9 1.5q-47 0 -47 -41v-311q0 -21 21 -37
q21 -17 21 -18q0 -3 -7 -3h-141q-6 0 -6 3q0 2 19 17q20 17 20 38v318q0 29 -32 49q-7 3 -7 8q0 4 6 4h114z" />
    <glyph glyph-name="afii10017" unicode="&#x410;" horiz-adv-x="603" 
d="M351 379q-8 35 -11 58.5t-10 43.5q-8 23 -16.5 42.5t-21.5 32.5t-32.5 18.5t-48.5 0.5l-38 -196h178zM98 532q0 26 13 49.5t34 41t46 28t48 10.5q64 0 104.5 -34.5t57.5 -97.5q8 -36 18.5 -77.5t23.5 -92t28 -110.5l33 -132q2 -9 8 -22t17 -28q12 -20 26.5 -37t33.5 -30
h-225q29 26 38.5 52t7.5 61q-2 31 -15 87.5t-38 141.5l-190 -1q-6 -24 -12.5 -51.5t-11.5 -55.5t-8.5 -55t-4.5 -49q-3 -56 11 -79q4 -5 18 -20.5t29 -30.5h-174q16 14 27.5 27t19.5 27q9 14 16.5 35t13.5 45q16 67 30.5 126.5t27.5 112.5t24.5 102t21.5 96
q-35 -5 -57.5 -15.5t-39.5 -23.5z" />
    <glyph glyph-name="afii10057" unicode="&#x408;" horiz-adv-x="477" 
d="M417 667q-18 -21 -26 -39.5t-8 -39.5v-444q6 -68 -50 -111q-53 -41 -132 -41q-77 0 -130 35q-55 40 -55 107q0 31 15 57q21 33 52 33q9 0 18 -5t16 -13.5t11 -18.5t4 -20q0 -25 -21 -50q-24 -27 -24 -37q0 -43 52 -59q17 -5 39 -7t45 0q12 2 26 9t25 18q24 29 24 50
l2 495q-6 38 -50 82z" />
    <glyph glyph-name="afii10105" unicode="&#x458;" horiz-adv-x="221" 
d="M145 576q0 -21 -13.5 -34.5t-30.5 -13.5t-30 17t-13 37q0 17 12 33.5t27 16.5h7q13 0 29 -22q12 -17 12 -34zM142 -60q0 -44 -40 -89q-33 -36 -49 -36q-4 -1 -6.5 -1.5l-7.5 -1.5q27 38 31 65q1 5 1 19.5v37.5q-1 96 -1 166v118q0 92 2 92l-10 53q-3 11 -13 24t-24 24
q39 19 66 33t50 26q-1 -10 -0.5 -18t1.5 -28v-484z" />
    <glyph glyph-name="uni0492" unicode="&#x492;" horiz-adv-x="462" 
d="M17 333v34h80v193q0 21 -13.5 41.5t-31.5 31.5q-9 4 -9 5q0 9 7 9h278q49 0 61 11q23 23 31 23q2 0 5.5 -3.5t3.5 -5.5q0 1 -2 -11t-2 -27q0 -37 15 -100q8 -36 8 -56q0 -43 -17 -72q-21 -36 -62 -36q-28 0 -47.5 20.5t-19.5 48.5q0 17 9 29q10 15 25 15q34 0 34 -33
q0 -6 -1.5 -17.5t-1.5 -17.5t1 -9q1 -8 15 -8q46 0 46 68q0 63 -51 108q-49 45 -113 45q-17 0 -33 -3q-19 -5 -32.5 -21t-13.5 -35v-193h116v-34h-116v-248q0 -43 45 -72q6 -4 9 -7q0 -5 -7 -5h-183q-7 0 -7 5q2 3 9 7q45 29 45 72v248h-80z" />
    <glyph glyph-name="uni0493" unicode="&#x493;" horiz-adv-x="335" 
d="M7 238v34h65v104q0 30 -32 49q-7 3 -7 8q0 4 6 4h114q56 0 86 7q4 1 25 9q19 7 21 7q5 0 7 -7q3 -20 10 -60q1 -4 11 -35q10 -28 10 -32t-4 -4t-8 4q-31 36 -37 40q-22 24 -42 35q-16 9 -40 9q-47 0 -47 -41v-97h120v-34h-120v-180q0 -21 21 -37t21 -18q0 -3 -7 -3h-141
q-6 0 -6 3q0 2 19.5 17.5t19.5 37.5v180h-65z" />
    <glyph glyph-name="uni0494" unicode="&#x494;" horiz-adv-x="486" 
d="M421 478q0 -43 -17 -72q-21 -36 -62 -36q-28 0 -47.5 20.5t-19.5 48.5q0 17 9 29q10 15 25 15q34 0 34 -33q0 -6 -1.5 -17.5t-1.5 -17.5q0 -8 1 -9q2 -8 15 -8q46 0 46 68q0 63 -51 108q-50 45 -113 45q-17 0 -33 -3q-19 -5 -32.5 -21t-13.5 -35v-196q50 10 94 -2
q57 -15 98.5 -53.5t66 -92.5t29.5 -108q6 -66 -13.5 -130t-62 -108t-106 -59.5t-144.5 15.5q54 -3 98 21t75.5 64.5t49.5 92t21 102.5q3 48 -9.5 95.5t-41 83t-73.5 51.5q-36 14 -82 8v-259q0 -44 45 -72l6 -5q2 -1 3 -2q0 -5 -7 -5h-183q-7 0 -7 5l3 3q2 2 6 4q45 28 45 72
v475q0 21 -13.5 41.5t-31.5 31.5q-9 4 -9 5q0 9 7 9h278q47 0 61 11q23 23 31 23q2 0 5.5 -3.5t3.5 -5.5q0 1 -2 -11t-2 -27q0 -37 15 -100q8 -40 8 -56z" />
    <glyph glyph-name="uni0495" unicode="&#x495;" horiz-adv-x="335" 
d="M301 326q0 -4 -4 -4t-8 4q-31 36 -37 40q-23 25 -42 35q-17 9 -40 9q-47 0 -47 -41v-105q17 2 33 0q33 -4 59 -20t45.5 -42t31.5 -57q17 -46 18 -98.5t-14.5 -100.5t-47 -84.5t-80.5 -50.5q15 17 28 55t21.5 85.5t10.5 98t-4 92.5q-9 62 -41 87q-23 18 -60 15v-186
q0 -21 21 -37q21 -17 21 -18q0 -3 -7 -3h-141q-6 0 -6 3q0 2 19 17q20 17 20 38v318q0 29 -32 49q-7 3 -7 8q0 4 6 4h114q58 0 86 7q2 1 8 3t17 6q18 7 21 7q6 0 7 -7q2 -10 4 -25t6 -35q1 -2 3.5 -10.5t7.5 -24.5q10 -27 10 -32z" />
    <glyph glyph-name="uni0496" unicode="&#x496;" horiz-adv-x="910" 
d="M813 -11q-36 6 -68.5 27.5t-61 52t-53.5 66.5t-44.5 72t-34.5 69t-23 56q-26 -9 -44 -15t-37 -8v-226q0 -47 45 -72q9 -5 9 -6q0 -6 -7 -6h-183q-8 0 -8 6q0 1 9 6q19 11 32.5 31t13.5 41v226q-19 2 -35.5 8t-42.5 15q-9 -24 -25.5 -60.5t-39.5 -77.5t-51.5 -83
t-60.5 -75t-66.5 -54t-69.5 -20q18 16 39 45t42 65t42.5 77t40.5 80t35 74t27 60q-35 16 -67.5 40.5t-57.5 54.5t-40 66t-15 76q0 66 57 66q22 0 40 -16.5t18 -39.5q0 -18 -3 -27t-6 -17t-6 -18.5t-3 -29.5q0 -27 17 -56t49 -54.5t78 -45.5t104 -29v230q0 20 -13.5 40.5
t-32.5 31.5q-9 4 -9 7q0 5 8 5h183q7 0 7 -5l-5 -3.5t-11.5 -8.5t-13.5 -11.5t-11 -13.5q-13 -22 -13 -42v-230q58 9 104 29t78 45.5t49 54.5t17 56q0 19 -3 29.5t-6 18.5t-6 17t-3 27q0 23 18 39.5t40 16.5q57 0 57 -66q0 -40 -15 -76t-40 -66t-57.5 -54.5t-67.5 -40.5
q6 -9 15.5 -31t23 -52t29.5 -64t34 -67t38.5 -61t41.5 -46q17 -14 34 -18t30.5 -3.5t22.5 2.5t11 0l4 -6q-6 -16 -12 -40t-11 -48.5t-8.5 -47.5t-4.5 -37q0 -2 -2 -2h-2q-11 18 -18 41.5t-11.5 45.5t-7.5 38.5t-6 21.5z" />
    <glyph glyph-name="uni0497" unicode="&#x497;" horiz-adv-x="648" 
d="M668 -21q-7 -14 -12.5 -29t-10 -34t-7.5 -43t-3 -56q-13 13 -21 35.5t-13 45t-7.5 40.5t-4.5 22q-37 6 -63.5 23t-45 40t-30 50t-18.5 52t-10 46t-4 32q-8 -3 -18.5 -6t-22 -5.5t-22 -5t-17.5 -3.5v-126q0 -10 6.5 -19.5t14 -17t14 -12.5l6.5 -5q0 -3 -5 -3h-142
q-6 0 -6 2l6 5t13.5 13t14 17.5t6.5 19.5v126q-14 2 -38 7.5t-39 10.5q-5 -14 -10.5 -37.5t-15 -50.5t-22.5 -55.5t-32.5 -53t-47 -42t-63.5 -23.5h-2q-9 -3 -17.5 -3t-13 3t-2.5 7t13 9q21 4 39 23.5t33 46.5t27 58.5t21.5 61t15.5 53t9 34.5l-32.5 26t-32.5 33t-24.5 43
t-9.5 54q0 25 15.5 44t37.5 19q20 0 33 -14t13 -33q0 -13 -4.5 -24.5t-9.5 -21t-9.5 -18.5t-4.5 -16q0 -24 14.5 -44t38.5 -35.5t55 -26t65 -15.5v172q0 11 -6 21t-14 18q-9 9 -20 17q0 5 6 5h142q5 0 5 -3q0 -6 -6 -10q-35 -20 -35 -48v-172q34 5 65 15.5t55 26t38.5 35.5
t14.5 44q0 7 -4.5 16t-9.5 18.5t-9.5 21t-4.5 24.5q0 19 13 33t33 14q22 0 37.5 -19t15.5 -44q0 -30 -9.5 -54t-24.5 -43t-32.5 -33l-32.5 -26q1 -5 5 -25.5t11.5 -49t19 -60t27.5 -58t36.5 -44t46.5 -17.5q8 1 18.5 1h20.5z" />
    <glyph glyph-name="uni0498" unicode="&#x498;" horiz-adv-x="519" 
d="M240 -68q15 2 25 3.5t15 1.5q30 0 53 -15q10 -8 16 -20.5t6 -29.5q0 -44 -37 -65q-32 -18 -77 -18q-21 0 -39.5 3t-38.5 11q2 7 5 12.5t6 12.5q14 -5 28.5 -7t26.5 -2q67 0 67 44t-57 44q-8 0 -16 -1.5t-17 -3.5l-3 1l35 83h-8q-28 0 -71 9q-49 10 -105 61
q-41 39 -41 104q0 36 14 62q18 31 51 31q25 0 42 -19.5t17 -45.5q0 -29 -23 -51t-23 -45q0 -37 51 -60q40 -18 83 -18q73 0 115 40t42 113q0 123 -99 167q-22 11 -41 11q-9 0 -28 -3.5t-28 -3.5q-8 0 -8 17t8 17q11 0 34.5 -1.5t35.5 -1.5q31 0 44 7q24 14 38 45
q14 28 14 58q0 57 -31 104q-39 59 -109 59q-69 0 -132 -66q-14 -11 -36 -35q-13 -15 -14 -15q-6 0 -6 5q0 3 18 37.5t18 50.5q0 3 -1 9.5t-1 9.5q0 34 12 34q6 0 25 -10t30 -10q6 0 19 3q21 3 61 12q33 9 61 9q52 0 102 -24q56 -27 76 -70q16 -36 16 -68q0 -54 -45 -99
q-41 -41 -97 -53q80 -4 126.5 -50t46.5 -124q0 -60 -26 -96q-39 -52 -105 -80q-47 -20 -99 -24z" />
    <glyph glyph-name="uni0499" unicode="&#x499;" horiz-adv-x="374" 
d="M170 -52q14 2 22.5 3.5t13.5 1.5q28 0 48 -14q9 -8 14.5 -19t5.5 -28q0 -41 -33 -60q-29 -17 -70 -17q-20 0 -36.5 2.5t-34.5 10.5q4 12 10 23q13 -5 26 -6.5t24 -1.5q61 0 61 41t-52 41q-8 0 -15 -1.5t-15 -3.5l-3 1l29 69q-72 2 -111 37q-30 27 -36 61q-4 20 -4 38
q0 28 13 48q15 23 43 23q20 0 34.5 -11.5t14.5 -31.5q0 -32 -37 -64q-9 -7 -9 -27q0 -26 27 -42q23 -13 51 -13q54 0 86.5 29.5t32.5 83.5q0 44 -20 77q-24 40 -64 40q-9 0 -26.5 -2t-25.5 -2q-5 0 -5 15q0 9 3 9q9 0 27 -1t27 -1q28 0 46 20.5t18 49.5q0 24 -10 46
q-11 24 -31 34q-16 9 -41 9q-32 0 -64 -19q-11 -6 -33 -22q-13 -13 -41 -40q-4 -3 -7 -3t-3 3t2 9q14 27 19 49q2 18 11 52q2 6 6 6q47 -24 65 -24q5 0 31 7q35 8 67 8q45 0 78 -24q36 -27 36 -71q0 -41 -37 -68q-31 -24 -74 -31q60 -14 90 -35q41 -30 41 -81
q0 -67 -60 -107q-47 -30 -109 -34z" />
    <glyph glyph-name="uni049A" unicode="&#x49a;" horiz-adv-x="601" 
d="M611 11q-8 -17 -13 -41.5t-9 -49.5t-7 -45t-6 -27q-12 9 -19.5 29t-12 43t-6 44.5t0.5 33.5q-45 7 -82 28t-67.5 50.5t-55 64.5t-43 70t-32 67t-21.5 55q-26 -9 -44 -15t-37 -8v-226q0 -47 45 -72q9 -5 9 -6q0 -6 -7 -6h-183q-8 0 -8 6q0 1 9 6q19 11 32.5 31t13.5 41
v480q0 20 -13.5 40.5t-32.5 31.5q-9 4 -9 7q0 5 8 5h183q7 0 7 -5l-5 -3.5t-11.5 -8.5t-13.5 -11.5t-11 -13.5q-13 -22 -13 -42v-230q58 9 104 29t78 45.5t49 54.5t17 56q0 19 -3 29.5t-6 18.5t-6 17t-3 27q0 23 18 39.5t40 16.5q57 0 57 -66q0 -40 -15 -76t-40 -66
t-57.5 -54.5t-67.5 -40.5q3 -6 13.5 -36.5t28.5 -71.5t42.5 -87t55.5 -83t68 -59t81 -16z" />
    <glyph glyph-name="uni049B" unicode="&#x49b;" horiz-adv-x="444" 
d="M53 375q0 11 -6 21t-14 18q-9 9 -20 17q0 5 6 5h142q5 0 5 -3q0 -6 -6 -10q-35 -20 -35 -48v-172q34 5 65 15.5t55 26t38.5 35.5t14.5 44q0 7 -4.5 16t-9.5 18.5t-9.5 21t-4.5 24.5q0 19 13 33t33 14q22 0 37.5 -19t15.5 -44q0 -30 -9.5 -54t-24.5 -43t-32.5 -33
l-32.5 -26q1 -5 5 -24t12 -45t20.5 -55t28.5 -53t37 -40t47 -16q8 1 15 1h17q-7 -14 -12.5 -29t-9.5 -34t-6.5 -43t-2.5 -56q-16 13 -24 36t-11.5 45.5t-4 40t-0.5 21.5q-55 9 -88.5 38t-52.5 64.5t-26.5 69t-8.5 50.5q-8 -3 -18.5 -6t-22 -5.5t-22 -5t-17.5 -3.5v-126
q0 -10 6.5 -19.5t14 -17t14 -12.5l6.5 -5q0 -3 -5 -3h-142q-6 0 -6 2l6 5t13.5 13t14 17.5t6.5 19.5v126v192z" />
    <glyph glyph-name="uni049C" unicode="&#x49c;" horiz-adv-x="609" 
d="M199 469h30v-109q78 27 129 77q16 17 27.5 44t11.5 50q0 6 -2 14q-9 39 -9 64q0 26 18 45.5t45 19.5q55 0 55 -78q0 -51 -44 -111q-38 -51 -88 -84q-31 -20 -72 -40q66 -19 121 -118q32 -57 68 -165q26 -77 49 -126q13 -28 37 -62q3 -2 3 -4q0 -4 -9 -4q-14 0 -49 17
q-30 15 -46 27q-76 57 -116 210q-22 85 -35 115q-29 70 -72 89q-11 -5 -22 -9v-128h-30v119q-22 -5 -41 -8v-229q0 -23 15 -44q12 -18 29 -29q9 -5 9 -6q0 -6 -7 -6h-183q-7 0 -7 6q0 1 9 6q16 10 30 29q15 21 15 44v478q0 21 -13 42t-32 31q-9 5 -9 6q0 6 7 6h183q7 0 7 -6
q0 -1 -9 -6q-16 -10 -29 -29q-15 -21 -15 -44v-221q21 4 41 9v118z" />
    <glyph glyph-name="uni049D" unicode="&#x49d;" horiz-adv-x="411" 
d="M155 305h30v-107q43 13 74 39q40 33 40 71q0 15 -14.5 42.5t-14.5 53.5q0 20 13.5 33.5t32.5 13.5q23 0 38 -20q14 -18 14 -43q0 -45 -28 -93q-27 -46 -66 -71q-19 -12 -42 -23q14 -5 27 -19q15 -15 27 -30q24 -29 49 -102q19 -55 36 -111q12 -35 32 -65q22 -32 56 -57
q2 -1 3 -3q-2 -4 -10 -4q-46 0 -90 33q-35 25 -54 54q-20 31 -45 125q-9 32 -26 96q-7 26 -20 41q-16 18 -32 23v-108h-30v100q-15 -4 -29 -6v-111q0 -20 20 -36t20 -19q0 -2 -4 -2h-143q-5 0 -5 2t19.5 18t19.5 37v318q0 29 -33 48q-6 4 -6 10q0 3 5 3h143q4 0 4 -3
q0 -6 -6 -10q-34 -19 -34 -48v-189q15 2 29 4v115z" />
    <glyph glyph-name="uni04A0" unicode="&#x4a0;" horiz-adv-x="761" 
d="M267 562q0 19 -13.5 35t-32.5 21q-16 3 -32 3q-64 0 -113 -45q-51 -45 -51 -108q0 -68 46 -68q14 0 15 8q1 3 1 9t-1.5 17.5t-1.5 17.5q0 33 34 33q15 0 25 -15q9 -12 9 -29q0 -28 -19.5 -48.5t-47.5 -20.5q-41 0 -62 36q-17 29 -17 72q0 20 8 56q15 63 15 100
q0 15 -2 27t-2 11q0 2 3.5 5.5t5.5 3.5q8 0 31 -23q12 -11 61 -11h277q7 0 7 -9q0 -1 -9 -5q-18 -11 -31.5 -31.5t-13.5 -41.5v-220q128 24 200 95q16 17 27.5 44t11.5 50q0 6 -2 14q-9 39 -9 64q0 26 18 45.5t45 19.5q55 0 55 -78q0 -51 -44 -111q-38 -51 -88 -84
q-31 -20 -72 -40q66 -19 121 -118q32 -57 68 -165q26 -77 49 -126q13 -28 37 -62q3 -2 3 -4q0 -4 -9 -4q-14 0 -49 17q-30 15 -46 27q-76 57 -116 210q-22 85 -35 115q-29 70 -72 89q-51 -20 -93 -26v-229q0 -23 15 -44q12 -18 29 -29q9 -5 9 -6q0 -6 -7 -6h-183q-7 0 -7 6
q0 1 9 6q16 10 30 29q15 21 15 44v477h1z" />
    <glyph glyph-name="uni04A1" unicode="&#x4a1;" horiz-adv-x="545" 
d="M179 368q0 41 -47 41q-24 0 -40 -9q-20 -11 -42 -35q-6 -4 -37 -40q-4 -4 -8 -4t-4 4t10 32q10 31 11 35q7 40 10 60q2 7 7 7q2 0 21 -7q21 -8 25 -9q30 -7 86 -7h114q6 0 6 -4q0 -5 -7 -8q-32 -19 -32 -49v-189q30 4 57 12q44 13 76 39q40 33 40 71q0 15 -14.5 42.5
t-14.5 53.5q0 20 13.5 33.5t32.5 13.5q23 0 38 -20q14 -18 14 -43q0 -45 -28 -93q-27 -46 -66 -71q-19 -12 -42 -23q14 -5 27 -19q15 -15 27 -30q24 -29 49 -102q19 -55 36 -111q12 -35 32 -65q22 -32 56 -57q2 -1 3 -3q-2 -4 -10 -4q-46 0 -90 33q-35 25 -54 54
q-20 31 -45 125q-9 32 -26 96q-7 26 -20 41q-16 19 -33 24q-30 -10 -58 -15v-111q0 -20 20 -36t20 -19q0 -2 -4 -2h-143q-5 0 -5 2t19.5 18t19.5 37v318v-7z" />
    <glyph glyph-name="uni04A2" unicode="&#x4a2;" horiz-adv-x="712" 
d="M407 0q-7 0 -7 6q0 1 8 6q14 7 28 29q14 21 13 37v6l-19 278h-249l-22 -283q-2 -41 40 -67q4 -2 8 -6q-2 -6 -7 -6h-183q-7 0 -7 6q0 1 8 6q20 10 35 31t17 41l36 479v7q0 18 -12 37.5t-28 28.5q-8 5 -8 6q0 6 8 6h184q5 0 5 -6q0 -1 -8 -6q-20 -10 -34.5 -31t-16.5 -42
l-13 -168h245l-11 168q-2 20 -17 43q-13 19 -34 30q-8 5 -8 6q0 6 7 6h183q6 0 6 -6q0 -2 -7 -6q-16 -10 -28.5 -28.5t-12.5 -37.5v-7l27 -438q0 -18 6 -37q7 -29 30 -48q22 -22 51 -22q25 0 43 20t16 20h2l4 -4q1 -60 21 -125q3 -14 5 -21t2 -9.5t-1 -2.5h-4t-31 27
q-34 32 -62 50q-44 27 -82 27h-126z" />
    <glyph glyph-name="uni04A3" unicode="&#x4a3;" horiz-adv-x="508" 
d="M373 0h-87q-5 0 -5 3q0 2 18.5 17t17.5 34v4l-11 167h-171q-5 -168 -5 -169q0 -21 19 -36t19 -17q0 -3 -6 -3h-142q-6 0 -6 2t21.5 18.5t22.5 37.5l9 320q1 29 -33 47q-5 3 -5 8q0 4 5 4h142q6 0 6 -3q0 -6 -8 -9q-33 -17 -34 -49l-4 -129h168l-9 129q-1 32 -36 49
q-7 3 -7 9q0 3 6 3h142q5 0 5 -4q0 -1 -19 -17t-18 -37v-3l20 -302q1 -19 17 -35.5t36 -16.5q12 0 26.5 16t16.5 16q9 0 9 -41q0 -37 11 -73q8 -25 8 -34q0 -7 -7 -7q-6 0 -11 13q-6 18 -7 19q-2 3 -14 19q-36 50 -100 50z" />
    <glyph glyph-name="uni04A4" unicode="&#x4a4;" horiz-adv-x="789" 
d="M506 563l32 -479q1 -21 16 -42q15 -20 34 -30q10 -5 10 -6q0 -6 -8 -6h-183q-7 0 -7 6q0 1 8 6q15 8 28 29q14 19 13 37v6l-19 278h-249l-22 -283q-1 -41 40 -67q3 -2 8 -6q-1 -6 -7 -6h-183q-7 0 -7 6q0 1 8 6q20 10 35 31t17 41l36 479v7q0 18 -12 37.5t-28 28.5
q-8 5 -8 6q0 6 8 6h184q5 0 5 -6q0 -1 -8 -6q-20 -10 -34.5 -31t-16.5 -42l-13 -168h245l-11 168q0 21 -13.5 41.5t-31.5 31.5q-9 4 -9 5q0 9 7 9h278q49 0 61 11q23 23 31 23q2 0 5.5 -3.5t3.5 -5.5q0 1 -2 -11t-2 -27q0 -37 15 -100q8 -36 8 -56q0 -43 -17 -72
q-21 -36 -62 -36q-28 0 -47.5 20.5t-19.5 48.5q0 17 9 29q10 15 25 15q34 0 34 -33q0 -6 -1.5 -17.5t-1.5 -17.5t1 -9q1 -8 15 -8q46 0 46 68q0 63 -51 108q-49 45 -113 45q-17 0 -33 -3q-19 -5 -32.5 -21t-13.5 -35z" />
    <glyph glyph-name="uni04A5" unicode="&#x4a5;" horiz-adv-x="561" 
d="M368 369l21 -311q1 -21 23 -37t22 -19q0 -2 -5 -2h-143q-5 0 -5 3q0 2 18.5 17t17.5 34v4l-11 167h-171q-5 -168 -5 -169q0 -21 19 -36t19 -17q0 -3 -6 -3h-142q-6 0 -6 2t21.5 18.5t22.5 37.5l9 320q1 29 -33 47q-5 3 -5 8q0 4 5 4h142q6 0 6 -3q0 -6 -8 -9
q-33 -17 -34 -49l-4 -129h168l-9 129q0 30 -32 49q-7 3 -7 8q0 4 6 4h114q56 0 86 7q4 1 25 9q19 7 21 7q5 0 7 -7q3 -20 10 -60q1 -4 11 -35q10 -28 10 -32t-4 -4t-8 4q-31 36 -37 40q-22 24 -42 35q-16 9 -40 9q-47 0 -47 -41z" />
    <glyph glyph-name="uni04AA" unicode="&#x4aa;" horiz-adv-x="486" 
d="M240 -68q15 2 25 3.5t15 1.5q30 0 53 -15q10 -8 16 -20.5t6 -29.5q0 -44 -37 -65q-32 -18 -77 -18q-21 0 -39.5 3t-38.5 11q2 7 5 12.5t6 12.5q14 -5 28.5 -7t26.5 -2q67 0 67 44t-57 44q-8 0 -16 -1.5t-17 -3.5l-3 1l37 87q-81 19 -143 94q-83 101 -83 251q0 104 32 179
q70 160 225 160q10 0 28 -4.5t27 -4.5q8 0 20.5 6t19.5 6q2 0 4.5 0.5t3.5 0.5q7 0 12 -29q4 -17 10 -31q3 -6 41 -70q0 -10 -11 -10q-5 0 -9 4q-63 52 -78 63q-47 32 -93 32q-74 0 -116 -66q-39 -57 -39 -134q0 -119 67 -247q22 -43 64 -77q43 -34 90 -49q37 -12 62 -12
q26 0 49.5 14.5t26.5 14.5q10 0 10 -11q0 -16 -25 -41q-28 -28 -61 -39q-27 -8 -71 -8q-22 0 -43 3z" />
    <glyph glyph-name="uni04AB" unicode="&#x4ab;" horiz-adv-x="386" 
d="M170 -52q14 2 22.5 3.5t13.5 1.5q28 0 48 -14q9 -8 14.5 -19t5.5 -28q0 -41 -33 -60q-29 -17 -70 -17q-20 0 -36.5 2.5t-34.5 10.5q4 12 10 23q13 -5 26 -6.5t24 -1.5q61 0 61 41t-52 41q-8 0 -15 -1.5t-15 -3.5l-3 1l32 76q-60 12 -102 69q-49 68 -49 155q0 93 51 156
q55 69 145 69q35 0 61 -24q29 -24 29 -59q0 -46 -47 -46q-52 0 -52 62q0 31 -44 31q-24 0 -45 -20q-41 -37 -41 -116q0 -100 57 -160q55 -57 118 -57q47 0 102 33q7 4 11 4q5 0 5 -9q0 -15 -33 -40q-23 -19 -46 -31q-38 -21 -84 -21q-9 0 -17 1z" />
    <glyph glyph-name="uni04AE" unicode="&#x4ae;" horiz-adv-x="520" 
d="M353 375q-25 -28 -39 -45.5t-14 -24.5v-215q0 -63 40 -90h-172q23 20 30 37v-1q8 21 8 57v213q-11 21 -24.5 52t-30 67.5t-37 77.5t-44.5 82q-6 10 -12 17t-8 10h1q-9 9 -19.5 18.5t-22.5 19.5h208q-13 -10 -18 -23.5t-5 -31.5q0 -3 6.5 -24t19 -55t30.5 -79t41 -95
q10 11 22 25.5t23.5 31t21.5 33.5t15 33q14 40 18.5 77.5t10.5 66.5t17.5 47t38.5 18q45 0 45 -49q0 -19 -7 -43.5t-24 -56t-46 -69t-73 -81.5z" />
    <glyph glyph-name="uni04AF" unicode="&#x4af;" horiz-adv-x="422" 
d="M168 46q-8 29 -14 50t-11.5 38.5t-10.5 34t-12 37.5q-13 39 -27 82.5t-34 88.5q-5 10 -10.5 17.5t-5.5 10.5h1q-7 10 -15.5 20t-17.5 21h144q-11 -11 -14.5 -25.5t-3.5 -33.5q0 -3 6 -25t18.5 -59t28 -84.5t33.5 -100.5q8 12 20.5 27.5t22.5 33t17.5 35.5t11.5 35
q11 42 14.5 82t7.5 64t13 43t30 19q35 0 35 -52q0 -15 -12 -56t-43 -97q-5 -10 -22 -36t-35 -54.5t-32.5 -52.5t-14.5 -30v-189q0 -32 7 -52.5t22 -31.5h-133q36 34 36 73v167z" />
    <glyph glyph-name="uni04B0" unicode="&#x4b0;" horiz-adv-x="520" 
d="M106 176v34h100v96q-11 21 -24.5 51.5t-30 67.5t-37 78t-44.5 82q-6 10 -12 17t-8 10h1q-9 9 -19.5 18.5t-22.5 19.5h208q-13 -10 -18 -23.5t-5 -31.5q0 -3 6.5 -24t19 -55t30.5 -79t41 -95q7 8 15.5 17.5t16.5 20.5q36 46 50.5 92t22.5 99q3 22 6.5 41t10 33t17 21.5
t28.5 7.5q45 0 45 -49q0 -19 -7 -44t-24 -56t-46 -68.5t-73 -81.5q-25 -28 -39 -45.5t-14 -24.5v-95h91v-34h-91v-86q0 -63 40 -90h-172q22 19 30 37v-1q8 22 8 57v83h-100z" />
    <glyph glyph-name="uni04B1" unicode="&#x4b1;" horiz-adv-x="412" 
d="M71 10v34h97v2q-8 29 -14 50t-11.5 38.5t-10.5 34t-12 37.5q-13 39 -27 82.5t-34 88.5q-5 10 -10.5 17.5t-5.5 10.5h1q-7 10 -15.5 20t-17.5 21h144q-11 -11 -14.5 -25.5t-3.5 -33.5q0 -3 6 -25t18.5 -59t28 -84.5t33.5 -100.5q8 12 20.5 27.5t22.5 33t17.5 35.5t11.5 35
q11 42 14.5 82t7.5 64t13 43t30 19q35 0 35 -52q0 -15 -12 -56t-43 -97q-5 -10 -22 -36t-35 -54.5t-32.5 -52.5t-14.5 -30v-35h102v-34h-102v-120q0 -32 7 -52.5t22 -31.5h-133q36 34 36 73v131h-97z" />
    <glyph glyph-name="uni04B2" unicode="&#x4b2;" horiz-adv-x="652" 
d="M558 18q25 0 43 20t16 20h2l4 -4q1 -60 21 -125q3 -14 5 -21t2 -9.5t-1 -2.5h-4t-31 27q-34 32 -62 50q-44 27 -82 27h-107q-7 0 -7 6q0 1 8 6q8 4 16.5 10.5t11.5 18.5q6 27 0 47t-16 37l-92 170q-16 -23 -30 -49t-27 -54q-34 -71 -34 -109q0 -34 22 -53q13 -8 33 -24
q-5 -6 -12 -6h-225q-6 0 -6 2q0 5 16 15q37 22 78 71q50 60 93 116.5t80 112.5l-149 246q-13 21 -34 44q-21 21 -45 29q-15 4 -15 9q0 3 6 3h214q12 0 12 -6q0 -2 -7 -6q-27 -17 -27 -46q0 -14 7 -27l93 -165q22 32 40 70q8 18 17.5 47t20.5 71q21 88 81 88q62 0 62 -70
q0 -40 -46 -83q-27 -24 -66.5 -61.5t-93.5 -88.5z" />
    <glyph glyph-name="uni04B3" unicode="&#x4b3;" horiz-adv-x="491" 
d="M250 0q-9 0 -9 6q0 3 21 17q21 15 21 29q0 6 -3 11l-79 129q-51 -54 -51 -129q0 -22 4 -31q5 -11 16 -18q12 -8 12 -11t-5 -3h-163q-5 0 -5 3q0 5 7 9q48 27 150 165q5 7 12.5 13.5t15.5 13.5q-17 28 -34.5 55.5t-34.5 53.5q-45 69 -85 85q-14 5 -14 13q0 3 5 3
q34 14 36 16q20 9 34 20l5 5t8 7q4 2 12 2q4 0 8 -16q6 -17 37 -67l80 -131q26 28 37 68q2 16 5 31t5 30q6 38 28 51q19 12 38 12q20 0 36.5 -14t16.5 -34q0 -27 -32 -59q-6 -5 -19.5 -15.5t-35.5 -26.5l-72 -53l108 -177q3 -5 7.5 -11.5t11 -13.5t14.5 -11.5t16 -4.5
q13 0 26 16q15 16 17 16q9 0 9 -41q0 -35 11 -73q8 -27 8 -34t-7 -7t-11 13q-6 18 -7 19q-1 2 -4.5 6.5t-9.5 12.5q-36 50 -100 50h-97z" />
    <glyph glyph-name="uni04B6" unicode="&#x4b6;" horiz-adv-x="575" 
d="M398 124q0 -8 -0.5 -17.5t2.5 -19.5q4 -14 10 -26t17 -22q22 -22 51 -22q25 0 43 20t16 20h2l4 -4q1 -60 21 -125q3 -14 5 -21t2 -9.5t-1 -2.5h-4t-31 27q-34 32 -62 50q-44 27 -82 27h-126q-7 0 -7 6q0 1 8 6q14 7 28 29q14 21 13 37v6l1 213q-54 -22 -119 -22
q-51 0 -93 9q-80 16 -80 92q0 15 2 33l24 169v9q0 22 -21 39.5t-21 16.5q0 5 8 5h178q5 0 5 -5q0 -2 -9 -7q-48 -24 -53 -58l-25 -179q-1 -8 -1 -16q0 -40 29 -62q26 -20 66 -20q48 0 110 25v238q0 20 -13 41.5t-33 30.5q-8 5 -8 7q0 5 7 5h183q7 0 7 -5q0 -2 -9 -7
q-18 -9 -32 -30q-12 -22 -12 -42v-439z" />
    <glyph glyph-name="uni04B7" unicode="&#x4b7;" horiz-adv-x="470" 
d="M341 72q1 -19 17 -35.5t36 -16.5q12 0 26.5 16t16.5 16q9 0 9 -41q0 -37 11 -73q8 -25 8 -34q0 -7 -7 -7q-6 0 -11 13q-6 18 -7 19q-2 3 -14 19q-36 50 -100 50h-87q-5 0 -5 3q0 2 18.5 17t17.5 34v4l-1 126q-90 -12 -95 -12q-103 0 -136 38q-14 18 -14 38v7l18 123v6
q0 20 -16 34.5t-16 15.5q0 5 7 5h141q6 0 6 -3q0 -5 -8 -9q-37 -18 -42 -49q-15 -92 -15 -118q0 -8 1 -13q2 -23 25 -37q20 -13 44 -13q53 0 100 11v170q0 31 -34 49q-6 3 -6 7q0 5 5 5h143q5 0 5 -3q0 -6 -7 -9q-33 -19 -33 -49z" />
    <glyph glyph-name="uni04B8" unicode="&#x4b8;" horiz-adv-x="474" 
d="M199 406h30v-104q36 5 79 23v238q0 20 -13 41.5t-33 30.5q-8 5 -8 7q0 5 7 5h183q7 0 7 -5q0 -2 -9 -7q-18 -9 -32 -30q-12 -22 -12 -42v-479q0 -20 13 -41t31 -31q9 -5 9 -6q0 -6 -7 -6h-183q-7 0 -7 6q0 1 8 6q20 10 33 31t13 41v212q-37 -15 -79 -20v-119h-30v117h-10
q-51 0 -93 9q-80 16 -80 92q0 15 2 33l24 169v9q0 22 -21 39.5t-21 16.5q0 5 8 5h178q5 0 5 -5q0 -2 -9 -7q-48 -24 -53 -58l-25 -179q-1 -8 -1 -16q0 -40 29 -62q26 -20 66 -20h1v106z" />
    <glyph glyph-name="uni04B9" unicode="&#x4b9;" horiz-adv-x="405" 
d="M176 305h30v-109q33 3 63 10v170q0 31 -34 49q-6 3 -6 7q0 5 5 5h143q5 0 5 -3q0 -6 -7 -9q-33 -19 -33 -49v-318q0 -20 20 -36.5t20 -18.5q0 -3 -5 -3h-143q-4 0 -4 3q0 2 19.5 18t19.5 37v124q-40 -6 -63 -9v-99h-30v96h-2q-103 0 -136 38q-14 18 -14 38v7l18 123v6
q0 20 -16 34.5t-16 15.5q0 5 7 5h141q6 0 6 -3q0 -5 -8 -9q-37 -18 -42 -49q-15 -92 -15 -118q0 -8 1 -13q2 -23 25 -37q20 -13 44 -13h7v110z" />
    <glyph glyph-name="uni04BA" unicode="&#x4ba;" horiz-adv-x="486" 
d="M17 640q0 6 7 6h183q7 0 7 -6q0 -1 -8 -6q-20 -10 -33 -31t-13 -41v-162q54 22 119 22q51 0 93 -9q80 -16 80 -92q0 -15 -2 -33l-24 -219v-9q0 -22 21 -39t21 -16q0 -5 -8 -5h-178q-5 0 -5 5q0 1 9 6q48 24 53 58l25 229q1 8 1 16q0 40 -29 62q-26 20 -66 20
q-48 0 -110 -25v-288q0 -20 13 -41.5t33 -30.5q8 -5 8 -6q0 -5 -7 -5h-183q-7 0 -7 5q0 1 9 6q18 9 32 30q12 22 12 42v479q0 20 -13 41t-31 31q-9 5 -9 6z" />
    <glyph glyph-name="uni04BB" unicode="&#x4bb;" horiz-adv-x="448" 
d="M271 0q20 18 31 40t16 51q8 48 12.5 97.5t4.5 101.5q0 108 -87 108q-7 0 -20.5 -3.5t-34.5 -8.5q-48 -12 -59 -24v-260q5 -64 49 -102h-158q37 46 37 102l-1 430q0 39 -5 57q-5 16 -14.5 30t-26.5 25q4 2 15.5 6.5t33.5 12.5l9 3q17 7 31.5 14t27.5 15v-316
q110 80 194 80q48 0 73 -37q10 -17 14.5 -39t2.5 -48q-5 -57 -9.5 -115t-9.5 -115q-1 -16 0.5 -32t7.5 -30v2q3 -9 8.5 -17.5t11.5 -15.5q3 -4 5 -6.5t3 -5.5h-162z" />
    <glyph glyph-name="uni04C0" unicode="&#x4c0;" horiz-adv-x="226" 
d="M188 667q-23 -18 -33 -39t-10 -49v-495q0 -20 12 -44t28 -39h-166q20 16 29 39t9 54v470q0 32 -11 59t-27 44h169z" />
    <glyph glyph-name="uni04C1" unicode="&#x4c1;" horiz-adv-x="857" 
d="M847 -123q0 -5 -9 -5q-13 0 -48 18q-32 16 -45 27q-28 23 -46 49q-32 44 -53 122q-4 14 -20 82q-16 64 -28 92q-24 52 -62 70q-52 -18 -90 -23v-226q0 -46 45 -72q9 -5 9 -6q0 -6 -7 -6h-183q-8 0 -8 6q0 1 9 6q19 11 32.5 31t13.5 41v230q-27 2 -79 13q-22 -9 -40 -30
q-40 -48 -56 -110q-36 -136 -39 -146q-28 -79 -83 -123q-15 -11 -46 -27q-34 -18 -48 -18q-8 0 -8 5q0 2 2 5q23 35 34 61q17 39 43 121q24 78 42 116q29 62 74 106q29 28 35 34q22 19 42 26q-44 20 -85 45q-57 36 -95 92q-40 62 -40 123q0 28 13 46q15 21 42 21
q21 0 40.5 -17t19.5 -38q0 -8 -3 -23l-6 -24q-1 -11 -5 -35q-1 -7 -1 -13q0 -33 21 -69q31 -52 99 -84q57 -28 127 -37v230q0 20 -13.5 40.5t-32.5 31.5q-9 5 -9 7q0 5 8 5h183q7 0 7 -5q0 -2 -9 -7q-19 -11 -32 -30q-13 -22 -13 -42v-230q55 9 108 32q62 25 94 58
q12 12 25 31q21 33 21 64q0 8 -4 18q-5 16 -6 26q0 3 -1 9q0 3 -5 19q-2 12 -2 20q0 23 18 39.5t40 16.5q57 0 57 -66q0 -59 -41 -119q-36 -55 -92 -90q-34 -21 -79 -41q40 -16 81.5 -66t68.5 -111q14 -35 38 -111q23 -75 43 -119q12 -26 35 -61q2 -3 2 -5zM532 771
q0 -43 -49 -62q-33 -13 -83 -13q-128 0 -128 75q0 19 12 39q13 21 34 21q13 0 22 -10t9 -23q0 -6 -3.5 -13t-8 -14.5t-8 -14t-3.5 -10.5q0 -20 31 -27q21 -7 48 -7q74 0 74 33q0 5 -4 11.5t-8.5 13.5t-8 14.5t-3.5 13.5q0 13 9.5 23t21.5 10q20 0 34 -21q12 -20 12 -39z" />
    <glyph glyph-name="uni04C2" unicode="&#x4c2;" horiz-adv-x="622" 
d="M674 -186q-1 -4 -8 -4q-49 0 -94 33q-34 24 -53 54q-18 28 -44 125q-9 32 -25 96q-8 26 -20 41q-16 19 -33 24q-30 -10 -59 -15v-111q0 -21 20.5 -36.5t20.5 -17.5q0 -3 -5 -3h-142q-6 0 -6 2t20 18t20 37v110q-32 5 -64 16q-17 -5 -33 -24q-13 -15 -22 -44
q-6 -24 -13 -49q-11 -43 -22 -87q-15 -53 -34 -82t-54 -54q-44 -33 -90 -33q-8 0 -10 4q1 2 2 3q40 29 57 57q11 16 31 78q26 80 36 105q25 66 50 95q18 22 24 29q15 15 30 20q-116 51 -136 169q-1 10 -1 18q0 24 14 43q15 20 39 20q19 0 32 -13.5t13 -32.5q0 -15 -2 -26
t-15 -34q-12 -20 -12 -37q0 -39 42 -72q33 -26 77 -38q29 -9 61 -12v189q0 23 -20 39t-20 17q0 5 6 5h142q5 0 5 -3q0 -6 -6 -10q-35 -20 -35 -48v-189q30 4 58 12q43 13 75 39q40 32 40 70q0 16 -14 43t-14 54q0 19 13 33t33 14q23 0 38 -20q15 -18 15 -43q0 -44 -28 -91.5
t-68 -72.5q-17 -11 -41 -23q13 -5 26 -19q38 -38 56 -75q11 -21 34 -86q11 -38 23 -75q14 -47 32 -72q21 -32 56 -57q2 -1 2 -3zM403 550q0 -19 -11 -32t-27.5 -21t-35.5 -11.5t-35 -3.5q-52 0 -78 19.5t-26 49.5q0 14 9 31q12 18 26 18q11 0 20 -8t9 -19t-9.5 -23.5
t-9.5 -19.5q0 -28 63 -28q61 0 61 28q0 8 -9.5 19.5t-9.5 22.5t8.5 19.5t19.5 8.5q15 0 26 -18q9 -17 9 -32z" />
    <glyph glyph-name="uni04C3" unicode="&#x4c3;" horiz-adv-x="531" 
d="M300 361q18 -5 47.5 -18.5t58.5 -45.5q43 -47 62.5 -98t20.5 -102q1 -56 -20 -107.5t-58.5 -91.5t-90 -63.5t-115.5 -23.5q-25 0 -26 9q0 6 12 12q3 -1 12 -1q54 0 92.5 23.5t61.5 61.5t32 86.5t4 98.5q-5 47 -20.5 91.5t-42.5 80.5q-19 26 -39.5 42.5t-39.5 24.5
q-55 -20 -93 -26v-229q0 -20 13 -41t31 -32q9 -5 9 -6q0 -6 -7 -6h-183q-7 0 -7 6q0 1 9 6q17 11 31 31t14 42v478q0 21 -13 42t-32 31q-9 4 -9 6q0 6 7 6h183q7 0 7 -6q0 -2 -9 -6q-17 -11 -30.5 -31.5t-13.5 -41.5v-221q46 9 89.5 25.5t76.5 40.5t53 54.5t20 68.5
q0 23 -5.5 43t-5.5 35q0 26 18 45.5t45 19.5q55 0 55 -78q0 -33 -17.5 -67.5t-46 -65.5t-65 -57.5t-75.5 -44.5z" />
    <glyph glyph-name="uni04C4" unicode="&#x4c4;" horiz-adv-x="399" 
d="M184 183q-30 -11 -58 -15v-111q0 -9 6 -18.5t13.5 -17.5t14 -13t6.5 -6q0 -2 -4 -2h-143q-5 0 -5 2l6 5t13.5 13t13.5 17.5t6 19.5v318q0 28 -33 48q-6 4 -6 10q0 3 5 3h143q4 0 4 -3q0 -6 -6 -10q-34 -19 -34 -48v-189q34 5 65.5 16t55.5 27t38 36t14 43q0 7 -4.5 18
t-10 24.5t-10 27.5t-4.5 26q0 20 13.5 33.5t32.5 13.5q21 0 36.5 -18.5t15.5 -44.5q0 -30 -11.5 -58.5t-30 -53t-43 -44t-51.5 -31.5q51 -30 81.5 -71.5t41.5 -86.5t2.5 -90t-35 -81.5t-71 -61t-106.5 -28.5q-21 0 -22 6q-1 2 1.5 7t7.5 8q3 -1 11 -1q47 3 77.5 26
t46.5 57.5t17.5 76.5t-9.5 83t-34.5 78t-56.5 60z" />
    <glyph glyph-name="uni04C7" unicode="&#x4c7;" horiz-adv-x="597" 
d="M543 80q1 -56 -19.5 -107.5t-58 -91.5t-89.5 -63.5t-115 -23.5q-25 0 -26 9q0 6 12 12q3 -1 12 -1q54 0 91.5 22.5t60 60t32 86t6.5 101.5l-19 278h-249l-22 -283q-2 -41 40 -67q4 -2 8 -6q-2 -6 -7 -6h-183q-7 0 -7 6q0 1 8 6q20 10 35 31t17 41l36 479v7q0 18 -12 37.5
t-28 28.5q-8 5 -8 6q0 6 8 6h184q5 0 5 -6q0 -1 -8 -6q-20 -10 -34.5 -31t-16.5 -42l-13 -168h245l-11 168q-2 20 -17 43q-13 19 -34 30q-8 5 -8 6q0 6 7 6h183q6 0 6 -6q0 -2 -7 -6q-16 -10 -28.5 -28.5t-12.5 -37.5v-7z" />
    <glyph glyph-name="uni04C8" unicode="&#x4c8;" horiz-adv-x="438" 
d="M389 58q6 -54 -1.5 -102.5t-31.5 -86t-66 -60.5t-105 -27q-21 0 -22 6q-1 2 1.5 7t7.5 8q2 -1 11 -1q47 3 74.5 27.5t41.5 61t17 80.5t1 87l-11 167h-171q-2 -85 -3.5 -126.5t-1.5 -42.5q0 -21 19 -36t19 -17q0 -3 -6 -3h-142q-6 0 -6 2q0 1 21 18q21 16 23 38l9 320
q2 29 -33 47q-5 3 -5 8q0 4 5 4h142q6 0 6 -3q0 -6 -8 -9q-32 -16 -34 -49l-4 -129h168l-9 129q-2 33 -36 49q-7 3 -7 9q0 3 6 3h142q5 0 5 -4q0 -1 -19 -17t-18 -37v-3z" />
    <glyph glyph-name="uni04CB" unicode="&#x4cb;" horiz-adv-x="500" 
d="M321 296q-53 -22 -119 -22q-51 0 -93 9q-80 17 -80 92q0 8 0.5 16t1.5 17l24 169v9q0 22 -21 39q-21 18 -21 17q0 5 8 5h178q5 0 5 -5q0 -3 -9 -7q-49 -24 -53 -58l-25 -179q-1 -4 -1 -8v-8q0 -39 29 -62q26 -20 66 -20q50 0 110 25v238q0 20 -13 41.5t-33 30.5
q-8 5 -8 7q0 5 7 5h183q7 0 7 -5q0 -3 -9 -7q-19 -9 -32 -30q-12 -23 -12 -42v-439l1 -46q0 -17 13 -37q7 -11 14 -18t14 -11q8 -5 8 -6q0 -6 -7 -6h-126q-39 0 -82 -27q-14 -9 -29.5 -21.5t-32.5 -28.5q-29 -27 -31 -27h-4t-1 2.5t2 9.5t5 21q19 64 21 125l4 4h2
q-2 0 16 -20t43 -20q29 0 51 22q11 10 17 22t10 26q3 10 2.5 19.5t-0.5 17.5v171z" />
    <glyph glyph-name="uni04CC" unicode="&#x4cc;" horiz-adv-x="403" 
d="M269 182q-90 -12 -95 -12q-103 0 -136 38q-14 19 -14 38v7l18 123v6q0 21 -16 34q-16 15 -16 16q0 5 7 5h141q6 0 6 -3q0 -4 -8 -9q-38 -18 -42 -49q-15 -92 -15 -118q0 -10 1 -13q2 -23 25 -37q19 -13 44 -13q51 0 100 11v170q0 31 -34 49q-6 3 -6 7q0 5 5 5h143
q5 0 5 -3q0 -6 -7 -9q-33 -20 -33 -49l-1 -318v-4q-1 -19 18 -34q18 -15 18 -17q0 -3 -5 -3h-87q-64 0 -100 -50q-6 -8 -9.5 -12.5t-4.5 -6.5q-1 -1 -7 -19q-4 -13 -11 -13t-7 7t8 34q11 38 11 73q0 41 9 41q2 0 17 -16q13 -16 26 -16q20 0 36 16.5t17 35.5z" />
    <glyph glyph-name="uni04CF" unicode="&#x4cf;" horiz-adv-x="210" 
d="M66 591q-3 73 -38 99l152 1q-38 -62 -40 -101v-490q2 -39 40 -101l-152 1q35 26 38 99v492v0z" />
    <glyph glyph-name="uni04D0" unicode="&#x4d0;" horiz-adv-x="603" 
d="M351 379q-8 35 -11 58.5t-10 43.5q-8 23 -16.5 42.5t-21.5 32.5t-32.5 18.5t-48.5 0.5l-38 -196h178zM98 532q0 26 13 49.5t34 41t46 28t48 10.5q64 0 104.5 -34.5t57.5 -97.5q8 -36 18.5 -77.5t23.5 -92t28 -110.5l33 -132q2 -9 8 -22t17 -28q12 -20 26.5 -37t33.5 -30
h-225q29 26 38.5 52t7.5 61q-2 31 -15 87.5t-38 141.5l-190 -1q-6 -24 -12.5 -51.5t-11.5 -55.5t-8.5 -55t-4.5 -49q-3 -56 11 -79q4 -5 18 -20.5t29 -30.5h-174q16 14 27.5 27t19.5 27q9 14 16.5 35t13.5 45q16 67 30.5 126.5t27.5 112.5t24.5 102t21.5 96
q-35 -5 -57.5 -15.5t-39.5 -23.5zM397 771q0 -43 -49 -62q-33 -13 -83 -13q-128 0 -128 75q0 19 12 39q13 21 34 21q13 0 22 -10t9 -23q0 -6 -3.5 -13t-8 -14.5t-8 -14t-3.5 -10.5q0 -20 31 -27q21 -7 48 -5q74 0 74 31q0 5 -4 11.5t-8.5 13.5t-8 14.5t-3.5 13.5
q0 13 9.5 23t21.5 10q20 0 34 -21q12 -20 12 -39z" />
    <glyph glyph-name="uni04D1" unicode="&#x4d1;" horiz-adv-x="420" 
d="M398 3q0 -3 -6 -3h-97q-11 0 -11 14v39l-110 -63q-9 -6 -20 -6t-26 7q-63 27 -91 79q-23 46 -23 119q0 77 44 145q45 69 116 96q21 7 56 7h118q8 0 8 -10v-369q0 -22 21 -38q21 -15 21 -17zM284 72v304q-13 34 -70 34q-40 0 -74 -32q-29 -29 -42 -70q-12 -38 -12 -79
q0 -55 20 -100q24 -50 71 -70q22 -8 39 -8q27 0 68 21zM338 550q0 -19 -11 -32t-27.5 -21t-35.5 -11.5t-35 -3.5q-52 0 -78 19.5t-26 49.5q0 14 9 31q12 18 26 18q11 0 20 -8t9 -19t-9.5 -23.5t-9.5 -19.5q0 -28 63 -28q61 0 61 28q0 8 -9.5 19.5t-9.5 22.5t8.5 19.5
t19.5 8.5q15 0 26 -18q9 -17 9 -32z" />
    <glyph glyph-name="uni04D2" unicode="&#x4d2;" horiz-adv-x="603" 
d="M351 379q-8 35 -11 58.5t-10 43.5q-8 23 -16.5 42.5t-21.5 32.5t-32.5 18.5t-48.5 0.5l-38 -196h178zM98 532q0 26 13 49.5t34 41t46 28t48 10.5q64 0 104.5 -34.5t57.5 -97.5q8 -36 18.5 -77.5t23.5 -92t28 -110.5l33 -132q2 -9 8 -22t17 -28q12 -20 26.5 -37t33.5 -30
h-225q29 26 38.5 52t7.5 61q-2 31 -15 87.5t-38 141.5l-190 -1q-6 -24 -12.5 -51.5t-11.5 -55.5t-8.5 -55t-4.5 -49q-3 -56 11 -79q4 -5 18 -20.5t29 -30.5h-174q16 14 27.5 27t19.5 27q9 14 16.5 35t13.5 45q16 67 30.5 126.5t27.5 112.5t24.5 102t21.5 96
q-35 -5 -57.5 -15.5t-39.5 -23.5zM385 767q0 -17 -12 -29.5t-30 -12.5q-17 0 -29 12t-12 30q0 17 12.5 29.5t28.5 12.5q18 0 30 -12.5t12 -29.5zM240 767q0 -17 -12 -29.5t-30 -12.5q-17 0 -29.5 12t-12.5 30q0 17 12.5 29.5t29.5 12.5t29.5 -12.5t12.5 -29.5z" />
    <glyph glyph-name="uni04D3" unicode="&#x4d3;" horiz-adv-x="420" 
d="M398 3q0 -3 -6 -3h-97q-11 0 -11 14v39l-110 -63q-9 -6 -20 -6q-9 0 -26 7q-63 27 -91 79q-23 45 -23 119q0 77 44 145q45 69 116 96q22 7 56 7h118q8 0 8 -10v-369q0 -22 21 -37.5t21 -17.5zM284 72v304q-14 34 -70 34q-41 0 -74 -32q-29 -28 -42 -70q-12 -37 -12 -79
q0 -57 20 -100q24 -51 71 -70q21 -8 39 -8q28 0 68 21zM345 542q0 -17 -12 -29.5t-30 -12.5q-17 0 -29 12t-12 30q0 17 12.5 29.5t28.5 12.5q18 0 30 -12.5t12 -29.5zM200 542q0 -17 -12 -29.5t-30 -12.5q-17 0 -29.5 12t-12.5 30q0 17 12.5 29.5t29.5 12.5t29.5 -12.5
t12.5 -29.5z" />
    <glyph glyph-name="uni04D4" unicode="&#x4d4;" horiz-adv-x="933" 
d="M924 144q-6 -4 -9 -5q2 2 2.5 5t2.5 5l8 -6q-2 0 -4 1zM218 552l-14 4l9 6l4 2t4 3zM439 402q-2 114 -6 154q-3 23 -14 36q-15 20 -37 20q-4 0 -12.5 -1t-22.5 -3l-85 -206h177zM364 1q63 49 71 113l1 250h-189q-11 -28 -23.5 -57.5t-24.5 -57.5q-29 -74 -42 -116
q-9 -33 -9 -57q0 -20 10.5 -36.5t22.5 -31.5q1 -2 1.5 -2.5t3.5 -5.5h-173q21 15 35 29t24 27v-1q12 14 23.5 34t22.5 45q63 136 115 252.5t92 211.5h-19q-24 0 -44.5 -9.5t-40.5 -21.5q8 24 24 44t39 37q53 40 107 40q48 0 83 -20h259q20 0 40 3t41 11q4 -18 14 -54.5
t26 -85.5q-26 19 -49 34.5t-38 23.5h1q-33 20 -65 29t-62 9q-62 0 -83 -9q-35 -16 -34 -59l1 -169h31.5t43.5 -1h67q101 0 168 44v-121q-4 2 -5 3t-9 6q-53 28 -111 28l-184 1q-1 -19 -1 -44v-53v-60.5t1 -69.5q3 -70 30 -91q18 -12 94 -12q35 0 71.5 10t75.5 29q10 5 19 11
t19 11q20 11 40 22.5t40 24.5q-18 -40 -37 -79.5t-38 -78.5q-44 13 -75 17.5t-51 2.5h-350z" />
    <glyph glyph-name="uni04D5" unicode="&#x4d5;" horiz-adv-x="631" 
d="M373 197q22 16 49.5 32.5t51 36t39.5 42t16 50.5q0 27 -14.5 50.5t-44.5 23.5q-29 1 -49 -10.5t-33 -31t-19.5 -45.5t-8 -52.5t2 -51.5t10.5 -44zM224 413q-35 0 -59.5 -15t-41.5 -44q-28 -49 -28 -115q0 -36 6.5 -65.5t18.5 -54.5q17 -30 42 -45.5t61 -15.5q12 0 24.5 4
t23.5 11.5t18 17t7 20.5l-1 246q0 56 -71 56zM325 84q-51 -94 -163 -94q-61 0 -101 69q-37 61 -37 130q0 95 51 173q21 32 47.5 54.5t55.5 30.5t59.5 0.5t60.5 -34.5q2 5 1.5 17t2.5 19h57v-42q36 35 73.5 45.5t71.5 0.5t62 -38t44 -69l-229 -180q3 -31 26.5 -59t56 -46
t67.5 -22.5t62 10.5q-23 -25 -54 -41.5t-60 -16.5q-31 -1 -58.5 8.5t-48.5 24t-33.5 31t-13.5 29.5z" />
    <glyph glyph-name="uni04D6" unicode="&#x4d6;" horiz-adv-x="553" 
d="M542 144q-6 -4 -9 -5q2 2 2.5 5t2.5 5l6 -6zM453 92q20 11 40 22.5t40 24.5q-18 -40 -37.5 -79.5t-37.5 -78.5q-45 14 -76 17.5t-50 0.5h-312q6 7 8.5 11t7.5 11l9 12q9 15 14.5 27.5t5.5 23.5v487q0 23 -13 48.5t-33 48.5h332q40 0 81 14q4 -18 14 -54.5t26 -85.5
q-26 19 -49.5 34.5t-37.5 23.5h1q-33 20 -65 29t-62 9q-64 0 -81 -7q-16 -7 -26 -21.5t-10 -34.5l-1 -174h33t44 -1h67q99 0 168 44v-117q-4 2 -5 3t-9 6q-54 28 -111 28h-185v-282q0 -17 14 -29.5t38 -17.5q10 -2 28.5 -3t44.5 -1q35 0 71.5 10t75.5 29q10 5 19 11t19 11z
M378 780q0 -43 -49 -62q-33 -13 -83 -13q-128 0 -128 75q0 19 12 39q13 21 34 21q13 0 22 -10t9 -23q0 -6 -3.5 -13t-8 -14.5t-8 -14t-3.5 -10.5q0 -20 31 -27q21 -7 48 -5q74 0 74 31q0 5 -4 11.5t-8.5 13.5t-8 14.5t-3.5 13.5q0 13 9.5 23t21.5 10q20 0 34 -21
q12 -20 12 -39z" />
    <glyph glyph-name="uni04D7" unicode="&#x4d7;" horiz-adv-x="348" 
d="M328 333q0 -7 -5 -10l-222 -153q29 -61 93 -104q32 -21 69 -21q20 0 48 7q5 1 7 1q4 0 4 -3q0 -8 -11 -17q-45 -39 -113 -39q-84 0 -137 74q-50 67 -50 154q0 92 45 155q50 70 140 70q42 0 79 -34q53 -50 53 -80zM234 342q0 32 -18 52t-50 20q-48 0 -72 -41
q-20 -33 -20 -84t19 -99q37 27 75 52q46 36 60 67q6 13 6 33zM285 550q0 -19 -11 -32t-27.5 -21t-35.5 -11.5t-35 -3.5q-52 0 -78 19.5t-26 49.5q0 14 9 31q12 18 26 18q11 0 20 -8t9 -19t-9.5 -23.5t-9.5 -19.5q0 -28 63 -28q61 0 61 28q0 8 -9.5 19.5t-9.5 22.5t8.5 19.5
t19.5 8.5q15 0 26 -18q9 -17 9 -32z" />
    <glyph glyph-name="uni04D8" unicode="&#x4d8;" horiz-adv-x="648" 
d="M507 348q-1 6 -1.5 23t-1.5 23q-14 88 -63 152q-65 86 -159 86q-64 0 -125 -58q-7 -6 -16 -15l-21 -21q-5 -5 -6 -8q-4 -7 -8 -7q-7 0 -7 6q0 2 4 9q33 64 45 108q4 11 5 20q4 10 15 10q42 -19 62 -19q18 0 46 7q37 9 75 9q50 0 91 -18q87 -38 131 -121q41 -77 41 -178
q0 -143 -89 -256q-37 -46 -82 -70.5t-99 -33.5q-74 -9 -133.5 20.5t-102 82t-65.5 119t-24 130.5h488zM124 315q2 -35 7.5 -73t16.5 -70q17 -54 44.5 -88t60.5 -49.5t68 -13t67 22t58.5 55t42.5 87.5q9 29 14 63.5t6 65.5h-385z" />
    <glyph glyph-name="afii10846" unicode="&#x4d9;" horiz-adv-x="463" 
d="M111 205q0 -45 10 -80.5t27 -61.5q15 -22 37.5 -32.5t47.5 -9.5t47.5 13t37.5 35q16 25 24.5 59t8.5 78q0 5 0 3.5v-4t-0.5 -4t-0.5 3.5h-239zM435 234q0 -69 -31.5 -126t-85.5 -89q-18 -11 -41.5 -16.5t-49 -5.5t-50 5.5t-43.5 16.5q-51 31 -81.5 86t-30.5 122h329
q0 3 -1.5 11.5t-3 18.5t-3 18.5t-2.5 10.5q-9 33 -25.5 58.5t-36.5 43t-41.5 26t-40.5 8.5q-34 0 -58 -13t-47 -45q-14 -20 -19 -20t-5 3q0 4 2.5 11.5t6 16t7 16t4.5 11.5q0 1 1.5 10t4 19t5 18t4.5 8q49 -23 66 -23q13 0 31 5l20 6q19 4 55 4t65.5 -17.5t50.5 -47.5
t32.5 -69t11.5 -81z" />
    <glyph glyph-name="uni04DA" unicode="&#x4da;" horiz-adv-x="648" 
d="M19 348q1 -64 24 -130.5t65.5 -119t102 -82t133.5 -20.5q54 9 99 33.5t82 70.5q89 113 89 256q0 101 -41 178q-44 83 -131 121q-41 18 -91 18q-38 0 -75 -9q-28 -7 -46 -7q-20 0 -62 19q-11 0 -15 -10q-1 -9 -5 -20q-12 -44 -45 -108q-4 -7 -4 -9q0 -6 7 -6q4 0 8 7
q1 3 6 8l21 21t16 15q61 58 125 58q94 0 159 -86q49 -64 63 -152q1 -6 1.5 -23t1.5 -23h-488zM509 315q-1 -31 -6 -65.5t-14 -63.5q-16 -52 -42.5 -87.5t-58.5 -55t-67 -22t-68 13t-60.5 49.5t-44.5 88q-11 32 -16.5 70t-7.5 73h385zM436 767q0 -17 -12 -29.5t-30 -12.5
q-17 0 -29 12t-12 30q0 17 12.5 29.5t28.5 12.5q18 0 30 -12.5t12 -29.5zM291 767q0 -17 -12 -29.5t-30 -12.5q-17 0 -29.5 12t-12.5 30q0 17 12.5 29.5t29.5 12.5t29.5 -12.5t12.5 -29.5z" />
    <glyph glyph-name="uni04DB" unicode="&#x4db;" horiz-adv-x="463" 
d="M111 195q0 -35 10 -70.5t27 -61.5q15 -22 37.5 -32.5t47.5 -9.5t47.5 13t37.5 35q16 25 24.5 59t8.5 68q0 5 0 3.5v-4t-0.5 -4t-0.5 3.5h-239zM435 234q0 -69 -31.5 -126t-85.5 -89q-18 -11 -41.5 -16.5t-49 -5.5t-50 5.5t-43.5 16.5q-51 31 -81.5 86t-30.5 122h329
q0 3 -1.5 11.5t-3 18.5t-3 18.5t-2.5 10.5q-9 33 -25.5 58.5t-36.5 43t-41.5 26t-40.5 8.5q-34 0 -58 -13t-47 -45q-14 -20 -19 -20t-5 3q0 4 2.5 11.5t6 16t7 16t4.5 11.5q0 1 1.5 10t4 19t5 18t4.5 8q49 -23 66 -23q13 0 31 5l20 6q19 4 55 4t65.5 -17.5t50.5 -47.5
t32.5 -69t11.5 -81zM345 542q0 -17 -12 -29.5t-30 -12.5q-17 0 -29 12t-12 30q0 17 12.5 29.5t28.5 12.5q18 0 30 -12.5t12 -29.5zM200 542q0 -17 -12 -29.5t-30 -12.5q-17 0 -29.5 12t-12.5 30q0 17 12.5 29.5t29.5 12.5t29.5 -12.5t12.5 -29.5z" />
    <glyph glyph-name="uni04DC" unicode="&#x4dc;" horiz-adv-x="857" 
d="M847 -123q0 -5 -9 -5q-13 0 -48 18q-32 16 -45 27q-28 23 -46 49q-32 44 -53 122q-4 14 -20 82q-16 64 -28 92q-24 52 -62 70q-52 -18 -90 -23v-226q0 -46 45 -72q9 -5 9 -6q0 -6 -7 -6h-183q-8 0 -8 6q0 1 9 6q19 11 32.5 31t13.5 41v230q-27 2 -79 13q-22 -9 -40 -30
q-40 -48 -56 -110q-36 -136 -39 -146q-28 -79 -83 -123q-15 -11 -46 -27q-34 -18 -48 -18q-8 0 -8 5q0 2 2 5q23 35 34 61q17 39 43 121q24 78 42 116q29 62 74 106q29 28 35 34q22 19 42 26q-44 20 -85 45q-57 36 -95 92q-40 62 -40 123q0 28 13 46q15 21 42 21
q21 0 40.5 -17t19.5 -38q0 -8 -3 -23l-6 -24q-1 -11 -5 -35q-1 -7 -1 -13q0 -33 21 -69q31 -52 99 -84q57 -28 127 -37v230q0 20 -13.5 40.5t-32.5 31.5q-9 5 -9 7q0 5 8 5h183q7 0 7 -5q0 -2 -9 -7q-19 -11 -32 -30q-13 -22 -13 -42v-230q55 9 108 32q62 25 94 58
q12 12 25 31q21 33 21 64q0 8 -4 18q-5 16 -6 26q0 3 -1 9q0 3 -5 19q-2 12 -2 20q0 23 18 39.5t40 16.5q57 0 57 -66q0 -59 -41 -119q-36 -55 -92 -90q-34 -21 -79 -41q40 -16 81.5 -66t68.5 -111q14 -35 38 -111q23 -75 43 -119q12 -26 35 -61q2 -3 2 -5zM512 767
q0 -17 -12 -29.5t-30 -12.5q-17 0 -29 12t-12 30q0 17 12.5 29.5t28.5 12.5q18 0 30 -12.5t12 -29.5zM367 767q0 -17 -12 -29.5t-30 -12.5q-17 0 -29.5 12t-12.5 30q0 17 12.5 29.5t29.5 12.5t29.5 -12.5t12.5 -29.5z" />
    <glyph glyph-name="uni04DD" unicode="&#x4dd;" horiz-adv-x="622" 
d="M674 -186q-1 -4 -8 -4q-49 0 -94 33q-34 24 -53 54q-18 28 -44 125q-9 32 -25 96q-8 26 -20 41q-16 19 -33 24q-30 -10 -59 -15v-111q0 -21 20.5 -36.5t20.5 -17.5q0 -3 -5 -3h-142q-6 0 -6 2t20 18t20 37v110q-32 5 -64 16q-17 -5 -33 -24q-13 -15 -22 -44
q-6 -24 -13 -49q-11 -43 -22 -87q-15 -53 -34 -82t-54 -54q-44 -33 -90 -33q-8 0 -10 4q1 2 2 3q40 29 57 57q11 16 31 78q26 80 36 105q25 66 50 95q18 22 24 29q15 15 30 20q-116 51 -136 169q-1 10 -1 18q0 24 14 43q15 20 39 20q19 0 32 -13.5t13 -32.5q0 -15 -2 -26
t-15 -34q-12 -20 -12 -37q0 -39 42 -72q33 -26 77 -38q29 -9 61 -12v189q0 23 -20 39t-20 17q0 5 6 5h142q5 0 5 -3q0 -6 -6 -10q-35 -20 -35 -48v-189q30 4 58 12q43 13 75 39q40 32 40 70q0 16 -14 43t-14 54q0 19 13 33t33 14q23 0 38 -20q15 -18 15 -43q0 -44 -28 -91.5
t-68 -72.5q-17 -11 -41 -23q13 -5 26 -19q38 -38 56 -75q11 -21 34 -86q11 -38 23 -75q14 -47 32 -72q21 -32 56 -57q2 -1 2 -3zM413 542q0 -17 -12 -29.5t-30 -12.5q-17 0 -29 12t-12 30q0 17 12.5 29.5t28.5 12.5q18 0 30 -12.5t12 -29.5zM268 542q0 -17 -12 -29.5
t-30 -12.5q-17 0 -29.5 12t-12.5 30q0 17 12.5 29.5t29.5 12.5t29.5 -12.5t12.5 -29.5z" />
    <glyph glyph-name="uni04DE" unicode="&#x4de;" horiz-adv-x="519" 
d="M491 188q0 -60 -26 -96q-39 -52 -105 -80q-61 -26 -130 -26q-28 0 -71 9q-49 10 -105 61q-41 39 -41 104q0 36 14 62q18 31 51 31q25 0 42 -19.5t17 -45.5q0 -29 -23 -51t-23 -45q0 -37 51 -60q40 -18 83 -18q73 0 115 40t42 113q0 123 -99 167q-22 11 -41 11
q-9 0 -28 -3.5t-28 -3.5q-8 0 -8 17t8 17q11 0 34.5 -1.5t35.5 -1.5q31 0 44 7q24 14 38 45q14 28 14 58q0 57 -31 104q-39 59 -109 59q-69 0 -132 -66q-14 -11 -36 -35q-13 -15 -14 -15q-6 0 -6 5q0 3 18 37.5t18 50.5q0 3 -1 9.5t-1 9.5q0 34 12 34q6 0 25 -10t30 -10
q6 0 19 3q21 3 61 12q33 9 61 9q52 0 102 -24q56 -27 76 -70q16 -36 16 -68q0 -54 -45 -99q-41 -41 -97 -53q80 -4 126.5 -50t46.5 -124zM355 767q0 -17 -12 -29.5t-30 -12.5q-17 0 -29 12t-12 30q0 17 12.5 29.5t28.5 12.5q18 0 30 -12.5t12 -29.5zM210 767
q0 -17 -12 -29.5t-30 -12.5q-17 0 -29.5 12t-12.5 30q0 17 12.5 29.5t29.5 12.5t29.5 -12.5t12.5 -29.5z" />
    <glyph glyph-name="uni04DF" unicode="&#x4df;" horiz-adv-x="374" 
d="M355 131q0 -67 -60 -107q-52 -34 -123 -34q-77 0 -118 37q-30 27 -36 61q-4 20 -4 38q0 28 13 48q15 23 43 23q20 0 34.5 -11.5t14.5 -31.5q0 -32 -37 -64q-9 -7 -9 -27q0 -26 27 -42q23 -13 51 -13q54 0 86.5 29.5t32.5 83.5q0 44 -20 77q-24 40 -64 40q-9 0 -26.5 -2
t-25.5 -2q-5 0 -5 15q0 9 3 9q9 0 27 -1t27 -1q28 0 46 20.5t18 49.5q0 24 -10 46q-11 24 -31 34q-16 9 -41 9q-32 0 -64 -19q-11 -6 -33 -22q-13 -13 -41 -40q-4 -3 -7 -3t-3 3t2 9q14 27 19 49q2 18 11 52q2 6 6 6q47 -24 65 -24q5 0 31 7q35 8 67 8q45 0 78 -24
q36 -27 36 -71q0 -41 -37 -68q-31 -24 -74 -31q60 -14 90 -35q41 -30 41 -81zM297 542q0 -17 -12 -29.5t-30 -12.5q-17 0 -29 12t-12 30q0 17 12.5 29.5t28.5 12.5q18 0 30 -12.5t12 -29.5zM152 542q0 -17 -12 -29.5t-30 -12.5q-17 0 -29.5 12t-12.5 30q0 17 12.5 29.5
t29.5 12.5t29.5 -12.5t12.5 -29.5z" />
    <glyph glyph-name="uni04E3" unicode="&#x4e3;" horiz-adv-x="446" 
d="M422 3q0 -3 -5 -3h-143q-5 0 -5 2t20 18.5t20 35.5v287l-173 -276q-6 -10 -6 -19q0 -15 18 -29t18 -16q0 -3 -4 -3h-143q-5 0 -5 2t20 17.5t20 36.5v321q0 30 -34 47q-6 4 -6 9q0 4 5 4h143q5 0 5 -4q0 -5 -6 -9q-35 -17 -35 -47v-270q0 -5 5 -5l2 1l165 266q6 9 6 18
q0 18 -17.5 30.5t-17.5 14.5q0 5 5 5h143q5 0 5 -3q0 -6 -6 -10q-34 -18 -34 -47v-321q0 -19 20 -35t20 -18zM97 502v45h250v-45h-250z" />
    <glyph glyph-name="uni04E2" unicode="&#x4e2;" horiz-adv-x="574" 
d="M546 6q0 -6 -7 -6h-183q-6 0 -6 6q0 1 8 6q16 9 30 29q15 21 15 43v446l-235 -451q-4 -8 -4 -17q0 -16 10 -31q12 -17 26 -19q9 -4 9 -6q0 -6 -7 -6h-184q-6 0 -6 6q0 1 9 6q45 23 45 62v489q0 19 -14 42.5t-31 30.5q-9 3 -9 6q0 6 6 6h184q7 0 7 -6q0 -3 -9 -6
q-17 -7 -31 -30.5t-14 -42.5v-417q0 -2 5 -2q4 0 6 2l220 424q4 9 4 21q0 23 -18 35q-22 17 -22 16q0 6 6 6h183q7 0 7 -6q0 -2 -8 -6q-19 -10 -32 -31.5t-13 -41.5v-479q0 -46 45 -72q3 -2 8 -6zM148 706v45h285v-45h-285z" />
    <glyph glyph-name="uni04E4" unicode="&#x4e4;" horiz-adv-x="574" 
d="M546 6q0 -6 -7 -6h-183q-6 0 -6 6q0 1 8 6q16 9 30 29q15 21 15 43v446l-235 -451q-4 -8 -4 -17q0 -16 10 -31q12 -17 26 -19q9 -4 9 -6q0 -6 -7 -6h-184q-6 0 -6 6q0 1 9 6q45 23 45 62v489q0 19 -14 42.5t-31 30.5q-9 3 -9 6q0 6 6 6h184q7 0 7 -6q0 -3 -9 -6
q-17 -7 -31 -30.5t-14 -42.5v-417q0 -2 5 -2q4 0 6 2l220 424q4 9 4 21q0 23 -18 35q-22 17 -22 16q0 6 6 6h183q7 0 7 -6q0 -2 -8 -6q-19 -10 -32 -31.5t-13 -41.5v-479q0 -46 45 -72q3 -2 8 -6zM400 767q0 -17 -12 -29.5t-30 -12.5q-17 0 -29 12t-12 30q0 17 12.5 29.5
t28.5 12.5q18 0 30 -12.5t12 -29.5zM255 767q0 -17 -12 -29.5t-30 -12.5q-17 0 -29.5 12t-12.5 30q0 17 12.5 29.5t29.5 12.5t29.5 -12.5t12.5 -29.5z" />
    <glyph glyph-name="uni04E5" unicode="&#x4e5;" horiz-adv-x="446" 
d="M422 3q0 -3 -5 -3h-143q-5 0 -5 2t20 18.5t20 35.5v287l-173 -276q-6 -10 -6 -19q0 -15 18 -29t18 -16q0 -3 -4 -3h-143q-5 0 -5 2t20 17.5t20 36.5v321q0 30 -34 47q-6 4 -6 9q0 4 5 4h143q5 0 5 -4q0 -5 -6 -9q-35 -17 -35 -47v-270q0 -5 5 -5l2 1l165 266q6 9 6 18
q0 18 -17.5 30.5t-17.5 14.5q0 5 5 5h143q5 0 5 -3q0 -6 -6 -10q-34 -18 -34 -47v-321q0 -19 20 -35t20 -18zM339 542q0 -17 -12 -29.5t-30 -12.5q-17 0 -29 12t-12 30q0 17 12.5 29.5t28.5 12.5q18 0 30 -12.5t12 -29.5zM194 542q0 -17 -12 -29.5t-30 -12.5q-17 0 -29.5 12
t-12.5 30q0 17 12.5 29.5t29.5 12.5t29.5 -12.5t12.5 -29.5z" />
    <glyph glyph-name="uni04E6" unicode="&#x4e6;" horiz-adv-x="623" 
d="M599 340q0 -151 -93 -256q-89 -101 -211 -101q-121 0 -205 101q-79 96 -79 230q0 152 93 256q90 101 211 101q120 0 204 -101q80 -96 80 -230zM545 267q0 125 -87 224q-92 107 -211 107q-81 0 -133 -62q-48 -58 -48 -142q0 -124 85 -223q93 -106 211 -106q83 0 134 61
q49 57 49 141zM420 767q0 -17 -12 -29.5t-30 -12.5q-17 0 -29 12t-12 30q0 17 12.5 29.5t28.5 12.5q18 0 30 -12.5t12 -29.5zM275 767q0 -17 -12 -29.5t-30 -12.5q-17 0 -29.5 12t-12.5 30q0 17 12.5 29.5t29.5 12.5t29.5 -12.5t12.5 -29.5z" />
    <glyph glyph-name="uni04E7" unicode="&#x4e7;" horiz-adv-x="441" 
d="M418 231v-13q0 -92 -62 -160q-61 -67 -142 -67q-84 0 -143 67q-56 64 -55 148v12q1 92 62 160q61 67 143 67q45 0 89 -21q110 -53 108 -193zM383 178q0 80 -63 142t-144 62q-51 0 -86 -32q-36 -34 -36 -84q0 -79 68 -143t146 -64q50 0 82.5 34.5t32.5 84.5zM326 542
q0 -17 -12 -29.5t-30 -12.5q-17 0 -29 12t-12 30q0 17 12.5 29.5t28.5 12.5q18 0 30 -12.5t12 -29.5zM181 542q0 -17 -12 -29.5t-30 -12.5q-17 0 -29.5 12t-12.5 30q0 17 12.5 29.5t29.5 12.5t29.5 -12.5t12.5 -29.5z" />
    <glyph glyph-name="uni04E8" unicode="&#x4e8;" horiz-adv-x="623" 
d="M599 340q0 -151 -93 -256q-89 -101 -211 -101q-121 0 -205 101q-79 95 -79 230q0 152 93 256q90 101 211 101q120 0 204 -101q80 -97 80 -230zM545 267q0 35 -7 66h-467q17 -90 80 -162q93 -106 211 -106q83 0 134 61q49 56 49 141zM458 491q-92 107 -211 107
q-80 0 -133 -62q-48 -59 -48 -142v-13.5t1 -13.5h463q-11 33 -29 64t-43 60z" />
    <glyph glyph-name="uni04E9" unicode="&#x4e9;" horiz-adv-x="441" 
d="M418 231v-13q0 -92 -62 -160q-61 -67 -142 -67q-84 0 -143 67q-56 64 -55 148v12q1 92 62 160q61 67 143 67q45 0 89 -21q110 -53 108 -193zM383 178q0 19 -4 37h-318q15 -49 61 -92q68 -64 146 -64q50 0 82.5 34.5t32.5 84.5zM320 320q-63 62 -144 62q-51 0 -86 -32
q-36 -34 -36 -84v-20h315q-16 41 -49 74z" />
    <glyph glyph-name="uni04EA" unicode="&#x4ea;" horiz-adv-x="623" 
d="M599 340q0 -151 -93 -256q-89 -101 -211 -101q-121 0 -205 101q-79 95 -79 230q0 152 93 256q90 101 211 101q120 0 204 -101q80 -97 80 -230zM545 267q0 35 -7 66h-467q17 -90 80 -162q93 -106 211 -106q83 0 134 61q49 56 49 141zM458 491q-92 107 -211 107
q-80 0 -133 -62q-48 -59 -48 -142v-13.5t1 -13.5h463q-11 33 -29 64t-43 60zM421 767q0 -17 -12 -29.5t-30 -12.5q-17 0 -29 12t-12 30q0 17 12.5 29.5t28.5 12.5q18 0 30 -12.5t12 -29.5zM276 767q0 -17 -12 -29.5t-30 -12.5q-17 0 -29.5 12t-12.5 30q0 17 12.5 29.5
t29.5 12.5t29.5 -12.5t12.5 -29.5z" />
    <glyph glyph-name="uni04EB" unicode="&#x4eb;" horiz-adv-x="441" 
d="M418 231v-13q0 -92 -62 -160q-61 -67 -142 -67q-84 0 -143 67q-56 64 -55 148v12q1 92 62 160q61 67 143 67q45 0 89 -21q110 -53 108 -193zM383 178q0 19 -4 37h-318q15 -49 61 -92q68 -64 146 -64q50 0 82.5 34.5t32.5 84.5zM320 320q-63 62 -144 62q-51 0 -86 -32
q-36 -34 -36 -84v-20h315q-16 41 -49 74zM333 542q0 -17 -12 -29.5t-30 -12.5q-17 0 -29 12t-12 30q0 17 12.5 29.5t28.5 12.5q18 0 30 -12.5t12 -29.5zM188 542q0 -17 -12 -29.5t-30 -12.5q-17 0 -29.5 12t-12.5 30q0 17 12.5 29.5t29.5 12.5t29.5 -12.5t12.5 -29.5z" />
    <glyph glyph-name="uni04EC" unicode="&#x4ec;" horiz-adv-x="582" 
d="M552 356q0 -144 -89 -256q-95 -118 -236 -118q-26 0 -69 9q-52 11 -106 63q-42 39 -42 104q0 36 15 61q17 31 51 31q25 0 42 -19.5t17 -45.5q0 -28 -23 -50t-23 -45q0 -40 50 -60q39 -16 83 -16q54 0 103 34q44 30 74 80q48 82 48 197v13h-384v33h382q-11 102 -66 175
q-64 86 -159 86q-63 0 -125 -58q-13 -12 -37 -36q-4 -4 -6 -8q-4 -7 -8 -7q-7 0 -7 6q0 2 4 9q33 64 45 108q3 9 5 20q4 10 15 10q44 -19 62 -19q16 0 46 7q38 9 75 9q51 0 91 -18q86 -37 131 -121q41 -77 41 -178zM385 767q0 -17 -12 -29.5t-30 -12.5q-17 0 -29 12t-12 30
q0 17 12.5 29.5t28.5 12.5q18 0 30 -12.5t12 -29.5zM240 767q0 -17 -12 -29.5t-30 -12.5q-17 0 -29.5 12t-12.5 30q0 17 12.5 29.5t29.5 12.5t29.5 -12.5t12.5 -29.5z" />
    <glyph glyph-name="uni04ED" unicode="&#x4ed;" horiz-adv-x="426" 
d="M402 234q0 -36 -6 -65q-18 -75 -79 -127q-62 -52 -139 -52q-51 0 -96 28q-49 31 -58 78q-4 21 -4 38q0 29 14 48q16 22 43 22q20 0 33 -10q16 -12 16 -32q0 -32 -38 -64q-8 -7 -8 -28q0 -28 34 -44q28 -15 60 -15q14 0 32 4q44 10 68 35q44 51 44 156q0 19 -1 26h-178
q-3 0 -3 21q0 13 3 13h175q-8 44 -28 73q-53 83 -122 83q-40 0 -69 -20q-18 -12 -36 -38q-14 -20 -19 -20t-5 3t3 9q13 27 17 46q3 16 11 49q1 6 4 6q48 -23 66 -23q10 0 26 4q23 6 25 7q21 4 55 4q42 0 80 -28q80 -62 80 -187zM320 542q0 -17 -12 -29.5t-30 -12.5
q-17 0 -29 12t-12 30q0 17 12.5 29.5t28.5 12.5q18 0 30 -12.5t12 -29.5zM175 542q0 -17 -12 -29.5t-30 -12.5q-17 0 -29.5 12t-12.5 30q0 17 12.5 29.5t29.5 12.5t29.5 -12.5t12.5 -29.5z" />
    <glyph glyph-name="uni04EE" unicode="&#x4ee;" horiz-adv-x="500" 
d="M474 519q0 -73 -17 -161q-19 -95 -47 -156q-21 -43 -56 -91q-91 -128 -214 -128q-13 0 -55 7q-67 11 -67 54q0 25 16 39q16 15 41 15q12 0 47 -17q56 -27 91 -27q70 0 125 84q-60 33 -104 74q-118 106 -174 357q-6 24 -17.5 40.5t-28.5 26.5q-8 5 -8 6q0 6 8 6h182
q7 0 7 -6q0 -1 -9 -6q-36 -22 -36 -69q0 -40 16 -81q68 -181 204 -269q40 94 40 158q0 92 -48 183q-9 18 -20 36q-11 22 -11 37q0 22 14.5 38t36.5 16q15 0 32 -11q52 -37 52 -155zM109 729v45h285v-45h-285z" />
    <glyph glyph-name="uni04EF" unicode="&#x4ef;" horiz-adv-x="415" 
d="M82 524v45h250v-45h-250zM311 46q10 17 17.5 45t11.5 58.5t4.5 58.5t-3.5 44q-12 43 -15 54q-11 31 -24 50q-12 18 -38 44q-20 20 -20 41q0 19 13 33t33 14q19 0 37 -20q56 -65 56 -216q1 -52 -14 -114t-42.5 -120t-64.5 -106.5t-79 -73.5q-40 -28 -95 -28q-32 0 -44 17
q-10 13 -10 28t18 27q14 10 32 10q6 0 10 -1q40 -6 56 -6q71 0 130 98q-106 55 -154 144q-46 84 -62 170q-15 85 -43 92q-10 3 -10 6q0 4 4 5q8 2 21 6t30 10q12 5 26 11.5t30 14.5q4 2 9.5 4.5t12.5 6.5l3 1q4 0 4 -5q0 -1 -3 -7q-14 -30 -14 -80q0 -55 20 -121t54 -110
q26 -35 103 -85z" />
    <glyph glyph-name="uni04F0" unicode="&#x4f0;" horiz-adv-x="500" 
d="M474 519q0 -73 -17 -161q-19 -95 -47 -156q-21 -43 -56 -91q-91 -128 -214 -128q-13 0 -55 7q-67 11 -67 54q0 25 16 39q16 15 41 15q12 0 47 -17q56 -27 91 -27q70 0 125 84q-60 33 -104 74q-118 106 -174 357q-6 24 -17.5 40.5t-28.5 26.5q-8 5 -8 6q0 6 8 6h182
q7 0 7 -6q0 -1 -9 -6q-36 -22 -36 -69q0 -40 16 -81q68 -181 204 -269q40 94 40 158q0 92 -48 183q-9 18 -20 36q-11 22 -11 37q0 22 14.5 38t36.5 16q15 0 32 -11q52 -37 52 -155zM372 767q0 -17 -12 -29.5t-30 -12.5q-17 0 -29 12t-12 30q0 17 12.5 29.5t28.5 12.5
q18 0 30 -12.5t12 -29.5zM227 767q0 -17 -12 -29.5t-30 -12.5q-17 0 -29.5 12t-12.5 30q0 17 12.5 29.5t29.5 12.5t29.5 -12.5t12.5 -29.5z" />
    <glyph glyph-name="uni04F1" unicode="&#x4f1;" horiz-adv-x="415" 
d="M314 46q10 17 17.5 45t11.5 58.5t4.5 58.5t-3.5 44q-12 43 -15 54q-11 31 -24 50q-12 18 -38 44q-20 20 -20 41q0 19 13 33t33 14q19 0 37 -20q56 -65 56 -216q1 -52 -14 -114t-42.5 -120t-64.5 -106.5t-79 -73.5q-40 -28 -95 -28q-32 0 -44 17q-10 13 -10 28t18 27
q14 10 32 10q6 0 10 -1q40 -6 56 -6q71 0 130 98q-106 55 -154 144q-46 84 -62 170q-15 85 -43 92q-10 3 -10 6q0 4 4 5q8 2 21 6t30 10q12 5 26 11.5t30 14.5q4 2 9.5 4.5t12.5 6.5l3 1q4 0 4 -5q0 -1 -3 -7q-14 -30 -14 -80q0 -55 20 -121t54 -110q26 -35 103 -85z
M320 569q0 -17 -12 -29.5t-30 -12.5q-17 0 -29 12t-12 30q0 17 12.5 29.5t28.5 12.5q18 0 30 -12.5t12 -29.5zM175 569q0 -17 -12 -29.5t-30 -12.5q-17 0 -29.5 12t-12.5 30q0 17 12.5 29.5t29.5 12.5t29.5 -12.5t12.5 -29.5z" />
    <glyph glyph-name="uni04F2" unicode="&#x4f2;" horiz-adv-x="500" 
d="M474 519q0 -73 -17 -161q-19 -95 -47 -156q-21 -43 -56 -91q-91 -128 -214 -128q-13 0 -55 7q-67 11 -67 54q0 25 16 39q16 15 41 15q12 0 47 -17q56 -27 91 -27q70 0 125 84q-60 33 -104 74q-118 106 -174 357q-6 24 -17.5 40.5t-28.5 26.5q-8 5 -8 6q0 6 8 6h182
q7 0 7 -6q0 -1 -9 -6q-36 -22 -36 -69q0 -40 16 -81q68 -181 204 -269q40 94 40 158q0 92 -48 183q-9 18 -20 36q-11 22 -11 37q0 22 14.5 38t36.5 16q15 0 32 -11q52 -37 52 -155zM112 705q9 8 27 28.5t48 52.5q21 24 37 38t27 18q3 3 13 -7t18 -27l2 -6q-2 -16 -81 -58v0
q-33 -18 -54 -29t-31 -16zM265 702q9 8 27 28.5t48 52.5q21 24 37 38t27 18q3 3 13 -7t18 -27l2 -6q-2 -16 -81 -58v0q-33 -18 -54 -29t-31 -16z" />
    <glyph glyph-name="uni04F3" unicode="&#x4f3;" horiz-adv-x="415" 
d="M311 46q10 17 17.5 45t11.5 58.5t4.5 58.5t-3.5 44q-12 43 -15 54q-11 31 -24 50q-12 18 -38 44q-20 20 -20 41q0 19 13 33t33 14q19 0 37 -20q56 -65 56 -216q1 -52 -14 -114t-42.5 -120t-64.5 -106.5t-79 -73.5q-40 -28 -95 -28q-32 0 -44 17q-10 13 -10 28t18 27
q14 10 32 10q6 0 10 -1q40 -6 56 -6q71 0 130 98q-106 55 -154 144q-46 84 -62 170q-15 85 -43 92q-10 3 -10 6q0 4 4 5q8 2 21 6t30 10q12 5 26 11.5t30 14.5q4 2 9.5 4.5t12.5 6.5l3 1q4 0 4 -5q0 -1 -3 -7q-14 -30 -14 -80q0 -55 20 -121t54 -110q26 -35 103 -85zM63 513
q9 8 27 28.5t48 52.5q21 24 37 38t27 18q3 3 13 -7t18 -27l2 -6q-2 -16 -81 -58v0q-33 -18 -54 -29t-31 -16zM216 510q9 8 27 28.5t48 52.5q21 24 37 38t27 18q3 3 13 -7t18 -27l2 -6q-2 -16 -81 -58v0q-33 -18 -54 -29t-31 -16z" />
    <glyph glyph-name="uni04F4" unicode="&#x4f4;" horiz-adv-x="474" 
d="M451 6q0 -6 -7 -6h-183q-7 0 -7 6q0 1 8 6q20 10 33 31t13 41v212q-54 -22 -119 -22q-51 0 -93 9q-80 16 -80 92q0 15 2 33l24 169v9q0 22 -21 39.5t-21 16.5q0 5 8 5h178q5 0 5 -5q0 -2 -9 -7q-48 -24 -53 -58l-25 -179q-1 -8 -1 -16q0 -40 29 -62q26 -20 66 -20
q48 0 110 25v238q0 20 -13 41.5t-33 30.5q-8 5 -8 7q0 5 7 5h183q7 0 7 -5q0 -2 -9 -7q-18 -9 -32 -30q-12 -22 -12 -42v-479q0 -20 13 -41t31 -31q9 -5 9 -6zM344 767q0 -17 -12 -29.5t-30 -12.5q-17 0 -29 12t-12 30q0 17 12.5 29.5t28.5 12.5q18 0 30 -12.5t12 -29.5z
M199 767q0 -17 -12 -29.5t-30 -12.5q-17 0 -29.5 12t-12.5 30q0 17 12.5 29.5t29.5 12.5t29.5 -12.5t12.5 -29.5z" />
    <glyph glyph-name="uni04F5" unicode="&#x4f5;" horiz-adv-x="405" 
d="M382 3q0 -3 -5 -3h-143q-4 0 -4 3q0 2 19.5 18t19.5 37v124q-90 -12 -95 -12q-103 0 -136 38q-14 18 -14 38v7l18 123v6q0 20 -16 34.5t-16 15.5q0 5 7 5h141q6 0 6 -3q0 -5 -8 -9q-37 -18 -42 -49q-15 -92 -15 -118q0 -8 1 -13q2 -23 25 -37q20 -13 44 -13q53 0 100 11
v170q0 31 -34 49q-6 3 -6 7q0 5 5 5h143q5 0 5 -3q0 -6 -7 -9q-33 -19 -33 -49v-318q0 -20 20 -36.5t20 -18.5zM319 542q0 -17 -12 -29.5t-30 -12.5q-17 0 -29 12t-12 30q0 17 12.5 29.5t28.5 12.5q18 0 30 -12.5t12 -29.5zM174 542q0 -17 -12 -29.5t-30 -12.5
q-17 0 -29.5 12t-12.5 30q0 17 12.5 29.5t29.5 12.5t29.5 -12.5t12.5 -29.5z" />
    <glyph glyph-name="uni04F6" unicode="&#x4f6;" horiz-adv-x="443" 
d="M69 84l1 476q0 21 -13.5 41.5t-31.5 31.5q-9 4 -9 5q0 9 7 9h278q49 0 61 11q23 23 31 23q2 0 5.5 -3.5t3.5 -5.5q0 1 -2 -11t-2 -27q0 -37 15 -100q8 -36 8 -56q0 -43 -17 -72q-21 -36 -62 -36q-28 0 -47.5 20.5t-19.5 48.5q0 17 9 29q10 15 25 15q34 0 34 -33
q0 -6 -1.5 -17.5t-1.5 -17.5t1 -9q1 -8 15 -8q46 0 46 68q0 63 -51 108q-49 45 -113 45q-17 0 -33 -3q-19 -5 -32.5 -21t-13.5 -35v-435q0 -18 6 -37q7 -29 30 -48q22 -22 51 -22q25 0 43 20t16 20h2l4 -4q1 -60 21 -125q3 -14 5 -21t2 -9.5t-1 -2.5h-4t-31 27
q-34 32 -62 50q-44 27 -82 27h-132q-7 0 -7 6q0 1 8 6q14 7 28 29q14 21 13 37v6z" />
    <glyph glyph-name="uni04F7" unicode="&#x4f7;" horiz-adv-x="318" 
d="M123 74q-3 -19 13 -35.5t36 -16.5q12 0 26.5 16t16.5 16q9 0 9 -41q0 -37 11 -73q8 -25 8 -34q0 -7 -7 -7q-6 0 -11 13q-6 18 -7 19q-2 3 -14 19q-36 50 -100 50h-87q-5 0 -5 3q0 2 18.5 17t18.5 34v4l1 318q0 30 -32 49q-7 3 -7 8q0 4 6 4h114q56 0 86 7q4 1 25 9
q19 7 21 7q5 0 7 -7q3 -20 10 -60q1 -4 11 -35q10 -28 10 -32t-4 -4t-8 4q-31 36 -37 40q-22 24 -42 35q-16 9 -40 9q-47 0 -47 -41v-295z" />
    <glyph glyph-name="uni04F8" unicode="&#x4f8;" horiz-adv-x="721" 
d="M686 6q0 -6 -6 -6h-183q-7 0 -7 6q0 1 8 6q19 10 32 31t13 41v479q0 23 -14.5 43.5t-30.5 28.5q-8 5 -8 7q0 5 7 5h183q6 0 6 -5q0 -2 -8 -7q-16 -9 -30 -29q-15 -20 -15 -43v-479q0 -45 45 -72q4 -2 8 -6zM481 153q0 -54 -37 -98q-45 -55 -178 -55h-246q-7 0 -7 6
q0 1 9 6q18 10 31 31t13 41v496q0 31 -44 55q-9 5 -9 7q0 5 7 5h183q7 0 7 -5q0 -2 -8 -7q-46 -24 -46 -55v-466q0 -37 20 -64q22 -32 58 -32q58 0 89 24q47 37 47 98q0 91 -111 160q-10 6 -35 26q-41 32 -41 76q0 30 11 50q15 25 41 25q33 0 33 -31q0 -21 -28.5 -39
t-28.5 -35q0 -25 39 -36l88 -22q50 -16 80 -38q37 -27 54 -74q9 -24 9 -49zM466 767q0 -17 -12 -29.5t-30 -12.5q-17 0 -29 12t-12 30q0 17 12.5 29.5t28.5 12.5q18 0 30 -12.5t12 -29.5zM321 767q0 -17 -12 -29.5t-30 -12.5q-17 0 -29.5 12t-12.5 30q0 17 12.5 29.5
t29.5 12.5t29.5 -12.5t12.5 -29.5z" />
    <glyph glyph-name="uni04F9" unicode="&#x4f9;" horiz-adv-x="581" 
d="M550 2q0 -2 -5 -2h-143q-5 0 -5 3q0 2 20 18t20 37v318q0 32 -34 49q-6 3 -6 8q0 4 5 4h143q5 0 5 -3q0 -6 -7 -9q-34 -18 -34 -49v-318q0 -21 20.5 -37.5t20.5 -18.5zM383 106q0 -10 -3 -21q-14 -55 -63 -73q-31 -12 -99 -12h-200q-5 0 -5 3q0 2 19.5 18.5t19.5 36.5
v318q0 30 -33 49q-6 4 -6 9q0 3 5 3h143q5 0 5 -3q0 -5 -7 -9q-34 -20 -34 -49v-299q0 -64 69 -64q46 0 68 15q37 27 37 82q0 51 -37 79q-36 19 -71 38q-37 23 -37 63q0 55 40 55q25 0 25 -23q0 -25 -26 -37q-10 -4 -10 -19q0 -25 43 -43q32 -10 65 -21q92 -32 92 -96z
M403 542q0 -17 -12 -29.5t-30 -12.5q-17 0 -29 12t-12 30q0 17 12.5 29.5t28.5 12.5q18 0 30 -12.5t12 -29.5zM258 542q0 -17 -12 -29.5t-30 -12.5q-17 0 -29.5 12t-12.5 30q0 17 12.5 29.5t29.5 12.5t29.5 -12.5t12.5 -29.5z" />
    <glyph glyph-name="afii10146" unicode="&#x462;" horiz-adv-x="666" 
d="M632 151q0 -55 -36 -98q-28 -34 -82 -46q-38 -8 -97 -8h-245q-7 0 -7 6l8 6q19 10 32 30.5t13 41.5v467q-11 3 -22 3h-19q-13 0 -28 -7q-17 -8 -32 -17t-28 -23q-53 -59 -64 -59q-8 0 -8 6q0 4 4 9q10 19 28 56q7 25 24 75q3 8 9 8q2 0 22 -6q11 -4 17 -5.5t8 -2.5
q40 -8 72 -8h17v45q0 29 -45 55q-8 5 -8 6q0 6 7 6h182q8 0 8 -6q0 -1 -8 -6q-23 -13 -32 -22q-14 -14 -14 -33v-45h16q39 0 79 8q2 1 7.5 2.5t15.5 4.5q19 6 25 6t8 -7.5l6 -22.5q7 -27 18 -52l9 -18l19 -38q3 -6 3 -9q0 -6 -6 -6q-11 0 -38 28q-20 21 -33 34.5t-20 19.5
q-34 28 -61 28q-6 0 -20 -0.5t-28 -2.5v-441q0 -37 19 -65q22 -31 58 -31q59 0 97 30q40 33 40 91q0 92 -111 160q-5 4 -13.5 10t-21.5 16q-42 31 -42 77q0 30 12 50q13 25 41 25q33 0 33 -32q0 -20 -29 -38t-29 -35q0 -26 56 -41q94 -24 113 -33q68 -32 92 -97q9 -23 9 -49
z" />
    <glyph glyph-name="afii10194" unicode="&#x463;" horiz-adv-x="508" 
d="M228 609v-167h36h20t16 1.5t17 4.5t23 8q9 3 14 5t7 2q1 0 4.5 -15t7.5 -33t7 -33t3 -16q5 -14 5 -21q0 -5 -4 -4q-11 4 -21 18t-25.5 28t-41.5 23t-68 3v-335q0 -65 69 -65q58 0 81 27.5t23 69.5q0 27 -10.5 44.5t-27 30t-35 22t-35 20.5t-27 26t-10.5 38q0 54 40 54
q25 0 25 -23q0 -11 -5.5 -18t-12.5 -12t-12.5 -11t-5.5 -15q0 -14 20.5 -26.5t45 -23t46 -17t23.5 -7.5q29 -14 47 -35.5t18 -50.5q0 -31 -11.5 -51.5t-32.5 -32.5t-51.5 -17t-69.5 -5h-200q-5 0 -5 4q11 8 20 17q8 8 14 17.5t6 19.5v353h-46t-36 -5.5t-29.5 -18
t-25.5 -36.5q-6 -10 -12 -10q-5 0 -5 5q0 4 2.5 23t6.5 40t7 37.5t5 16.5l7 -2.5t15.5 -5.5t16 -5.5t8.5 -2.5q11 -2 22 -3.5t25 -1.5h39v21q0 14 -6 29.5t-19 30.5q-8 9 -16 15t-13 15q29 7 60 21.5t67 34.5z" />
    <glyph glyph-name="afii10148" unicode="&#x474;" horiz-adv-x="577" 
d="M299 156l16 59q19 80 40 160q23 88 46.5 153t43.5 94q8 12 18 21t22 18q36 22 57 6q21 -15 17 -44q-2 -24 -17 -46q-5 -5 -17 -18t-35 -33q-21 -19 -36.5 -36t-26.5 -31q-11 -16 -28.5 -60.5t-42.5 -119.5q-13 -38 -22 -72.5t-14 -62t-5.5 -46.5t3.5 -25q-2 -32 25 -54
q12 -10 27 -20h-186q46 27 46 63q0 3 -2 13q-57 184 -97 311t-63 197q-2 6 -10 19t-19 28q-9 11 -17 21t-14 17h173q-28 -34 -28 -68q0 -7 5 -29t13.5 -54.5t20.5 -73t26 -84.5q30 -99 46.5 -151t27.5 -75z" />
    <glyph glyph-name="afii10196" unicode="&#x475;" horiz-adv-x="468" 
d="M238 102q8 85 23 151.5t37.5 112.5t51.5 70.5t65 24.5q17 0 27 -10t10 -25q0 -8 -2 -17t-10 -16q-12 -10 -30 -19.5t-37.5 -22.5t-39 -33t-35.5 -53t-27.5 -81t-13.5 -117q1 -5 5.5 -13.5t9.5 -18.5t10 -19t8 -15h-139q6 8 10.5 20t7.5 24.5t4.5 23t1.5 16.5l-100 260
q-24 36 -60 48q25 17 46.5 33t46.5 34q3 -10 11.5 -34t17.5 -50t17.5 -49t11.5 -30q17 -47 27 -76.5t17 -50t13 -35t15 -30.5v-3z" />
    <glyph glyph-name="afii10147" unicode="&#x472;" horiz-adv-x="623" 
d="M599 340q0 -151 -93 -256q-89 -101 -211 -101q-121 0 -205 101q-79 96 -79 230q0 152 93 256q90 101 211 101q120 0 204 -101q80 -96 80 -230zM545 267q0 42 -10 81q-50 -22 -92 -27.5t-80.5 -2.5t-73.5 11t-70 13.5t-71.5 4.5t-76.5 -15q16 -87 80 -161
q93 -106 211 -106q83 0 134 61q49 57 49 141zM458 491q-92 107 -211 107q-81 0 -133 -62q-48 -58 -48 -142q0 -20 2 -40q38 26 80 35t85 7.5t85 -10t80.5 -15.5t72 -10t58.5 7q-21 66 -71 123z" />
    <glyph glyph-name="afii10195" unicode="&#x473;" horiz-adv-x="441" 
d="M418 231v-13q0 -92 -62 -160q-61 -67 -142 -67q-84 0 -143 67q-56 64 -55 148v12q1 92 62 160q61 67 143 67q45 0 89 -21q110 -53 108 -193zM383 178q0 25 -6 48q-48 -26 -87.5 -25t-77 10t-74 16t-78.5 -7q14 -52 62 -97q68 -64 146 -64q50 0 82.5 34.5t32.5 84.5z
M320 320q-63 62 -144 62q-51 0 -86 -32q-36 -34 -36 -84q0 -12 1 -23q32 21 62.5 26.5t58.5 2.5t54 -11t50.5 -15t47 -9.5t43.5 6.5q-15 42 -51 77z" />
    <glyph glyph-name="uni0512" unicode="&#x512;" horiz-adv-x="585" 
d="M513 80q1 -56 -17.5 -107.5t-56 -91.5t-89.5 -63.5t-115 -23.5q-25 0 -26 9q0 6 12 12q3 -1 12 -1q54 0 91.5 22.5t60 60t30.5 83t8 104.5v474q0 29 -22 47q-20 17 -51 17q-30 0 -52 -16q-24 -17 -25 -47q-3 -99 -15 -297q-24 -280 -136 -280q-14 0 -30 4q-76 25 -76 112
q0 29 11 49q14 24 41 24q22 0 37 -19q14 -18 14 -40q0 -10 -5 -29.5t-5 -28.5q0 -29 29 -29q62 0 80 145q6 54 11 119q9 129 9 165q0 96 -18 138q-13 30 -38 44q-9 5 -9 6q0 6 7 6h379q7 0 7 -6q0 -1 -8 -6q-19 -11 -32 -31q-13 -21 -13 -42v-479v-4z" />
    <glyph glyph-name="uni0513" unicode="&#x513;" horiz-adv-x="454" 
d="M388 59q3 -59 -2.5 -101t-29 -80t-65.5 -61t-105 -28q-21 0 -22 6q-1 2 1.5 7t7.5 8q2 -1 11 -1q47 4 74.5 28.5t40.5 61t16 76.5t1 83v306q0 15 -11.5 34.5t-42.5 19.5t-44 -17q-12 -17 -13 -39q-5 -54 -14 -160q-17 -194 -91 -204h-10q-39 0 -60 26q-20 26 -20 64
q0 24 8 37q16 24 36 24q18 0 31 -14t13 -32q0 -16 -12 -30.5t-12 -23.5q0 -23 20 -23t33 16q7 8 15 30q32 78 32 217v60q-4 36 -20 54q-11 13 -34 22q-6 2 -6 7t5 5h305q5 0 5 -3q0 -6 -7 -9q-34 -19 -34 -49v-318v1z" />
    <glyph glyph-name="uni051C" unicode="&#x51c;" horiz-adv-x="694" 
d="M662 624q0 -20 -5.5 -51.5t-16.5 -68.5q-7 -25 -20 -78.5t-33 -138.5q-21 -91 -33 -144t-14 -70q-1 -3 -1 -8v-8q0 -30 33 -57h-95t-53 1q3 4 7.5 8.5l9.5 9.5q15 13 15 34v8.5t-1 9.5q0 2 -0.5 2.5t-0.5 2.5q-9 45 -82 285q-104 -285 -104 -298q0 -14 15.5 -30.5
t32.5 -31.5l1 -1q-44 0 -85 1t-82 1q39 28 39 57q0 39 -30 169t-93 353q-5 13 -9.5 24.5t-6.5 14.5q-13 25 -35 50q46 0 85 -0.5t83 -0.5q-16 -17 -22.5 -38t-6.5 -50q0 -40 15 -98q5 -24 11 -48.5t11 -47.5l19 -75q12 -51 24 -92.5t25 -71.5q23 9 80 204q20 68 33.5 112
t19.5 65l131 -424q72 288 72 352q0 27 -4 54.5t-12 53.5q-8 28 -12 44t-4 19q0 15 4 28t9 23q15 23 38 23q48 0 48 -78z" />
    <glyph glyph-name="uni051D" unicode="&#x51d;" horiz-adv-x="646" 
d="M101 452q5 -14 9 -28.5t9 -30.5q8 -29 17 -58.5t18 -61.5q9 -31 20.5 -69.5t25.5 -85.5q12 0 31 38.5t50 116.5q10 27 18 49t16 41q10 26 16.5 42.5t11.5 27.5l148 -373q33 73 52.5 115t19.5 62q0 16 -4 37t-12 46q-8 23 -12.5 36.5t-4.5 23.5q0 27 12 45h-1q15 21 37 21
q24 0 40 -40q12 -26 12 -43q0 -26 -8.5 -57.5t-23.5 -69.5v1q-11 -26 -26 -56.5t-35 -67.5q-35 -61 -35 -65q0 -7 15 -29q5 -5 9 -10.5t9 -9.5q-45 0 -81.5 0.5t-78.5 0.5q18 20 26.5 36.5t5.5 26.5q-16 42 -35 92.5t-42 113.5l-17 45q-98 -228 -98 -237q0 -38 49 -77
q-42 0 -80.5 -0.5t-80.5 -0.5q29 41 29 72q0 16 -5.5 43.5t-15.5 63t-24 77t-32 86.5q-8 19 -42 62l17 8q6 3 14 6.5t16 8.5q2 2 7.5 5.5t12.5 7t13 7.5t8 6z" />
    <glyph glyph-name="uni0526" unicode="&#x526;" horiz-adv-x="607" 
d="M430 125q-5 -33 2.5 -51.5t26.5 -33.5q22 -22 51 -22q25 0 43 20t16 20h2l4 -4q1 -60 21 -125q3 -14 5 -21t2 -9.5t-1 -2.5h-4t-31 27q-34 32 -62 50q-44 27 -82 27h-126q-7 0 -7 6q0 1 8 6q14 7 28 29q14 21 13 37v6l25 214q1 8 1 16q0 40 -29 62q-26 20 -66 20
q-48 0 -110 -25v-288q0 -20 13 -41.5t33 -30.5q8 -5 8 -6q0 -5 -7 -5h-183q-7 0 -7 5q0 1 9 6q18 9 32 30q12 22 12 42v479q0 20 -13 41t-31 31q-9 5 -9 6q0 6 7 6h183q7 0 7 -6q0 -1 -8 -6q-20 -10 -33 -31t-13 -41v-162q54 22 119 22q51 0 93 -9q80 -16 80 -92
q0 -15 -2 -33z" />
    <glyph glyph-name="uni0527" unicode="&#x527;" horiz-adv-x="512" 
d="M318 91q8 48 12.5 97.5t4.5 101.5q0 108 -87 108q-7 0 -20.5 -3.5t-34.5 -8.5q-49 -12 -59 -24v-260q4 -64 49 -102h-158q37 46 37 102l-1 430q0 37 -5 57q-5 16 -14.5 30t-26.5 25q4 2 15.5 6.5t33.5 12.5l9 3q17 7 31.5 14t27.5 15v-316q110 80 194 80q48 0 73 -37
q10 -17 14.5 -39t2.5 -48q-3 -29 -6 -62.5t-6.5 -68.5t-6.5 -69t-6 -62q-5 -18 11 -34.5t36 -16.5q12 0 26.5 16t16.5 16q9 0 9 -41q0 -37 11 -73q8 -25 8 -34q0 -7 -7 -7q-6 0 -11 13q-6 18 -7 19q-2 3 -14 19q-36 50 -100 50h-95q-5 0 -5 3q0 2 18.5 17t22.5 34z" />
    </font>
</defs>
</svg>
